<svg width="253" height="138" viewBox="0 0 253 138" fill="none" xmlns="http://www.w3.org/2000/svg">
<g opacity="0.05">
<path d="M195.034 80.9799C194.948 71.9944 190.353 63.7781 182.743 59.0021C175.132 54.226 165.736 53.6619 157.608 57.4924L138.02 66.7213C134.771 68.2522 132.156 70.7364 130.459 73.9028C128.761 77.0698 128.142 80.6224 128.667 84.178C129.194 87.7325 130.816 90.9541 133.358 93.4946C135.899 96.0352 139.123 97.6546 142.679 98.1786L142.918 98.2129C151.827 99.5929 159.823 104.65 164.887 112.116C166.194 114.041 167.854 115.642 169.783 116.853C170.832 117.511 171.961 118.054 173.156 118.472C176.549 119.657 180.155 119.716 183.586 118.645C187.016 117.573 189.947 115.471 192.062 112.565C194.176 109.659 195.276 106.224 195.242 102.631L195.034 80.9799Z" fill="#949494"/>
<path d="M150.388 52.9338C154.042 53.6507 157.768 52.6818 160.879 50.2051C163.841 47.8486 165.896 44.3802 166.667 40.4375C167.435 36.4964 166.837 32.5098 164.982 29.211C163.032 25.7463 159.947 23.4448 156.296 22.7331C148.955 21.2954 141.655 26.9005 140.021 35.2316C138.728 41.8673 141.416 48.2553 146.273 51.3037C147.513 52.0821 148.895 52.6426 150.388 52.9338Z" fill="#949494"/>
<path d="M177.184 52.8891C184.577 57.5289 194.893 54.4509 200.179 46.0278C205.467 37.6025 203.753 26.9735 196.36 22.3338C188.967 17.6945 178.652 20.7743 173.364 29.1996C168.078 37.6227 169.792 48.2499 177.184 52.8891Z" fill="#949494"/>
<path d="M197.985 71.1741L197.986 71.1746C198.886 72.2657 199.933 73.1742 201.088 73.8993C206.48 77.2829 214.197 76.6561 219.987 71.8834C223.32 69.1364 225.548 65.418 226.259 61.4137C227.005 57.2222 226.021 53.2229 223.489 50.1517C220.957 47.08 217.218 45.3519 212.961 45.284C208.895 45.2191 204.82 46.6972 201.488 49.4451C194.458 55.2411 192.887 64.9888 197.985 71.1741Z" fill="#949494"/>
<path d="M227.34 87.1113L227.339 87.1079C224.604 80.142 215.955 76.9892 208.055 80.0808C200.159 83.1778 195.952 91.3641 198.677 98.328C199.671 100.869 201.452 102.903 203.697 104.312C207.611 106.768 212.935 107.325 217.962 105.36C225.858 102.263 230.065 94.077 227.34 87.1113Z" fill="#949494"/>
</g>
<path d="M31.2199 120.283H8.78002L6.41504 115.755H33.5849L31.2199 120.283Z" fill="#716680"/>
<path d="M29.0564 115.755L26.6914 120.283H31.2197L33.5847 115.755H29.0564Z" fill="#635870"/>
<path d="M15.4717 120.283H24.5283V124.811H15.4717V120.283Z" fill="#FF573D"/>
<path d="M20 120.283H24.5283V124.811H20V120.283Z" fill="#E64028"/>
<path d="M6.41504 76.5094H33.5849V115.755H6.41504V76.5094Z" fill="#CEE8F2"/>
<path d="M29.0566 76.5094H33.5849V115.755H29.0566V76.5094Z" fill="#9AD5ED"/>
<path d="M36.6035 76.5094H3.39599C2.1454 76.5094 1.13184 75.4958 1.13184 74.2452C1.13184 72.9946 2.1454 71.9811 3.39599 71.9811H36.6035C37.8541 71.9811 38.8677 72.9946 38.8677 74.2452C38.8677 75.4958 37.8541 76.5094 36.6035 76.5094Z" fill="#716680"/>
<path d="M36.604 71.9811H32.0757C33.3263 71.9811 34.3398 72.9946 34.3398 74.2452C34.3398 75.4958 33.3263 76.5094 32.0757 76.5094H36.604C37.8546 76.5094 38.8681 75.4958 38.8681 74.2452C38.8681 72.9946 37.8546 71.9811 36.604 71.9811Z" fill="#635870"/>
<path d="M27.849 64.6604H12.1509C10.9003 64.6604 9.88672 63.6469 9.88672 62.3963C9.88672 61.1457 10.9003 60.1321 12.1509 60.1321H27.849C29.0996 60.1321 30.1131 61.1457 30.1131 62.3963C30.1131 63.6469 29.0996 64.6604 27.849 64.6604Z" fill="#E8E1D5"/>
<path d="M27.8491 60.1321H23.3208C24.5714 60.1321 25.585 61.1457 25.585 62.3963C25.585 63.6469 24.5714 64.6604 23.3208 64.6604H27.8491C29.0997 64.6604 30.1133 63.6469 30.1133 62.3963C30.1133 61.1457 29.0997 60.1321 27.8491 60.1321Z" fill="#D6CFC4"/>
<path d="M17.7358 64.6603H22.2641V71.9811H17.7358V64.6603Z" fill="#D6CFC4"/>
<path d="M6.41504 98.6828V115.755H33.5849V101.277C24.5371 100.758 20.6474 94.6227 13.6603 94.6227C10.6627 94.6227 7.97459 96.1822 6.41504 98.6828Z" fill="#78C0DE"/>
<path d="M33.5849 98.6828V115.755H6.41504V101.278C15.4628 100.757 19.3525 94.6227 26.3396 94.6227C27.2847 94.6227 28.1992 94.7783 29.0565 95.0678C30.9209 95.6987 32.5176 96.97 33.5849 98.6828Z" fill="#89CEEA"/>
<path d="M33.5849 98.6828V115.755H29.0566V95.0678C30.921 95.6987 32.5177 96.9699 33.5849 98.6828Z" fill="#78C0DE"/>
<path d="M28.6037 90.2452C28.6037 91.9127 27.2522 93.2641 25.5848 93.2641C23.9173 93.2641 22.5659 91.9127 22.5659 90.2452C22.5659 88.5778 23.9173 87.2264 25.5848 87.2264C27.2522 87.2264 28.6037 88.5778 28.6037 90.2452Z" fill="#B0693C"/>
<path d="M17.4342 90.2452C17.4342 91.9127 16.0828 93.2641 14.4154 93.2641C12.7479 93.2641 11.3965 91.9127 11.3965 90.2452C11.3965 88.5778 12.7479 87.2264 14.4154 87.2264C16.0828 87.2264 17.4342 88.5778 17.4342 90.2452Z" fill="#B0693C"/>
<path d="M26.9434 95.5283C26.9434 92.444 23.8349 89.9434 20 89.9434C16.1651 89.9434 13.0566 92.444 13.0566 95.5283C13.0566 98.6126 16.1651 101.113 20 101.113C23.8349 101.113 26.9434 98.6126 26.9434 95.5283Z" fill="#FFD659"/>
<path d="M36.6038 70.8491H29.6981C29.0725 70.8491 28.566 71.3561 28.566 71.9811C28.566 72.6061 29.0725 73.1132 29.6981 73.1132H36.6038C37.2282 73.1132 37.7359 73.6209 37.7359 74.2453C37.7359 74.8697 37.2282 75.3774 36.6038 75.3774H3.39623C2.77182 75.3774 2.26415 74.8697 2.26415 74.2453C2.26415 73.6209 2.77182 73.1132 3.39623 73.1132H24.8679C25.4935 73.1132 26 72.6061 26 71.9811C26 71.3561 25.4935 70.8491 24.8679 70.8491H23.3962V65.7925H27.8491C29.7217 65.7925 31.2453 64.2689 31.2453 62.3962C31.2453 60.5236 29.7217 59 27.8491 59H12.1509C10.2783 59 8.75472 60.5236 8.75472 62.3962C8.75472 64.2689 10.2783 65.7925 12.1509 65.7925H16.6038V70.8491H3.39623C1.52358 70.8491 0 72.3726 0 74.2453C0 76.1179 1.52358 77.6415 3.39623 77.6415H5.28302V78.2954C5.28302 78.921 5.79009 79.4275 6.41509 79.4275C7.04009 79.4275 7.54717 78.921 7.54717 78.2954V77.6415H32.4528V95.6958C31.1675 94.6368 29.6279 93.9204 27.9829 93.6338C29.0578 92.875 29.7358 91.6303 29.7358 90.2453C29.7358 87.9564 27.8738 86.0943 25.5849 86.0943C23.7476 86.0943 22.1869 87.2942 21.6415 88.9511C21.1114 88.8597 20.5625 88.8113 20 88.8113C19.4375 88.8113 18.8886 88.8597 18.3585 88.9511C17.8131 87.2942 16.2524 86.0943 14.4151 86.0943C12.1262 86.0943 10.2642 87.9564 10.2642 90.2453C10.2642 91.6303 10.9422 92.875 12.0171 93.6338C10.3721 93.9204 8.83255 94.6368 7.54717 95.6952V83.1509C7.54717 82.5259 7.04009 82.0189 6.41509 82.0189C5.79009 82.0189 5.28302 82.5259 5.28302 83.1509V115.755C5.28302 115.785 5.28538 115.815 5.28774 115.846C5.28833 115.853 5.28774 115.859 5.28833 115.865C5.29304 115.91 5.30012 115.954 5.31014 115.998C5.31191 116.006 5.31427 116.015 5.31663 116.023C5.32488 116.059 5.3355 116.094 5.34729 116.128C5.35083 116.139 5.35495 116.149 5.35849 116.159C5.37264 116.196 5.38797 116.231 5.40566 116.266C5.40802 116.27 5.4092 116.275 5.41156 116.279L5.41804 116.292C5.41863 116.293 5.41981 116.294 5.4204 116.296L7.77653 120.807C7.9717 121.181 8.3579 121.415 8.77948 121.415H14.3396V124.811C14.3396 125.436 14.8467 125.943 15.4717 125.943H18.8679V135.151C18.8679 135.776 19.375 136.283 20 136.283C20.6256 136.283 21.1321 135.776 21.1321 135.151V125.943H24.5283C25.1539 125.943 25.6604 125.436 25.6604 124.811V121.415H31.2199C31.6415 121.415 32.0283 121.181 32.2235 120.807L34.5802 116.295C34.5802 116.294 34.5808 116.294 34.5814 116.293L34.5884 116.279C34.5908 116.274 34.5926 116.269 34.5949 116.264C34.612 116.231 34.6274 116.196 34.6409 116.16C34.645 116.149 34.6492 116.138 34.6527 116.127C34.6645 116.094 34.6751 116.059 34.6834 116.024C34.6857 116.015 34.6887 116.006 34.6904 115.998C34.6999 115.954 34.707 115.91 34.7117 115.866C34.7123 115.858 34.7123 115.852 34.7129 115.846C34.7152 115.815 34.717 115.785 34.717 115.755V112.107C34.717 111.482 34.2105 110.975 33.5849 110.975C32.9599 110.975 32.4528 111.482 32.4528 112.107V114.623H7.54717V102.317C10.4062 102.009 12.6757 101.182 14.4346 100.388C15.8844 101.537 17.8443 102.245 20 102.245C22.1562 102.245 24.1162 101.538 25.5654 100.388C27.3243 101.182 29.5938 102.009 32.4528 102.317V107.283C32.4528 107.908 32.9599 108.415 33.5849 108.415C34.2105 108.415 34.717 107.908 34.717 107.283V77.6415H36.6038C38.4764 77.6415 40 76.1179 40 74.2453C40 72.3726 38.4764 70.8491 36.6038 70.8491ZM11.0189 62.3962C11.0189 61.7718 11.5265 61.2642 12.1509 61.2642H27.8491C28.4735 61.2642 28.9811 61.7718 28.9811 62.3962C28.9811 63.0206 28.4735 63.5283 27.8491 63.5283H12.1509C11.5265 63.5283 11.0189 63.0206 11.0189 62.3962ZM18.8679 65.7925H21.1321V70.8491H18.8679V65.7925ZM25.5849 88.3585C26.6256 88.3585 27.4717 89.2046 27.4717 90.2453C27.4717 90.8679 27.171 91.4281 26.6928 91.7736C25.9593 90.8721 24.9693 90.1262 23.8113 89.6085C24.0731 88.8809 24.7683 88.3585 25.5849 88.3585ZM14.4151 88.3585C15.2317 88.3585 15.9269 88.8809 16.1887 89.6085C15.0307 90.1262 14.0407 90.8721 13.3072 91.7736C12.829 91.4281 12.5283 90.8679 12.5283 90.2453C12.5283 89.2046 13.3744 88.3585 14.4151 88.3585ZM23.3962 123.679H16.6038V121.415H23.3962V123.679ZM31.7164 116.887L30.5342 119.151H9.4658L8.28361 116.887H31.7164ZM7.54717 99.0242C8.60083 97.4776 10.1751 96.3892 11.9428 95.9605C12.0165 96.9133 12.329 97.8113 12.832 98.6156C11.4004 99.214 9.65035 99.7854 7.54717 100.041V99.0242ZM15.4717 98.3149C15.431 98.2677 15.3868 98.2246 15.3396 98.1857C14.6173 97.4434 14.1887 96.5236 14.1887 95.5283C14.1887 94.9175 14.3502 94.3355 14.6421 93.8048C14.6509 93.7913 14.658 93.7759 14.6663 93.7618C15.2588 92.7164 16.3591 91.8774 17.7282 91.4298C17.7541 91.4228 17.7795 91.4151 17.8042 91.4062C18.4823 91.1934 19.2235 91.0755 20 91.0755C20.7777 91.0755 21.52 91.194 22.1987 91.4074C22.2217 91.4157 22.2453 91.4228 22.2695 91.4292C23.6397 91.8762 24.7412 92.7158 25.3337 93.7624C25.342 93.7765 25.3491 93.7913 25.3579 93.8048C25.6498 94.3355 25.8113 94.9175 25.8113 95.5283C25.8113 96.5236 25.3827 97.4434 24.6598 98.1857C24.6132 98.2246 24.569 98.2677 24.5289 98.3143C23.4629 99.3296 21.829 99.9811 20 99.9811C18.171 99.9811 16.5377 99.3296 15.4717 98.3149ZM27.168 98.6156C27.671 97.8119 27.9835 96.9133 28.0572 95.9605C29.8249 96.3897 31.3992 97.4776 32.4528 99.0242V100.041C30.3496 99.7854 28.5996 99.214 27.168 98.6156Z" fill="black"/>
<path d="M19.1699 93.4529C19.1699 94.0779 18.6628 94.585 18.0378 94.585C17.4128 94.585 16.9058 94.0779 16.9058 93.4529C16.9058 92.8273 17.4128 92.3208 18.0378 92.3208C18.6628 92.3208 19.1699 92.8273 19.1699 93.4529Z" fill="black"/>
<path d="M23.0942 93.4529C23.0942 94.0779 22.5872 94.585 21.9622 94.585C21.3372 94.585 20.8301 94.0779 20.8301 93.4529C20.8301 92.8273 21.3372 92.3208 21.9622 92.3208C22.5872 92.3208 23.0942 92.8273 23.0942 93.4529Z" fill="black"/>
</svg>
