<svg width="253" height="138" viewBox="0 0 253 138" fill="none" xmlns="http://www.w3.org/2000/svg">
<g opacity="0.05">
<path d="M195.034 80.9799C194.948 71.9945 190.353 63.7782 182.743 59.0021C175.132 54.226 165.736 53.6619 157.608 57.4924L138.02 66.7213C134.771 68.2522 132.156 70.7364 130.459 73.9028C128.761 77.0699 128.142 80.6224 128.667 84.1781C129.194 87.7325 130.816 90.9541 133.358 93.4947C135.899 96.0352 139.123 97.6546 142.679 98.1786L142.918 98.2129C151.827 99.5929 159.823 104.65 164.887 112.116C166.194 114.041 167.854 115.642 169.783 116.853C170.832 117.511 171.961 118.054 173.156 118.472C176.549 119.657 180.155 119.716 183.586 118.645C187.016 117.573 189.947 115.471 192.062 112.565C194.176 109.659 195.276 106.224 195.242 102.631L195.034 80.9799Z" fill="#78C0DE"/>
<path d="M150.388 52.9339C154.042 53.6507 157.768 52.6818 160.879 50.2051C163.841 47.8486 165.896 44.3802 166.667 40.4375C167.435 36.4964 166.837 32.5098 164.982 29.211C163.032 25.7464 159.947 23.4448 156.296 22.7331C148.955 21.2955 141.655 26.9005 140.021 35.2316C138.728 41.8674 141.416 48.2553 146.273 51.3037C147.513 52.0821 148.895 52.6426 150.388 52.9339Z" fill="#78C0DE"/>
<path d="M177.184 52.8892C184.577 57.5289 194.893 54.4509 200.179 46.0278C205.467 37.6025 203.753 26.9736 196.36 22.3338C188.967 17.6945 178.652 20.7743 173.364 29.1996C168.078 37.6228 169.792 48.2499 177.184 52.8892Z" fill="#78C0DE"/>
<path d="M197.985 71.1741L197.986 71.1745C198.886 72.2657 199.933 73.1742 201.088 73.8993C206.48 77.2829 214.197 76.6561 219.987 71.8834C223.32 69.1364 225.548 65.4179 226.259 61.4137C227.005 57.2222 226.021 53.2229 223.489 50.1517C220.957 47.08 217.218 45.3519 212.961 45.284C208.895 45.219 204.82 46.6971 201.488 49.445C194.458 55.2411 192.887 64.9888 197.985 71.1741V71.1741Z" fill="#78C0DE"/>
<path d="M227.34 87.1113L227.339 87.1079C224.604 80.142 215.955 76.9892 208.055 80.0808C200.159 83.1779 195.952 91.3641 198.677 98.328C199.671 100.869 201.452 102.903 203.697 104.312C207.611 106.768 212.935 107.325 217.962 105.36C225.858 102.263 230.065 94.077 227.34 87.1113V87.1113Z" fill="#78C0DE"/>
</g>
<path d="M30.8569 85.7143V82.378C30.8569 81.8126 30.9813 81.2541 31.2211 80.742C31.461 80.23 31.8105 79.7769 32.2449 79.4149L37.7836 74.7992C38.2925 74.3751 38.934 74.1429 39.5964 74.1429C39.9683 74.1428 40.3366 74.2161 40.6801 74.3584C41.0237 74.5007 41.3359 74.7092 41.5989 74.9722C41.8619 75.2352 42.0705 75.5473 42.2128 75.8909C42.3551 76.2345 42.4284 76.6027 42.4284 76.9746V82.032C42.4284 82.7918 42.2787 83.5441 41.988 84.2461C41.6972 84.9481 41.271 85.5859 40.7338 86.1231L38.5712 88.2857V93.8143C38.5712 94.4709 38.3884 95.1146 38.0432 95.6732C37.698 96.2317 37.2041 96.6831 36.6168 96.9768L33.4284 98.5714H30.8569V85.7143Z" fill="#E08122"/>
<path d="M12.8571 85.7143V82.378C12.8571 81.8126 12.7327 81.2541 12.4929 80.742C12.253 80.23 11.9035 79.7769 11.4691 79.4149L5.93029 74.7992C5.42142 74.3751 4.77999 74.1429 4.11759 74.1429C3.7457 74.1428 3.37745 74.2161 3.03386 74.3584C2.69028 74.5007 2.37808 74.7092 2.11511 74.9722C1.85214 75.2352 1.64354 75.5473 1.50122 75.8909C1.3589 76.2345 1.28564 76.6027 1.28564 76.9746V82.032C1.28564 82.7918 1.43528 83.5441 1.72604 84.2461C2.01679 84.9481 2.44296 85.5859 2.98021 86.1231L5.14279 88.2857V93.8143C5.14276 94.4709 5.3256 95.1146 5.67079 95.6732C6.01599 96.2317 6.50992 96.6831 7.09723 96.9768L10.2856 98.5714H12.8571V85.7143Z" fill="#E08122"/>
<path d="M32.1417 91.2858C31.903 91.2856 31.6691 91.219 31.4661 91.0934C31.2631 90.9678 31.0991 90.7881 30.9925 90.5746C30.8858 90.3611 30.8407 90.1221 30.8622 89.8843C30.8836 89.6466 30.9709 89.4196 31.1141 89.2286L35.9998 82.7142V80.5714C35.9998 80.2304 36.1352 79.9034 36.3764 79.6623C36.6175 79.4212 36.9445 79.2857 37.2855 79.2857C37.6265 79.2857 37.9535 79.4212 38.1946 79.6623C38.4358 79.9034 38.5712 80.2304 38.5712 80.5714V83.1428C38.5712 83.421 38.481 83.6917 38.3141 83.9143L33.1712 90.7713C33.0515 90.9313 32.8961 91.0611 32.7173 91.1504C32.5386 91.2397 32.3415 91.2861 32.1417 91.2858V91.2858Z" fill="#BF6E1D"/>
<path d="M11.5726 91.2858C11.3728 91.2861 11.1757 91.2397 10.997 91.1504C10.8182 91.0612 10.6628 90.9314 10.5431 90.7715L5.40021 83.9143C5.23329 83.6917 5.14307 83.421 5.14307 83.1428V80.5714C5.14307 80.2304 5.27853 79.9034 5.51964 79.6623C5.76076 79.4212 6.08779 79.2857 6.42878 79.2857C6.76977 79.2857 7.0968 79.4212 7.33792 79.6623C7.57903 79.9034 7.71449 80.2304 7.71449 80.5714V82.7142L12.6002 89.2286C12.7434 89.4196 12.8307 89.6466 12.8521 89.8843C12.8736 90.1221 12.8285 90.3611 12.7218 90.5746C12.6152 90.7881 12.4512 90.9678 12.2482 91.0934C12.0452 91.219 11.8113 91.2856 11.5726 91.2858V91.2858Z" fill="#BF6E1D"/>
<path d="M33.3773 129.789L32.143 130.714L32.8244 130.941L34.2419 131.413C34.7537 131.584 35.1989 131.912 35.5144 132.35C35.8299 132.787 35.9998 133.313 36.0001 133.853V135.857H7.71442V133.589C7.71438 133.112 7.84726 132.644 8.09819 132.238C8.34911 131.832 8.70817 131.503 9.13514 131.29L10.2859 130.714L7.9346 128.363C6.97058 127.399 6.42892 126.091 6.42871 124.728V120.208C6.42873 119.87 6.4953 119.536 6.62463 119.224C6.75396 118.912 6.94351 118.628 7.18246 118.389L10.2859 115.286L12.8573 108.857H30.8573L33.4287 115.286L36.5321 118.389C36.771 118.628 36.9606 118.912 37.0899 119.224C37.2192 119.536 37.2858 119.87 37.2858 120.208V124.286C37.2859 125.084 37.1001 125.872 36.743 126.586C36.386 127.3 35.8675 127.921 35.2287 128.4L33.3773 129.789Z" fill="#FD9226"/>
<path d="M30.8571 108.857H12.8571L10.2856 102.429V90.2827C10.2857 89.004 10.7936 87.7777 11.6978 86.8735L11.7207 86.8507C12.4583 86.1131 13.4153 85.6346 14.448 85.487L14.5839 85.4676C19.4082 84.7784 24.3059 84.7784 29.1302 85.4676L29.2662 85.487C30.2988 85.6346 31.2558 86.1131 31.9935 86.8507L32.0163 86.8735C32.9205 87.7777 33.4285 89.004 33.4285 90.2827V102.429L30.8571 108.857Z" fill="#FD9226"/>
<path d="M26.6695 112.714C25.9802 112.714 25.3015 112.544 24.6937 112.219C24.0859 111.894 23.5678 111.423 23.1854 110.85L21.8569 108.857L20.5286 110.85C20.1462 111.423 19.6281 111.894 19.0203 112.219C18.4125 112.544 17.7338 112.714 17.0445 112.714C16.4946 112.714 15.9501 112.606 15.442 112.396C14.9339 112.185 14.4723 111.877 14.0835 111.488C13.6946 111.099 13.3861 110.637 13.1757 110.129C12.9652 109.621 12.8569 109.077 12.8569 108.527V106.616C12.8569 105.505 13.2981 104.44 14.0834 103.655C14.8687 102.87 15.9338 102.429 17.0443 102.429H26.6695C27.7801 102.429 28.8452 102.87 29.6305 103.655C30.4158 104.44 30.8569 105.505 30.8569 106.616V108.527C30.8569 109.637 30.4158 110.703 29.6305 111.488C28.8452 112.273 27.7801 112.714 26.6695 112.714Z" fill="#985713"/>
<path d="M14.1428 132V135.857H11.5714V132.304L10.4206 130.004C10.332 129.825 10.2858 129.628 10.2856 129.429V123C10.2856 122.659 10.4211 122.332 10.6622 122.091C10.9033 121.85 11.2304 121.714 11.5714 121.714C11.9124 121.714 12.2394 121.85 12.4805 122.091C12.7216 122.332 12.8571 122.659 12.8571 123V129.125L14.0078 131.425C14.0964 131.603 14.1426 131.8 14.1428 132V132Z" fill="#E08122"/>
<path d="M20.5715 123V129.429C20.5713 129.628 20.5251 129.825 20.4365 130.004L19.2858 132.304V135.857H16.7144V132C16.7145 131.8 16.7607 131.604 16.8494 131.425L18.0001 129.125V123C18.0001 122.659 18.1355 122.332 18.3766 122.091C18.6178 121.85 18.9448 121.714 19.2858 121.714C19.6268 121.714 19.9538 121.85 20.1949 122.091C20.436 122.332 20.5715 122.659 20.5715 123Z" fill="#E08122"/>
<path d="M33.4284 123V129.429C33.428 129.628 33.3818 129.825 33.2934 130.004L32.8241 130.941L32.1427 132.304V135.857H29.5713V132C29.5715 131.8 29.6177 131.604 29.7063 131.425L30.857 129.125V123C30.857 122.659 30.9925 122.332 31.2336 122.091C31.4747 121.85 31.8017 121.714 32.1427 121.714C32.4837 121.714 32.8107 121.85 33.0519 122.091C33.293 122.332 33.4284 122.659 33.4284 123Z" fill="#E08122"/>
<path d="M26.9997 132V135.857H24.4283V132.304L23.2776 130.004C23.189 129.825 23.1428 129.628 23.1426 129.429V123C23.1426 122.659 23.278 122.332 23.5192 122.091C23.7603 121.85 24.0873 121.714 24.4283 121.714C24.7693 121.714 25.0963 121.85 25.3374 122.091C25.5785 122.332 25.714 122.659 25.714 123V129.125L26.8647 131.425C26.9533 131.604 26.9995 131.8 26.9997 132V132Z" fill="#E08122"/>
<path d="M21.8571 107.571C23.2772 107.571 24.4285 106.42 24.4285 105C24.4285 103.58 23.2772 102.429 21.8571 102.429C20.4369 102.429 19.2856 103.58 19.2856 105C19.2856 106.42 20.4369 107.571 21.8571 107.571Z" fill="#70400E"/>
<path d="M16.7141 97.7678C17.6905 97.7678 18.482 96.9763 18.482 96C18.482 95.0236 17.6905 94.2321 16.7141 94.2321C15.7378 94.2321 14.9463 95.0236 14.9463 96C14.9463 96.9763 15.7378 97.7678 16.7141 97.7678Z" fill="#985713"/>
<path d="M27.4822 97.7678C28.4586 97.7678 29.2501 96.9763 29.2501 96C29.2501 95.0236 28.4586 94.2321 27.4822 94.2321C26.5059 94.2321 25.7144 95.0236 25.7144 96C25.7144 96.9763 26.5059 97.7678 27.4822 97.7678Z" fill="#985713"/>
<path d="M52.7141 107.571V132C52.7141 133.364 52.1722 134.672 51.2078 135.637C50.2433 136.601 48.9352 137.143 47.5712 137.143C46.2072 137.143 44.8991 136.601 43.9347 135.637C42.9702 134.672 42.4284 133.364 42.4284 132V126.536C42.4284 126.28 42.3268 126.035 42.1459 125.854C41.9651 125.673 41.7198 125.571 41.4641 125.571H32.1426C31.8017 125.571 31.4746 125.436 31.2335 125.195C30.9924 124.954 30.8569 124.627 30.8569 124.286C30.8569 123.945 30.9924 123.618 31.2335 123.377C31.4746 123.135 31.8017 123 32.1426 123H41.4641C42.4015 123.001 43.3001 123.374 43.963 124.037C44.6258 124.7 44.9987 125.598 44.9998 126.536V132C44.9998 132.682 45.2707 133.336 45.7529 133.818C46.2352 134.3 46.8892 134.571 47.5712 134.571C48.2532 134.571 48.9073 134.3 49.3895 133.818C49.8717 133.336 50.1426 132.682 50.1426 132V107.571C50.1426 107.23 50.2781 106.903 50.5192 106.662C50.7603 106.421 51.0874 106.286 51.4284 106.286C51.7693 106.286 52.0964 106.421 52.3375 106.662C52.5786 106.903 52.7141 107.23 52.7141 107.571Z" fill="#DBDBDB"/>
<path d="M51.4288 85.7143C50.7054 85.7138 49.9901 85.561 49.3297 85.2657C48.6693 84.9704 48.0785 84.5393 47.5958 84.0004C47.4832 83.8746 47.3964 83.7279 47.3406 83.5685C47.2847 83.4092 47.2607 83.2404 47.27 83.0718C47.2889 82.7314 47.4422 82.4123 47.6963 82.1849C47.9504 81.9575 48.2844 81.8403 48.6249 81.8592C48.7935 81.8685 48.9586 81.911 49.1107 81.9841C49.2629 82.0572 49.3992 82.1596 49.5118 82.2854C49.7977 82.6052 50.1591 82.8483 50.563 82.9927C50.9669 83.1371 51.4005 83.1782 51.8243 83.1122C52.2482 83.0462 52.6488 82.8752 52.9896 82.6149C53.3305 82.3545 53.6008 82.013 53.776 81.6214C53.9511 81.2299 54.0255 80.8007 53.9924 80.3731C53.9594 79.9454 53.8198 79.5328 53.5865 79.1729C53.3532 78.8129 53.0336 78.517 52.6567 78.3122C52.2799 78.1073 51.8577 78 51.4288 78C51.0878 78 50.7608 77.8645 50.5197 77.6234C50.2786 77.3823 50.1431 77.0553 50.1431 76.7143V65.1429C50.1431 64.8019 50.2786 64.4748 50.5197 64.2337C50.7608 63.9926 51.0878 63.8571 51.4288 63.8571C51.7698 63.8571 52.0968 63.9926 52.3379 64.2337C52.5791 64.4748 52.7145 64.8019 52.7145 65.1429V75.5912C53.9271 75.9036 54.9841 76.6477 55.6871 77.6839C56.3902 78.7201 56.691 79.9772 56.5333 81.2194C56.3755 82.4616 55.7699 83.6036 54.8302 84.4311C53.8904 85.2587 52.681 85.7149 51.4288 85.7143V85.7143Z" fill="#878787"/>
<path d="M66.857 66.4286H50.1427C49.4607 66.4286 48.8067 66.1577 48.3244 65.6754C47.8422 65.1932 47.5713 64.5391 47.5713 63.8571C47.5713 63.1752 47.8422 62.5211 48.3244 62.0389C48.8067 61.5566 49.4607 61.2857 50.1427 61.2857H66.857V66.4286Z" fill="#CBCBCB"/>
<path d="M61.7144 66.4286H66.8572V130.714H61.7144V66.4286Z" fill="#985713"/>
<path d="M70.7141 135.857H57.8569C57.8569 134.671 58.1499 133.502 58.7097 132.456C59.2696 131.41 60.079 130.519 61.0662 129.86L61.7141 129.429H66.8569L67.5048 129.86C68.492 130.519 69.3014 131.41 69.8613 132.456C70.4211 133.502 70.7141 134.671 70.7141 135.857V135.857Z" fill="#70400E"/>
<path d="M45 111.429H47.5714V114H45V111.429Z" fill="#C0F5F9"/>
<path d="M45 116.571H47.5714V121.714H45V116.571Z" fill="#C0F5F9"/>
<path d="M23.1431 121.714H33.4288V126.857H23.1431V121.714Z" fill="#6B9777"/>
<path d="M51.4288 90.8571C51.0878 90.8571 50.7608 90.7217 50.5196 90.4806C50.2785 90.2394 50.1431 89.9124 50.1431 89.5714V84.4286C50.1431 84.0876 50.2785 83.7605 50.5196 83.5194C50.7608 83.2783 51.0878 83.1428 51.4288 83.1428C51.7698 83.1428 52.0968 83.2783 52.3379 83.5194C52.579 83.7605 52.7145 84.0876 52.7145 84.4286V89.5714C52.7145 89.9124 52.579 90.2394 52.3379 90.4806C52.0968 90.7217 51.7698 90.8571 51.4288 90.8571Z" fill="#CBCBCB"/>
<path d="M52.7145 107.571V108.695C51.871 108.911 50.9865 108.911 50.1431 108.695V107.571C50.1431 107.23 50.2785 106.903 50.5196 106.662C50.7608 106.421 51.0878 106.286 51.4288 106.286C51.7698 106.286 52.0968 106.421 52.3379 106.662C52.579 106.903 52.7145 107.23 52.7145 107.571Z" fill="#C3C3C3"/>
<path d="M61.7144 66.4286H66.8572V69H61.7144V66.4286Z" fill="#70400E"/>
<path d="M33.4287 123H34.7144V125.571H33.4287V123Z" fill="#C3C3C3"/>
<path d="M46.2856 89.5714H56.5714V102.429C56.5714 103.793 56.0295 105.101 55.065 106.065C54.1006 107.03 52.7925 107.571 51.4285 107.571C50.0645 107.571 48.7564 107.03 47.792 106.065C46.8275 105.101 46.2856 103.793 46.2856 102.429V89.5714Z" fill="#EBEBEB"/>
<path d="M51.4285 107.571C50.0645 107.571 48.7564 107.03 47.792 106.065C46.8275 105.101 46.2856 103.793 46.2856 102.429V94.7143H56.5714V102.429C56.5714 103.793 56.0295 105.101 55.065 106.065C54.1006 107.03 52.7925 107.571 51.4285 107.571Z" fill="#C0F5F9"/>
<path d="M53.9998 99.8571H52.7141V98.5714H50.1426V99.8571H48.8569V102.429H50.1426V103.714H52.7141V102.429H53.9998V99.8571Z" fill="#85BC94"/>
<path d="M46.2856 94.7143H56.5714V96H46.2856V94.7143Z" fill="#B8EAEE"/>
<path d="M16.7141 97.7678C17.6905 97.7678 18.482 96.9763 18.482 96C18.482 95.0236 17.6905 94.2321 16.7141 94.2321C15.7378 94.2321 14.9463 95.0236 14.9463 96C14.9463 96.9763 15.7378 97.7678 16.7141 97.7678Z" fill="black"/>
<path d="M27.4822 97.7678C28.4586 97.7678 29.2501 96.9763 29.2501 96C29.2501 95.0236 28.4586 94.2321 27.4822 94.2321C26.5059 94.2321 25.7144 95.0236 25.7144 96C25.7144 96.9763 26.5059 97.7678 27.4822 97.7678Z" fill="black"/>
<path d="M3.85717 88.8181V93.8143C3.85431 94.7103 4.10245 95.5892 4.57349 96.3515C5.04452 97.1137 5.71962 97.7288 6.52229 98.127L9.00003 99.366V102.429C9.00002 102.592 9.03122 102.754 9.09195 102.906L11.4725 108.857L9.19031 114.562L6.27319 117.48C5.91375 117.837 5.62877 118.263 5.43476 118.731C5.24074 119.199 5.14154 119.701 5.14288 120.208V124.728C5.14059 125.572 5.30579 126.408 5.62891 127.188C5.95203 127.969 6.42666 128.677 7.02533 129.272L8.13779 130.385C7.61009 130.736 7.17773 131.212 6.87945 131.772C6.58116 132.331 6.42625 132.956 6.4286 133.589V135.857C6.4286 136.198 6.56406 136.525 6.80517 136.766C7.04629 137.007 7.37332 137.143 7.71431 137.143H36C36.341 137.143 36.668 137.007 36.9092 136.766C37.1503 136.525 37.2857 136.198 37.2857 135.857V133.853C37.2863 133.084 37.0566 132.332 36.6263 131.694C36.1959 131.057 35.5845 130.563 34.8708 130.276L36 129.429C37.2549 128.482 38.1215 127.111 38.4376 125.571H41.4643C41.72 125.572 41.9651 125.673 42.1459 125.854C42.3266 126.035 42.4283 126.28 42.4286 126.536V132C42.4286 133.364 42.9704 134.672 43.9349 135.637C44.8994 136.601 46.2075 137.143 47.5714 137.143C48.9354 137.143 50.2435 136.601 51.208 135.637C52.1725 134.672 52.7143 133.364 52.7143 132V108.729C54.1654 108.43 55.4693 107.641 56.4061 106.493C57.3429 105.346 57.8554 103.91 57.8571 102.429V89.5714C57.8571 89.2304 57.7217 88.9034 57.4806 88.6623C57.2395 88.4212 56.9124 88.2857 56.5714 88.2857H52.7143V85.5515C53.8188 85.2668 54.7973 84.6231 55.4959 83.7216C56.1946 82.8201 56.5737 81.7119 56.5737 80.5713C56.5737 79.4308 56.1946 78.3226 55.4959 77.4211C54.7973 76.5195 53.8188 75.8758 52.7143 75.5912V67.7143H60.4286V128.741L60.3534 128.791C59.189 129.565 58.2343 130.616 57.5744 131.849C56.9145 133.082 56.5699 134.459 56.5714 135.857C56.5714 136.198 56.7069 136.525 56.948 136.766C57.1891 137.007 57.5162 137.143 57.8571 137.143H70.7143C71.0553 137.143 71.3823 137.007 71.6234 136.766C71.8645 136.525 72 136.198 72 135.857C72.0015 134.459 71.6569 133.082 70.997 131.849C70.3372 130.616 69.3825 129.565 68.2181 128.791L68.1429 128.74V61.2857C68.1429 60.9447 68.0074 60.6177 67.7663 60.3766C67.5252 60.1355 67.1981 60 66.8571 60H50.1429C49.1199 60 48.1388 60.4064 47.4155 61.1297C46.6921 61.8531 46.2857 62.8342 46.2857 63.8571C46.2857 64.8801 46.6921 65.8612 47.4155 66.5846C48.1388 67.3079 49.1199 67.7143 50.1429 67.7143V76.7143C50.1429 77.0553 50.2783 77.3823 50.5194 77.6234C50.7606 77.8645 51.0876 78 51.4286 78C51.8575 78 52.2796 78.1073 52.6565 78.3122C53.0334 78.517 53.353 78.8129 53.5863 79.1729C53.8196 79.5328 53.9591 79.9454 53.9922 80.3731C54.0253 80.8007 53.9509 81.2299 53.7757 81.6214C53.6006 82.013 53.3303 82.3545 52.9894 82.6149C52.6485 82.8753 52.2479 83.0462 51.8241 83.1122C51.4003 83.1782 50.9667 83.1372 50.5628 82.9927C50.1589 82.8483 49.7975 82.6052 49.5116 82.2854C49.399 82.1596 49.2627 82.0572 49.1105 81.9841C48.9583 81.911 48.7932 81.8685 48.6246 81.8592C48.4561 81.8498 48.2873 81.8738 48.128 81.9297C47.9686 81.9856 47.8219 82.0723 47.6961 82.1849C47.5703 82.2975 47.4679 82.4338 47.3947 82.586C47.3216 82.7382 47.2791 82.9033 47.2698 83.0718C47.2605 83.2404 47.2844 83.4092 47.3403 83.5685C47.3962 83.7279 47.4829 83.8746 47.5955 84.0004C48.2734 84.7565 49.1596 85.2954 50.1429 85.5494V88.2857H46.2857C45.9447 88.2857 45.6177 88.4212 45.3766 88.6623C45.1355 88.9034 45 89.2304 45 89.5714V102.429C45.0017 103.91 45.5142 105.346 46.451 106.493C47.3879 107.641 48.6918 108.43 50.1429 108.729V132C50.1429 132.682 49.8719 133.336 49.3897 133.818C48.9075 134.3 48.2534 134.571 47.5714 134.571C46.8895 134.571 46.2354 134.3 45.7532 133.818C45.2709 133.336 45 132.682 45 132V126.536C44.9989 125.598 44.6261 124.7 43.9632 124.037C43.3004 123.374 42.4017 123.001 41.4643 123H38.5714V120.208C38.5728 119.701 38.4736 119.199 38.2796 118.731C38.0856 118.263 37.8006 117.837 37.4411 117.48L34.5243 114.562L32.2422 108.857L34.6227 102.906C34.6833 102.754 34.7144 102.592 34.7143 102.429V99.366L37.1927 98.1267C37.9952 97.7284 38.6702 97.1134 39.1411 96.3512C39.612 95.589 39.86 94.7102 39.8572 93.8143V88.8181L41.6438 87.0321C42.3024 86.3771 42.8245 85.5979 43.1799 84.7396C43.5353 83.8814 43.717 82.9612 43.7143 82.0323V76.9746C43.7144 76.4339 43.6079 75.8984 43.401 75.3989C43.1941 74.8993 42.8908 74.4453 42.5084 74.063C42.1261 73.6806 41.6722 73.3773 41.1726 73.1704C40.673 72.9635 40.1375 72.8571 39.5968 72.8571C38.634 72.8586 37.7018 73.1959 36.9611 73.811L31.4234 78.4259C30.8429 78.9078 30.376 79.5118 30.0559 80.195C29.7358 80.8781 29.5703 81.6234 29.5714 82.3778V84.2357C29.5343 84.2298 29.4974 84.2227 29.4602 84.2175L29.3109 84.1947C24.3625 83.4891 19.3389 83.4898 14.3907 84.1967L14.2694 84.2151C14.2269 84.2212 14.185 84.229 14.1429 84.2359V82.3778C14.144 81.6236 13.9786 80.8784 13.6586 80.1954C13.3386 79.5124 12.8718 78.9084 12.2916 78.4265L6.75131 73.809C6.01084 73.195 5.07945 72.8584 4.11753 72.8571C3.57679 72.8571 3.04134 72.9635 2.54175 73.1704C2.04217 73.3773 1.58823 73.6806 1.20587 74.063C0.823517 74.4453 0.520228 74.8993 0.313326 75.3989C0.106425 75.8984 -3.41736e-05 76.4339 2.91554e-05 76.9746V82.0323C-0.00264729 82.9612 0.178973 83.8814 0.534375 84.7396C0.889777 85.5979 1.4119 86.3771 2.07051 87.0321L3.85717 88.8181ZM66.7917 130.93C68.0631 131.776 68.9577 133.081 69.2881 134.571H59.2833C59.6136 133.081 60.5083 131.776 61.7797 130.93L62.1035 130.714H66.4679L66.7917 130.93ZM63 128.143V67.7143H65.5714V128.143H63ZM50.1429 65.1429C49.8019 65.1429 49.4748 65.0074 49.2337 64.7663C48.9926 64.5252 48.8571 64.1981 48.8571 63.8571C48.8571 63.5161 48.9926 63.1891 49.2337 62.948C49.4748 62.7069 49.8019 62.5714 50.1429 62.5714H65.5714V65.1429H50.1429ZM47.5714 90.8571H55.2857V93.4286H47.5714V90.8571ZM47.5714 102.429V96H55.2857V102.429C55.2857 103.452 54.8793 104.433 54.156 105.156C53.4326 105.879 52.4516 106.286 51.4286 106.286C50.4056 106.286 49.4245 105.879 48.7012 105.156C47.9778 104.433 47.5714 103.452 47.5714 102.429ZM11.5715 134.571H9.00003V133.589C8.99912 133.351 9.06515 133.116 9.19061 132.913C9.31608 132.71 9.49597 132.546 9.7099 132.44L10.8608 131.864C10.9947 131.797 11.1159 131.707 11.2188 131.598L11.5715 132.304V134.571ZM30.8572 129.125L29.7072 131.425C29.6179 131.603 29.5714 131.8 29.5714 132V134.571H27V132C27 131.8 26.9535 131.603 26.8642 131.425L25.7143 129.125V128.143H30.8572V129.125ZM30.8572 125.571H25.7143V123H30.8572V125.571ZM34.7143 134.571H32.1429V132.304L32.2432 132.103L33.8342 132.633C34.0904 132.718 34.3133 132.882 34.4713 133.101C34.6292 133.32 34.7143 133.583 34.7143 133.853V134.571ZM34.4572 127.371L33.4286 128.143V125.571H35.7768C35.5234 126.288 35.0644 126.914 34.4572 127.371V127.371ZM32.5194 116.195L35.6228 119.298C35.7428 119.417 35.8379 119.559 35.9026 119.716C35.9674 119.872 36.0005 120.039 36 120.208V123H33.4286V121.714C33.4286 121.373 33.2931 121.046 33.052 120.805C32.8109 120.564 32.4839 120.429 32.1429 120.429H24.4286C24.0876 120.429 23.7606 120.564 23.5195 120.805C23.2783 121.046 23.1429 121.373 23.1429 121.714V129.429C23.1429 129.628 23.1894 129.825 23.2787 130.004L24.4286 132.304V134.571H19.2857V132.304L20.4356 130.004C20.525 129.825 20.5715 129.628 20.5714 129.429V123C20.5714 122.659 20.436 122.332 20.1949 122.091C19.9538 121.85 19.6267 121.714 19.2857 121.714C18.9447 121.714 18.6177 121.85 18.3766 122.091C18.1355 122.332 18 122.659 18 123V129.125L16.8501 131.425C16.7608 131.603 16.7143 131.8 16.7143 132V134.571H14.1429V132C14.1429 131.8 14.0964 131.603 14.0071 131.425L12.8572 129.125V123C12.8572 122.659 12.7217 122.332 12.4806 122.091C12.2395 121.85 11.9124 121.714 11.5715 121.714C11.2305 121.714 10.9034 121.85 10.6623 122.091C10.4212 122.332 10.2857 122.659 10.2857 123V128.896L8.84365 127.454C8.12304 126.729 7.71724 125.75 7.71431 124.728V120.208C7.71385 120.039 7.74695 119.872 7.8117 119.716C7.87645 119.559 7.97155 119.417 8.09151 119.298L11.1949 116.195C11.318 116.072 11.4148 115.925 11.4795 115.763L12.9319 112.132C13.485 112.764 14.1763 113.261 14.9522 113.583C15.7281 113.904 16.5677 114.043 17.4059 113.988C18.2441 113.933 19.0583 113.686 19.7854 113.265C20.5126 112.844 21.133 112.262 21.5986 111.563L21.8572 111.175L22.1156 111.563C22.5812 112.262 23.2016 112.844 23.9288 113.265C24.6559 113.686 25.4701 113.933 26.3084 113.988C27.1466 114.043 27.9862 113.904 28.7621 113.583C29.538 113.261 30.2293 112.764 30.7824 112.132L32.2348 115.763C32.2995 115.925 32.3963 116.072 32.5194 116.195V116.195ZM20.4819 108.603L19.4593 110.136C19.1139 110.655 18.6109 111.048 18.0246 111.259C17.4383 111.469 16.7999 111.485 16.2037 111.305C15.6075 111.124 15.0853 110.757 14.7141 110.256C14.343 109.756 14.1427 109.15 14.1429 108.527V106.616C14.1438 105.847 14.4498 105.109 14.9938 104.565C15.5378 104.021 16.2754 103.715 17.0447 103.714H18.2212C17.8852 104.663 17.9335 105.705 18.3559 106.619C18.7783 107.532 19.5412 108.244 20.4816 108.603H20.4819ZM20.5714 105C20.5714 104.746 20.6469 104.497 20.7881 104.286C20.9294 104.074 21.1302 103.909 21.3651 103.812C21.6001 103.715 21.8586 103.689 22.108 103.739C22.3574 103.789 22.5865 103.911 22.7663 104.091C22.9461 104.271 23.0686 104.5 23.1182 104.749C23.1678 104.999 23.1423 105.257 23.045 105.492C22.9477 105.727 22.7829 105.928 22.5715 106.069C22.36 106.21 22.1115 106.286 21.8572 106.286C21.5163 106.285 21.1895 106.15 20.9484 105.909C20.7074 105.668 20.5718 105.341 20.5714 105ZM25.4932 103.714H26.6696C27.4389 103.715 28.1765 104.021 28.7205 104.565C29.2645 105.109 29.5706 105.847 29.5714 106.616V108.527C29.5714 109.149 29.371 109.756 28.9999 110.256C28.6288 110.756 28.1066 111.123 27.5105 111.304C26.9145 111.484 26.2762 111.468 25.6899 111.258C25.1037 111.048 24.6007 110.655 24.2552 110.136L23.2327 108.603C24.1731 108.244 24.936 107.532 25.3584 106.619C25.7808 105.705 25.8291 104.663 25.4932 103.714V103.714ZM32.1429 82.3778C32.1422 82.0005 32.2249 81.6277 32.385 81.286C32.545 80.9442 32.7786 80.6421 33.0689 80.4011L38.6049 75.7873C38.8837 75.556 39.2345 75.4291 39.5968 75.4286C39.7998 75.4285 40.0009 75.4685 40.1885 75.5462C40.3761 75.6238 40.5466 75.7377 40.6901 75.8813C40.8337 76.0249 40.9476 76.1953 41.0253 76.3829C41.1029 76.5705 41.1429 76.7716 41.1429 76.9746V82.0323C41.1445 82.6233 41.0288 83.2088 40.8026 83.7548C40.5764 84.3009 40.2441 84.7966 39.825 85.2133L37.6618 87.3765C37.4209 87.6177 37.2856 87.9448 37.2857 88.2857V93.8143C37.2871 94.2324 37.1713 94.6426 36.9515 94.9984C36.7317 95.3542 36.4167 95.6413 36.0421 95.8272L34.7143 96.4911V90.2834C34.714 89.8244 34.6625 89.3669 34.5605 88.9194L38.3143 83.9143C38.4812 83.6917 38.5714 83.421 38.5714 83.1428V80.5714C38.5714 80.2304 38.436 79.9034 38.1949 79.6623C37.9537 79.4212 37.6267 79.2857 37.2857 79.2857C36.9447 79.2857 36.6177 79.4212 36.3766 79.6623C36.1355 79.9034 36 80.2304 36 80.5714V82.7142L33.2754 86.3464C33.1642 86.2149 33.0482 86.0865 32.9251 85.9632L32.9026 85.9407C32.6672 85.7069 32.4131 85.4926 32.1429 85.3V82.3778ZM12.6076 87.7822L12.6301 87.7597C13.1742 87.2162 13.8807 86.8648 14.6424 86.7586L14.7663 86.7396C19.4654 86.0689 24.236 86.0682 28.9353 86.7377L29.0872 86.7608C29.8432 86.8696 30.5438 87.22 31.0842 87.7597L31.1067 87.7822C31.4362 88.1099 31.6975 88.4997 31.8753 88.929C32.0532 89.3583 32.1441 89.8187 32.1429 90.2834V102.181L31.4401 103.938C30.9644 103.091 30.2718 102.385 29.4335 101.894C28.5951 101.403 27.6412 101.144 26.6696 101.143H17.0447C16.0731 101.144 15.1192 101.403 14.2808 101.894C13.4425 102.385 12.7499 103.091 12.2743 103.938L11.5715 102.181V90.2834C11.5702 89.8187 11.6611 89.3583 11.839 88.929C12.0168 88.4997 12.2781 88.1099 12.6076 87.7822V87.7822ZM2.57146 76.9746C2.57141 76.7716 2.61138 76.5705 2.68906 76.3829C2.76674 76.1953 2.88062 76.0249 3.0242 75.8813C3.16777 75.7377 3.33822 75.6238 3.52582 75.5462C3.71342 75.4685 3.91448 75.4285 4.11753 75.4286C4.47897 75.4292 4.82892 75.5557 5.10721 75.7863L10.6462 80.4025C10.9362 80.6434 11.1695 80.9454 11.3295 81.2868C11.4894 81.6283 11.572 82.0008 11.5715 82.3778V85.3001C11.3012 85.4928 11.0471 85.7073 10.8118 85.9414L10.7893 85.9639C10.6661 86.0871 10.5501 86.2155 10.4389 86.347L7.71431 82.7142V80.5714C7.71431 80.2304 7.57885 79.9034 7.33773 79.6623C7.09662 79.4212 6.76959 79.2857 6.4286 79.2857C6.08761 79.2857 5.76058 79.4212 5.51946 79.6623C5.27834 79.9034 5.14288 80.2304 5.14288 80.5714V83.1428C5.14288 83.421 5.23311 83.6917 5.40003 83.9143L9.15383 88.9194C9.05187 89.3669 9.00028 89.8244 9.00003 90.2834V96.4911L7.67285 95.8275C7.29813 95.6416 6.98296 95.3545 6.76305 94.9987C6.54315 94.6429 6.42728 94.2326 6.4286 93.8143V88.2857C6.4286 88.1169 6.39535 87.9497 6.33074 87.7937C6.26613 87.6377 6.17143 87.4959 6.05204 87.3765L3.88931 85.2133C3.47021 84.7966 3.13794 84.3009 2.91173 83.7548C2.68552 83.2088 2.56986 82.6233 2.57146 82.0323V76.9746Z" fill="black"/>
<path d="M52.7141 103.714V102.429H53.9998V99.8571H52.7141V98.5714H50.1426V99.8571H48.8569V102.429H50.1426V103.714H52.7141Z" fill="black"/>
<path d="M45 111.429H47.5714V114H45V111.429Z" fill="black"/>
<path d="M45 116.571H47.5714V121.714H45V116.571Z" fill="black"/>
</svg>
