<svg width="253" height="138" viewBox="0 0 253 138" fill="none" xmlns="http://www.w3.org/2000/svg">
<g opacity="0.05">
<path d="M195.034 80.9799C194.948 71.9944 190.353 63.7781 182.743 59.0021C175.132 54.226 165.736 53.6619 157.608 57.4924L138.02 66.7213C134.771 68.2522 132.156 70.7364 130.459 73.9028C128.761 77.0698 128.142 80.6224 128.667 84.178C129.194 87.7325 130.816 90.9541 133.358 93.4946C135.899 96.0352 139.123 97.6546 142.679 98.1786L142.918 98.2129C151.827 99.5929 159.823 104.65 164.887 112.116C166.194 114.041 167.854 115.642 169.783 116.853C170.832 117.511 171.961 118.054 173.156 118.472C176.549 119.657 180.155 119.716 183.586 118.645C187.016 117.573 189.947 115.471 192.062 112.565C194.176 109.659 195.276 106.224 195.242 102.631L195.034 80.9799Z" fill="#949494"/>
<path d="M150.388 52.9338C154.042 53.6507 157.768 52.6818 160.879 50.2051C163.841 47.8486 165.896 44.3802 166.667 40.4375C167.435 36.4964 166.837 32.5098 164.982 29.211C163.032 25.7463 159.947 23.4448 156.296 22.7331C148.955 21.2954 141.655 26.9005 140.021 35.2316C138.728 41.8673 141.416 48.2553 146.273 51.3037C147.513 52.0821 148.895 52.6426 150.388 52.9338Z" fill="#949494"/>
<path d="M177.184 52.8891C184.577 57.5289 194.893 54.4509 200.179 46.0278C205.467 37.6025 203.753 26.9735 196.36 22.3338C188.967 17.6945 178.652 20.7743 173.364 29.1996C168.078 37.6227 169.792 48.2499 177.184 52.8891Z" fill="#949494"/>
<path d="M197.985 71.1741L197.986 71.1746C198.886 72.2657 199.933 73.1742 201.088 73.8993C206.48 77.2829 214.197 76.6561 219.987 71.8834C223.32 69.1364 225.548 65.418 226.259 61.4137C227.005 57.2222 226.021 53.2229 223.489 50.1517C220.957 47.08 217.218 45.3519 212.961 45.284C208.895 45.2191 204.82 46.6972 201.488 49.4451C194.458 55.2411 192.887 64.9888 197.985 71.1741Z" fill="#949494"/>
<path d="M227.34 87.1113L227.339 87.1079C224.604 80.142 215.955 76.9892 208.055 80.0808C200.159 83.1778 195.952 91.3641 198.677 98.328C199.671 100.869 201.452 102.903 203.697 104.312C207.611 106.768 212.935 107.325 217.962 105.36C225.858 102.263 230.065 94.077 227.34 87.1113Z" fill="#949494"/>
</g>
<path d="M66.8486 132.391H10.1514C5.16792 132.391 1.12793 128.351 1.12793 123.367V81.2578C1.12793 76.2744 5.16792 72.2344 10.1514 72.2344H66.8486C71.8321 72.2344 75.8721 76.2744 75.8721 81.2578V123.367C75.8721 128.351 71.8321 132.391 66.8486 132.391Z" fill="#FF573D"/>
<path d="M66.8486 72.2344H62.3369C67.3204 72.2344 71.3604 76.2744 71.3604 81.2578V123.367C71.3604 128.351 67.3204 132.391 62.3369 132.391H66.8486C71.8321 132.391 75.8721 128.351 75.8721 123.367V81.2578C75.8721 76.2744 71.8321 72.2344 66.8486 72.2344Z" fill="#E64028"/>
<path d="M52.7871 109.633C52.7871 117.524 46.3908 123.921 38.5 123.921C30.6092 123.921 24.2129 117.524 24.2129 109.633C24.2129 101.743 30.6092 95.3463 38.5 95.3463C46.3908 95.3463 52.7871 101.743 52.7871 109.633Z" fill="#FFD659"/>
<path d="M38.5 95.3463C37.7322 95.3463 36.9791 95.408 36.2441 95.5243C43.0628 96.6058 48.2754 102.51 48.2754 109.633C48.2754 116.756 43.0628 122.661 36.2441 123.743C36.9791 123.859 37.7322 123.921 38.5 123.921C46.3908 123.921 52.7871 117.524 52.7871 109.633C52.7871 101.743 46.3908 95.3463 38.5 95.3463Z" fill="#FFBD54"/>
<path d="M28.7246 93.2891C28.7246 95.7811 26.7049 97.8008 24.2129 97.8008C21.7209 97.8008 19.7012 95.7811 19.7012 93.2891C19.7012 90.797 21.7209 88.7773 24.2129 88.7773C26.7049 88.7773 28.7246 90.797 28.7246 93.2891Z" fill="#FFD659"/>
<path d="M57.2988 93.2891C57.2988 95.7811 55.2791 97.8008 52.7871 97.8008C50.2951 97.8008 48.2754 95.7811 48.2754 93.2891C48.2754 90.797 50.2951 88.7773 52.7871 88.7773C55.2791 88.7773 57.2988 90.797 57.2988 93.2891Z" fill="#FFD659"/>
<path d="M43.0117 87.875C43.0117 90.367 40.992 92.3867 38.5 92.3867C36.008 92.3867 33.9883 90.367 33.9883 87.875C33.9883 85.383 36.008 83.3633 38.5 83.3633C40.992 83.3633 43.0117 85.383 43.0117 87.875Z" fill="#FFD659"/>
<path d="M24.2129 88.7773C23.391 88.7773 22.6209 88.9982 21.957 89.3824C23.3053 90.1626 24.2129 91.6195 24.2129 93.2891C24.2129 94.9586 23.3053 96.4155 21.957 97.1957C22.6209 97.5799 23.391 97.8008 24.2129 97.8008C26.7049 97.8008 28.7246 95.7811 28.7246 93.2891C28.7246 90.797 26.7049 88.7773 24.2129 88.7773Z" fill="#FFBD54"/>
<path d="M52.7871 88.7773C51.9652 88.7773 51.1951 88.9982 50.5312 89.3824C51.8795 90.1626 52.7871 91.6195 52.7871 93.2891C52.7871 94.9586 51.8795 96.4155 50.5312 97.1957C51.1951 97.5799 51.9652 97.8008 52.7871 97.8008C55.2791 97.8008 57.2988 95.7811 57.2988 93.2891C57.2988 90.797 55.2791 88.7773 52.7871 88.7773Z" fill="#FFBD54"/>
<path d="M38.5 83.3633C37.6781 83.3633 36.908 83.5842 36.2441 83.9684C37.5924 84.7485 38.5 86.2054 38.5 87.875C38.5 89.5446 37.5924 91.0015 36.2441 91.7816C36.908 92.1658 37.6781 92.3867 38.5 92.3867C40.992 92.3867 43.0117 90.367 43.0117 87.875C43.0117 85.383 40.992 83.3633 38.5 83.3633Z" fill="#FFBD54"/>
<path d="M46.0195 109.531C46.0195 110.154 45.7669 110.718 45.358 111.126C44.9503 111.535 44.3864 111.787 43.7637 111.787H40.7559V114.795C40.7559 116.04 39.7454 117.051 38.5 117.051C37.2546 117.051 36.2441 116.04 36.2441 114.795V111.787H33.2363C31.9909 111.787 30.9805 110.777 30.9805 109.531C30.9805 108.286 31.9909 107.275 33.2363 107.275H36.2441V104.268C36.2441 103.022 37.2546 102.012 38.5 102.012C39.1227 102.012 39.6867 102.264 40.0944 102.673C40.5033 103.081 40.7559 103.645 40.7559 104.268V107.275H43.7637C45.0091 107.275 46.0195 108.286 46.0195 109.531Z" fill="#89CEEA"/>
<path d="M56.6973 69.1843V77.4229C56.6973 78.6689 55.6874 79.6787 54.4414 79.6787C53.1954 79.6787 52.1855 78.6689 52.1855 77.4229V69.1843C52.1855 66.6746 50.1506 64.6396 47.6409 64.6396H29.3591C26.8494 64.6396 24.8145 66.6746 24.8145 69.1843V77.4229C24.8145 78.6689 23.8046 79.6787 22.5586 79.6787C21.3126 79.6787 20.3027 78.6689 20.3027 77.4229V69.1843C20.3027 64.1826 24.3574 60.1279 29.3591 60.1279H47.6409C52.6426 60.1279 56.6973 64.1826 56.6973 69.1843Z" fill="#E8E1D5"/>
<path d="M47.6411 60.1279H43.1294C48.0523 60.1279 52.0553 64.0575 52.1799 68.9505C52.184 69.028 52.1857 69.1061 52.1857 69.1843V77.4229C52.1857 78.6689 53.1956 79.6787 54.4416 79.6787C55.6876 79.6787 56.6974 78.6689 56.6974 77.4229V69.1843C56.6974 64.1826 52.6428 60.1279 47.6411 60.1279Z" fill="#D6CFC4"/>
<path d="M14.1367 130.36H23.1602V134.872H14.1367V130.36Z" fill="#E8E1D5"/>
<path d="M53.8398 130.36H62.8633V134.872H53.8398V130.36Z" fill="#E8E1D5"/>
<path d="M18.6484 130.36H23.1602V134.872H18.6484V130.36Z" fill="#D6CFC4"/>
<path d="M58.3516 130.36H62.8633V134.872H58.3516V130.36Z" fill="#D6CFC4"/>
<path d="M66.8486 71.1064H63.7656C63.1429 71.1064 62.6377 71.6117 62.6377 72.2344C62.6377 72.8571 63.1429 73.3623 63.7656 73.3623H66.8486C71.2023 73.3623 74.7441 76.9041 74.7441 81.2578V123.367C74.7441 127.721 71.2023 131.263 66.8486 131.263H63.9912V130.36C63.9912 129.738 63.486 129.232 62.8633 129.232H53.8398C53.2171 129.232 52.7119 129.738 52.7119 130.36V131.263H24.2881V130.36C24.2881 129.738 23.7829 129.232 23.1602 129.232H14.1367C13.514 129.232 13.0088 129.738 13.0088 130.36V131.263H10.1514C5.79768 131.263 2.25586 127.721 2.25586 123.367V87.8374C2.25586 87.2147 1.75064 86.7095 1.12793 86.7095C0.505219 86.7095 0 87.2147 0 87.8374V123.367C0 128.965 4.55402 133.519 10.1514 133.519H13.0088V134.872C13.0088 135.495 13.514 136 14.1367 136H23.1602C23.7829 136 24.2881 135.495 24.2881 134.872V133.519H52.7119V134.872C52.7119 135.495 53.2171 136 53.8398 136H62.8633C63.486 136 63.9912 135.495 63.9912 134.872V133.519H66.8486C72.446 133.519 77 128.965 77 123.367V81.2578C77 75.6605 72.446 71.1064 66.8486 71.1064ZM22.0322 133.744H15.2646V131.488H22.0322V133.744ZM61.7354 133.744H54.9678V131.488H61.7354V133.744Z" fill="black"/>
<path d="M1.12793 84.1528C1.75064 84.1528 2.25586 83.6476 2.25586 83.0249V81.2578C2.25586 76.9041 5.79768 73.3623 10.1514 73.3623H19.1748V77.4229C19.1748 79.2886 20.6928 80.8066 22.5586 80.8066C24.4244 80.8066 25.9424 79.2886 25.9424 77.4229V73.3623H51.0576V77.4229C51.0576 79.2886 52.5756 80.8066 54.4414 80.8066C56.3072 80.8066 57.8252 79.2886 57.8252 77.4229V73.3623H58.9531C59.5758 73.3623 60.0811 72.8571 60.0811 72.2344C60.0811 71.6117 59.5758 71.1064 58.9531 71.1064H57.8252V69.1843C57.8252 63.5687 53.2565 59 47.6409 59H29.3591C23.7435 59 19.1748 63.5687 19.1748 69.1843V71.1064H10.1514C4.55402 71.1064 0 75.6605 0 81.2578V83.0249C0 83.6476 0.505219 84.1528 1.12793 84.1528ZM25.9424 71.1064V69.1843C25.9424 67.3003 27.4751 65.7676 29.3591 65.7676H47.6409C49.5249 65.7676 51.0576 67.3003 51.0576 69.1843V71.1064H25.9424ZM21.4307 69.1843C21.4307 64.8124 24.9872 61.2559 29.3591 61.2559H47.6409C52.0128 61.2559 55.5693 64.8124 55.5693 69.1843V77.4229C55.5693 78.045 55.0635 78.5508 54.4414 78.5508C53.8193 78.5508 53.3135 78.045 53.3135 77.4229V69.1843C53.3135 66.0566 50.7686 63.5117 47.6409 63.5117H29.3591C26.2314 63.5117 23.6865 66.0566 23.6865 69.1843V77.4229C23.6865 78.045 23.1807 78.5508 22.5586 78.5508C21.9365 78.5508 21.4307 78.045 21.4307 77.4229V69.1843Z" fill="black"/>
<path d="M28.6852 120.077C28.2958 120.563 28.3733 121.272 28.8591 121.662C31.5803 123.846 35.004 125.048 38.5 125.048C47 125.048 53.915 118.133 53.915 109.633C53.915 101.133 47 94.2184 38.5 94.2184C30 94.2184 23.085 101.133 23.085 109.633C23.085 112.539 23.898 115.369 25.436 117.819C25.7673 118.347 26.4635 118.506 26.991 118.175C27.5185 117.843 27.6772 117.147 27.3464 116.62C26.034 114.53 25.3408 112.114 25.3408 109.633C25.3408 102.377 31.2442 96.4742 38.5 96.4742C45.7558 96.4742 51.6592 102.377 51.6592 109.633C51.6592 116.889 45.7558 122.793 38.5 122.793C35.4722 122.793 32.6271 121.793 30.2708 119.903C29.785 119.513 29.0753 119.591 28.6852 120.077Z" fill="black"/>
<path d="M29.8525 93.2891C29.8525 90.179 27.3229 87.6494 24.2129 87.6494C21.1029 87.6494 18.5732 90.179 18.5732 93.2891C18.5732 96.3991 21.1029 98.9287 24.2129 98.9287C27.3229 98.9287 29.8525 96.3991 29.8525 93.2891ZM24.2129 96.6729C22.3471 96.6729 20.8291 95.1548 20.8291 93.2891C20.8291 91.4233 22.3471 89.9053 24.2129 89.9053C26.0787 89.9053 27.5967 91.4233 27.5967 93.2891C27.5967 95.1548 26.0787 96.6729 24.2129 96.6729Z" fill="black"/>
<path d="M58.4268 93.2891C58.4268 90.179 55.8971 87.6494 52.7871 87.6494C49.6771 87.6494 47.1475 90.179 47.1475 93.2891C47.1475 96.3991 49.6771 98.9287 52.7871 98.9287C55.8971 98.9287 58.4268 96.3991 58.4268 93.2891ZM52.7871 96.6729C50.9213 96.6729 49.4033 95.1548 49.4033 93.2891C49.4033 91.4233 50.9213 89.9053 52.7871 89.9053C54.6529 89.9053 56.1709 91.4233 56.1709 93.2891C56.1709 95.1548 54.6529 96.6729 52.7871 96.6729Z" fill="black"/>
<path d="M44.1396 87.875C44.1396 84.765 41.61 82.2354 38.5 82.2354C35.39 82.2354 32.8604 84.765 32.8604 87.875C32.8604 90.985 35.39 93.5146 38.5 93.5146C41.61 93.5146 44.1396 90.985 44.1396 87.875ZM35.1162 87.875C35.1162 86.0092 36.6342 84.4912 38.5 84.4912C40.3658 84.4912 41.8838 86.0092 41.8838 87.875C41.8838 89.7408 40.3658 91.2588 38.5 91.2588C36.6342 91.2588 35.1162 89.7408 35.1162 87.875Z" fill="black"/>
<path d="M40.8933 101.877C40.2548 101.237 39.4047 100.884 38.5 100.884C36.6342 100.884 35.1162 102.402 35.1162 104.268V106.147H33.2363C31.3705 106.147 29.8525 107.665 29.8525 109.531C29.8525 111.397 31.3705 112.915 33.2363 112.915H35.1162V114.795C35.1162 116.661 36.6342 118.179 38.5 118.179C40.3658 118.179 41.8838 116.661 41.8838 114.795V112.915H43.7637C44.6684 112.915 45.5184 112.562 46.1541 111.925C46.7944 111.286 47.1475 110.436 47.1475 109.531C47.1475 107.665 45.6295 106.147 43.7637 106.147H41.8838V104.268C41.8838 103.363 41.5307 102.513 40.8933 101.877ZM43.7637 108.403C44.3858 108.403 44.8916 108.909 44.8916 109.531C44.8916 109.832 44.7747 110.115 44.5585 110.329C44.347 110.542 44.0645 110.659 43.7637 110.659H40.7559C40.1331 110.659 39.6279 111.164 39.6279 111.787V114.795C39.6279 115.417 39.1221 115.923 38.5 115.923C37.8779 115.923 37.3721 115.417 37.3721 114.795V111.787C37.3721 111.164 36.8669 110.659 36.2441 110.659H33.2363C32.6142 110.659 32.1084 110.153 32.1084 109.531C32.1084 108.909 32.6142 108.403 33.2363 108.403H36.2441C36.8669 108.403 37.3721 107.898 37.3721 107.275V104.268C37.3721 103.645 37.8779 103.14 38.5 103.14C38.8008 103.14 39.0834 103.257 39.2978 103.473C39.511 103.684 39.6279 103.967 39.6279 104.268V107.275C39.6279 107.898 40.1331 108.403 40.7559 108.403H43.7637Z" fill="black"/>
<path d="M8.19629 78.0996C8.19629 78.7223 7.69107 79.2275 7.06836 79.2275C6.44565 79.2275 5.94043 78.7223 5.94043 78.0996C5.94043 77.4769 6.44565 76.9717 7.06836 76.9717C7.69107 76.9717 8.19629 77.4769 8.19629 78.0996Z" fill="black"/>
<path d="M70.458 78.0996C70.458 78.7223 69.9528 79.2275 69.3301 79.2275C68.7074 79.2275 68.2021 78.7223 68.2021 78.0996C68.2021 77.4769 68.7074 76.9717 69.3301 76.9717C69.9528 76.9717 70.458 77.4769 70.458 78.0996Z" fill="black"/>
<path d="M8.19629 126.676C8.19629 127.298 7.69107 127.804 7.06836 127.804C6.44565 127.804 5.94043 127.298 5.94043 126.676C5.94043 126.053 6.44565 125.548 7.06836 125.548C7.69107 125.548 8.19629 126.053 8.19629 126.676Z" fill="black"/>
<path d="M70.458 126.676C70.458 127.298 69.9528 127.804 69.3301 127.804C68.7074 127.804 68.2021 127.298 68.2021 126.676C68.2021 126.053 68.7074 125.548 69.3301 125.548C69.9528 125.548 70.458 126.053 70.458 126.676Z" fill="black"/>
</svg>
