<svg width="257" height="146" viewBox="0 0 257 146" fill="none" xmlns="http://www.w3.org/2000/svg">
<g filter="url(#filter0_d_13471_685)">
<g opacity="0.05">
<path d="M161.821 57.9447L161.821 57.9447L142.233 67.1736L142.233 67.1736C139.081 68.6587 136.546 71.0672 134.899 74.139L134.459 73.9028L134.899 74.139C133.253 77.2113 132.653 80.6552 133.161 84.1047L161.821 57.9447ZM161.821 57.9447C169.795 54.1869 179.011 54.7401 186.477 59.4256C193.943 64.1111 198.449 72.1696 198.534 80.9847L198.742 102.636C198.742 102.636 198.742 102.636 198.742 102.636C198.775 106.122 197.709 109.451 195.657 112.271C193.605 115.09 190.764 117.128 187.437 118.168C184.109 119.207 180.612 119.149 177.321 118C176.161 117.594 175.065 117.067 174.049 116.429C172.179 115.256 170.569 113.704 169.301 111.835C164.159 104.254 156.04 99.1201 146.994 97.7188L146.994 97.7188M161.821 57.9447L146.994 97.7188M146.994 97.7188L146.989 97.718M146.994 97.7188L146.989 97.718M146.989 97.718L146.752 97.684C146.752 97.6839 146.751 97.6839 146.751 97.6838C143.301 97.1752 140.177 95.6053 137.711 93.141C135.245 90.6763 133.673 87.5531 133.161 84.1048L146.989 97.718Z" fill="#78C0DE" stroke="black"/>
<path d="M154.484 52.4432L154.484 52.4431C153.053 52.164 151.729 51.6269 150.539 50.8802C145.877 47.9544 143.253 41.7847 144.511 35.3276C146.104 27.2074 153.186 21.8503 160.2 23.2238L160.2 23.2238C163.696 23.9054 166.663 26.1092 168.546 29.4561C170.339 32.6448 170.923 36.5094 170.176 40.3416C169.427 44.1754 167.43 47.5362 164.568 49.8139L164.568 49.8139C161.563 52.2064 157.984 53.1297 154.484 52.4432ZM168.982 29.211C167.032 25.7464 163.947 23.4448 160.296 22.7331L168.982 29.211Z" fill="#78C0DE" stroke="black"/>
<path d="M203.756 45.762C198.583 54.0048 188.559 56.9271 181.45 52.4656C174.342 48.0047 172.615 37.7083 177.788 29.4654C182.962 21.2203 192.986 18.2964 200.094 22.7573C207.203 27.2187 208.93 37.5169 203.756 45.762Z" fill="#78C0DE" stroke="black"/>
<path d="M202.371 70.8563L202.324 70.7989C197.495 64.8682 198.963 55.4725 205.806 49.8308L205.806 49.8308C209.053 47.1534 213.013 45.721 216.953 45.7839L216.953 45.7839C221.075 45.8497 224.671 47.5198 227.103 50.4697C229.535 53.4192 230.489 57.2675 229.767 61.3262L229.767 61.3263C229.078 65.2058 226.917 68.821 223.669 71.4976L223.669 71.4976C218.023 76.1518 210.54 76.7302 205.354 73.4757C204.243 72.7786 203.237 71.9054 202.371 70.8563Z" fill="#78C0DE" stroke="black"/>
<path d="M203.143 98.1459L203.143 98.1458C200.539 91.4923 204.541 83.565 212.238 80.5464C219.923 77.5385 228.232 80.6239 230.86 87.2562L230.861 87.259L230.874 87.2935C233.478 93.9489 229.475 101.876 221.779 104.895C216.892 106.805 211.734 106.255 207.963 103.888C205.801 102.532 204.095 100.579 203.143 98.1459Z" fill="#78C0DE" stroke="black"/>
</g>
<path d="M36.5649 79.799L36.565 79.799L42.1036 75.1833C42.1037 75.1833 42.1037 75.1833 42.1037 75.1833C42.5227 74.8341 43.0509 74.6429 43.5964 74.6429H43.5964C43.9027 74.6428 44.2059 74.7031 44.4888 74.8203C44.7717 74.9375 45.0288 75.1092 45.2453 75.3258C45.4619 75.5423 45.6337 75.7994 45.7508 76.0823C45.868 76.3652 45.9284 76.6684 45.9284 76.9746V82.032H46.4284L45.9284 82.032C45.9284 82.7261 45.7916 83.4135 45.526 84.0548C45.2604 84.6961 44.8711 85.2788 44.3802 85.7696L42.2177 87.9321L42.0712 88.0786V88.2857V93.8143C42.0712 94.3781 41.9143 94.9307 41.6179 95.4103C41.3215 95.8899 40.8974 96.2775 40.3932 96.5296L40.3931 96.5296L37.3103 98.0714H35.3569V85.7143V82.378C35.3569 81.8859 35.4652 81.3998 35.6739 80.9541C35.8827 80.5084 36.1869 80.1141 36.5649 79.799Z" fill="#E08122" stroke="black"/>
<path d="M15.149 79.799L15.1491 79.799C15.5271 80.1141 15.8313 80.5084 16.0401 80.9541C16.2488 81.3998 16.3571 81.8859 16.3571 82.378C16.3571 82.378 16.3571 82.378 16.3571 82.378L16.3571 85.7143V98.0714H14.4037L11.3209 96.5296L11.3208 96.5296C10.8166 96.2775 10.3925 95.8899 10.0961 95.4103C9.79974 94.9307 9.64277 94.3781 9.64279 93.8143V88.2857V88.0786L9.49634 87.9321L7.33377 85.7696C6.84295 85.2788 6.45361 84.6961 6.18798 84.0548C5.92235 83.4135 5.78564 82.7261 5.78564 82.032V76.9746C5.78564 76.6684 5.84596 76.3652 5.96315 76.0823C6.08035 75.7994 6.25212 75.5423 6.46866 75.3258C6.6852 75.1092 6.94226 74.9375 7.22519 74.8203C7.50811 74.7031 7.81134 74.6428 8.11756 74.6429C8.663 74.6429 9.19117 74.8341 9.61019 75.1833L9.93029 74.7992L9.61019 75.1833L15.149 79.799Z" fill="#E08122" stroke="black"/>
<path d="M40.3998 83.0142L40.4998 82.8809V82.7142V80.5714C40.4998 80.363 40.5826 80.1632 40.7299 80.0158C40.8773 79.8685 41.0771 79.7857 41.2855 79.7857C41.4939 79.7857 41.6937 79.8685 41.8411 80.0158C41.9884 80.1632 42.0712 80.363 42.0712 80.5714V83.1428C42.0712 83.3128 42.0161 83.4783 41.9141 83.6143C41.9141 83.6143 41.9141 83.6143 41.9141 83.6143L36.7712 90.4713L36.7709 90.4717C36.6978 90.5694 36.603 90.6486 36.4939 90.7031C36.3847 90.7576 36.2644 90.7859 36.1425 90.7858L36.1417 91.2857L36.1421 90.7858C35.9962 90.7856 35.8532 90.7449 35.7292 90.6682C35.6052 90.5914 35.5049 90.4817 35.4398 90.3512C35.3746 90.2207 35.347 90.0746 35.3601 89.9293C35.3732 89.7841 35.4266 89.6453 35.5141 89.5286L35.15 89.2555L35.5141 89.5286L40.3998 83.0142Z" fill="#BF6E1D" stroke="black"/>
<path d="M14.9433 90.4718L14.9431 90.4715L9.80021 83.6143L9.43808 83.8859L9.80021 83.6143C9.69821 83.4783 9.64307 83.3129 9.64307 83.1428V80.5714C9.64307 80.363 9.72585 80.1632 9.8732 80.0158C10.0205 79.8685 10.2204 79.7857 10.4288 79.7857C10.6372 79.7857 10.837 79.8685 10.9844 80.0158C11.1317 80.1632 11.2145 80.363 11.2145 80.5714V82.7142V82.8809L11.3145 83.0142L16.2002 89.5286L16.5777 89.2455L16.2002 89.5286C16.2877 89.6453 16.341 89.7841 16.3542 89.9293C16.3673 90.0746 16.3397 90.2207 16.2745 90.3512C16.2093 90.4817 16.1091 90.5914 15.9851 90.6682C15.861 90.7449 15.7181 90.7856 15.5722 90.7858L15.5718 90.7858C15.4499 90.7859 15.3295 90.7576 15.2204 90.7031C15.1113 90.6486 15.0164 90.5694 14.9433 90.4718Z" fill="#BF6E1D" stroke="black"/>
<path d="M35.0789 130.887L35.843 130.314L37.0773 129.389L38.9287 128L38.9287 128C39.5054 127.568 39.9735 127.007 40.2958 126.362C40.6182 125.717 40.7859 125.007 40.7858 124.286V124.286V120.208C40.7858 119.936 40.7322 119.667 40.628 119.415C40.5238 119.164 40.3711 118.935 40.1786 118.743L40.1785 118.743L37.0751 115.639L37.0026 115.567L36.9645 115.471L34.5188 109.357H17.1958L14.7501 115.471L14.712 115.567L14.6394 115.639L11.536 118.743L11.536 118.743C11.3435 118.935 11.1907 119.164 11.0866 119.415C10.9824 119.667 10.9287 119.936 10.9287 120.208L35.0789 130.887ZM35.0789 130.887L35.9852 131.189L36.6663 131.415M35.0789 130.887L36.6663 131.415M36.6663 131.415L36.6666 131.415L38.0835 131.888L36.6663 131.415ZM39.5001 133.853C39.4999 133.418 39.363 132.995 39.1088 132.642C38.8546 132.289 38.4961 132.025 38.0838 131.888L39.5001 133.853ZM39.5001 133.853V135.357H12.2144V133.589V133.589C12.2144 133.205 12.3214 132.828 12.5236 132.501C12.7257 132.173 13.0149 131.909 13.3587 131.737C13.3588 131.737 13.3588 131.737 13.3589 131.737L14.5095 131.161L15.1299 130.851L14.6394 130.361L12.2882 128.009C11.4179 127.139 10.9289 125.959 10.9287 124.728C10.9287 124.728 10.9287 124.728 10.9287 124.728V120.208L39.5001 133.853Z" fill="#FD9226" stroke="black"/>
<path d="M16.0514 87.2271L16.0514 87.2271L16.0742 87.2043C16.0742 87.2042 16.0742 87.2042 16.0742 87.2042C16.7354 86.5431 17.5931 86.1142 18.5187 85.982L18.5188 85.982L18.6547 85.9626C18.6547 85.9626 18.6547 85.9626 18.6547 85.9625C23.432 85.2801 28.2821 85.2801 33.0594 85.9625C33.0594 85.9626 33.0595 85.9626 33.0595 85.9626L33.1954 85.982L33.1954 85.982C34.121 86.1142 34.9788 86.5431 35.6399 87.2043L35.6627 87.2271L36.0163 86.8735L35.6627 87.2271C36.4732 88.0375 36.9285 89.1366 36.9285 90.2828L36.9285 102.332L34.5185 108.357H17.1956L14.7856 102.332V90.2827C14.7857 89.1366 15.241 88.0375 16.0514 87.2271Z" fill="#FD9226" stroke="black"/>
<path d="M30.6695 112.214H30.6695C30.0625 112.214 29.4648 112.064 28.9296 111.778C28.3944 111.492 27.9382 111.078 27.6014 110.573L26.273 108.58L25.8569 107.956L25.4409 108.58L24.1126 110.573C24.1126 110.573 24.1126 110.573 24.1126 110.573C23.7758 111.078 23.3196 111.492 22.7844 111.778C22.2492 112.064 21.6516 112.214 21.0445 112.214H21.0445C20.5602 112.214 20.0807 112.119 19.6333 111.934C19.1859 111.748 18.7794 111.477 18.437 111.134C18.0946 110.792 17.823 110.385 17.6376 109.938C17.4523 109.491 17.3569 109.011 17.3569 108.527V106.616C17.3569 105.638 17.7454 104.7 18.437 104.009C19.1285 103.317 20.0664 102.929 21.0443 102.929H30.6695C31.6475 102.929 32.5854 103.317 33.2769 104.009C33.9684 104.7 34.3569 105.638 34.3569 106.616V108.527C34.3569 109.505 33.9684 110.443 33.2769 111.134C32.5854 111.826 31.6475 112.214 30.6695 112.214Z" fill="#985713" stroke="black"/>
<path d="M17.6428 132L17.6428 135.357H16.0714V132.304V132.186L16.0185 132.08L14.8687 129.782C14.8685 129.782 14.8684 129.781 14.8683 129.781C14.8141 129.671 14.7858 129.551 14.7856 129.428V123C14.7856 122.792 14.8684 122.592 15.0158 122.444C15.1631 122.297 15.363 122.214 15.5714 122.214C15.7797 122.214 15.9796 122.297 16.1269 122.444C16.2743 122.592 16.3571 122.792 16.3571 123V129.125V129.243L16.4099 129.349L17.5598 131.647C17.5599 131.647 17.56 131.647 17.5601 131.647C17.6144 131.757 17.6426 131.878 17.6428 132C17.6428 132 17.6428 132 17.6428 132Z" fill="#E08122" stroke="black"/>
<path d="M22.8386 132.08L22.7858 132.186V132.304V135.357H21.2144V132C21.2145 131.878 21.2428 131.757 21.297 131.647C21.2971 131.647 21.2973 131.647 21.2974 131.647L22.4472 129.349L22.5001 129.243V129.125V123C22.5001 122.792 22.5828 122.592 22.7302 122.444C22.8775 122.297 23.0774 122.214 23.2858 122.214C23.4942 122.214 23.694 122.297 23.8414 122.444C23.9887 122.592 24.0715 122.792 24.0715 123L24.0715 129.428C24.0715 129.428 24.0715 129.428 24.0715 129.428C24.0713 129.551 24.0431 129.671 23.9888 129.781C23.9887 129.781 23.9886 129.782 23.9885 129.782L22.8386 132.08Z" fill="#E08122" stroke="black"/>
<path d="M36.3771 130.717L36.3769 130.717L35.6955 132.08L35.6427 132.186V132.304V135.357H34.0713V132C34.0714 131.878 34.0997 131.757 34.1539 131.647C34.1541 131.647 34.1542 131.647 34.1543 131.647L35.3042 129.349L35.357 129.243V129.125V123C35.357 122.792 35.4398 122.592 35.5871 122.444C35.7345 122.297 35.9343 122.214 36.1427 122.214C36.3511 122.214 36.551 122.297 36.6983 122.444C36.8456 122.592 36.9284 122.792 36.9284 123V129.428C36.9281 129.551 36.8998 129.671 36.8457 129.781C36.8455 129.782 36.8453 129.782 36.8451 129.783L36.3771 130.717Z" fill="#E08122" stroke="black"/>
<path d="M30.4997 132L30.4997 135.357H28.9283V132.304V132.186L28.8754 132.08L27.7256 129.782C27.7255 129.782 27.7254 129.781 27.7252 129.781C27.671 129.671 27.6427 129.551 27.6426 129.428V123C27.6426 122.792 27.7254 122.592 27.8727 122.444C28.0201 122.297 28.2199 122.214 28.4283 122.214C28.6367 122.214 28.8365 122.297 28.9839 122.444C29.1312 122.592 29.214 122.792 29.214 123V129.125V129.243L29.2669 129.349L30.4167 131.647C30.4168 131.647 30.4169 131.647 30.417 131.647C30.4713 131.757 30.4996 131.878 30.4997 132C30.4997 132 30.4997 132 30.4997 132Z" fill="#E08122" stroke="black"/>
<path d="M27.9285 105C27.9285 106.144 27.0011 107.071 25.8571 107.071C24.7131 107.071 23.7856 106.144 23.7856 105C23.7856 103.856 24.7131 102.929 25.8571 102.929C27.0011 102.929 27.9285 103.856 27.9285 105Z" fill="#70400E" stroke="black"/>
<path d="M21.982 96C21.982 96.7002 21.4144 97.2678 20.7141 97.2678C20.0139 97.2678 19.4463 96.7002 19.4463 96C19.4463 95.2998 20.0139 94.7321 20.7141 94.7321C21.4144 94.7321 21.982 95.2998 21.982 96Z" fill="#985713" stroke="black"/>
<path d="M32.7501 96C32.7501 96.7002 32.1824 97.2678 31.4822 97.2678C30.782 97.2678 30.2144 96.7002 30.2144 96C30.2144 95.2998 30.782 94.7321 31.4822 94.7321C32.1824 94.7321 32.7501 95.2998 32.7501 96Z" fill="#985713" stroke="black"/>
<path d="M56.2141 107.571V132C56.2141 133.231 55.7249 134.412 54.8542 135.283C53.9835 136.154 52.8026 136.643 51.5712 136.643C50.3399 136.643 49.1589 136.154 48.2882 135.283C47.4175 134.412 46.9284 133.231 46.9284 132V126.536C46.9284 126.147 46.7741 125.775 46.4995 125.5C46.2249 125.226 45.8524 125.071 45.4641 125.071H36.1426C35.9343 125.071 35.7344 124.989 35.5871 124.841C35.4397 124.694 35.3569 124.494 35.3569 124.286C35.3569 124.077 35.4397 123.877 35.5871 123.73C35.7344 123.583 35.9343 123.5 36.1426 123.5H45.4635C46.2685 123.501 47.0402 123.821 47.6094 124.39C48.1786 124.96 48.4988 125.731 48.4998 126.536V132C48.4998 132.815 48.8234 133.596 49.3994 134.172C49.9754 134.748 50.7566 135.071 51.5712 135.071C52.3858 135.071 53.167 134.748 53.743 134.172C54.319 133.596 54.6426 132.815 54.6426 132V107.571C54.6426 107.363 54.7254 107.163 54.8728 107.016C55.0201 106.868 55.22 106.786 55.4284 106.786C55.6367 106.786 55.8366 106.868 55.9839 107.016C56.1313 107.163 56.2141 107.363 56.2141 107.571Z" fill="#DBDBDB" stroke="black"/>
<path d="M55.4288 85.7143C54.7054 85.7138 53.9901 85.561 53.3297 85.2657C52.6693 84.9704 52.0785 84.5393 51.5958 84.0004C51.4832 83.8746 51.3964 83.7278 51.3406 83.5685C51.2847 83.4092 51.2607 83.2404 51.27 83.0718C51.2889 82.7314 51.4422 82.4123 51.6963 82.1849C51.9504 81.9575 52.2844 81.8403 52.6249 81.8592C52.7935 81.8685 52.9586 81.9109 53.1107 81.9841C53.2629 82.0572 53.3992 82.1596 53.5118 82.2854C53.7977 82.6052 54.1591 82.8483 54.563 82.9927C54.9669 83.1371 55.4005 83.1782 55.8243 83.1122C56.2482 83.0462 56.6488 82.8752 56.9896 82.6149C57.3305 82.3545 57.6008 82.013 57.776 81.6214C57.9511 81.2299 58.0255 80.8007 57.9924 80.3731C57.9594 79.9454 57.8198 79.5328 57.5865 79.1729C57.3532 78.8129 57.0336 78.517 56.6567 78.3122C56.2799 78.1073 55.8577 78 55.4288 78C55.0878 78 54.7608 77.8645 54.5197 77.6234C54.2786 77.3823 54.1431 77.0553 54.1431 76.7143V65.1429C54.1431 64.8019 54.2786 64.4748 54.5197 64.2337C54.7608 63.9926 55.0878 63.8571 55.4288 63.8571C55.7698 63.8571 56.0968 63.9926 56.3379 64.2337C56.5791 64.4748 56.7145 64.8019 56.7145 65.1429V75.5912C57.9271 75.9036 58.9841 76.6477 59.6871 77.6839C60.3902 78.7201 60.691 79.9772 60.5333 81.2194C60.3755 82.4616 59.7699 83.6036 58.8302 84.4311C57.8904 85.2587 56.681 85.7149 55.4288 85.7143ZM55.4288 85.7143L55.4291 85.2143C54.7759 85.2138 54.1301 85.0758 53.5338 84.8092C52.9376 84.5426 52.4042 84.1534 51.9683 83.667C51.8995 83.5901 51.8465 83.5004 51.8124 83.403C51.7782 83.3056 51.7636 83.2025 51.7693 83.0995C51.7808 82.8914 51.8745 82.6964 52.0298 82.5575C52.185 82.4185 52.3892 82.3469 52.5972 82.3584C52.7003 82.3641 52.8012 82.39 52.8941 82.4347C52.9871 82.4794 53.0703 82.5419 53.1391 82.6187M55.4288 85.7143L55.4291 85.2143C56.5595 85.2148 57.6513 84.8029 58.4997 84.0559C59.3481 83.3088 59.8948 82.2778 60.0372 81.1564C60.1797 80.035 59.9081 78.9001 59.2734 77.9646C58.6387 77.0292 57.6845 76.3574 56.5898 76.0754L56.2145 75.9787V75.5912V65.1429C56.2145 64.9345 56.1317 64.7346 55.9844 64.5873C55.837 64.4399 55.6372 64.3571 55.4288 64.3571C55.2204 64.3571 55.0206 64.4399 54.8732 64.5873C54.7259 64.7346 54.6431 64.9345 54.6431 65.1429V76.7143C54.6431 76.9227 54.7259 77.1225 54.8732 77.2699C55.0206 77.4172 55.2204 77.5 55.4288 77.5H55.4288C55.9412 77.5 56.4454 77.6282 56.8955 77.8729C57.3457 78.1176 57.7274 78.471 58.0061 78.9009C58.2848 79.3309 58.4514 79.8237 58.491 80.3345C58.5305 80.8453 58.4416 81.3579 58.2324 81.8256C58.0232 82.2933 57.7003 82.7012 57.2931 83.0122C56.886 83.3232 56.4075 83.5274 55.9013 83.6063C55.395 83.6851 54.8771 83.636 54.3947 83.4636C53.9122 83.2911 53.4806 83.0006 53.1391 82.6187M53.1391 82.6187L53.5107 82.2864L53.1392 82.6189C53.1392 82.6188 53.1391 82.6188 53.1391 82.6187Z" fill="#878787" stroke="black"/>
<path d="M70.357 65.9286H54.1427C53.5933 65.9286 53.0665 65.7103 52.678 65.3219C52.2895 64.9334 52.0713 64.4065 52.0713 63.8571C52.0713 63.3078 52.2895 62.7809 52.678 62.3924C53.0665 62.004 53.5933 61.7857 54.1427 61.7857H70.357V65.9286Z" fill="#CBCBCB" stroke="black"/>
<path d="M66.2144 66.9286H70.3572V130.214H66.2144V66.9286Z" fill="#985713" stroke="black"/>
<path d="M73.4204 132.692C73.8626 133.518 74.1258 134.426 74.1954 135.357H62.3756C62.4452 134.426 62.7084 133.518 63.1506 132.692C63.6716 131.719 64.4249 130.889 65.3436 130.276C65.3436 130.276 65.3436 130.276 65.3436 130.276L65.8654 129.929H70.7056L71.2274 130.276C71.2274 130.276 71.2274 130.276 71.2274 130.276C72.1461 130.889 72.8994 131.719 73.4204 132.692Z" fill="#70400E" stroke="black"/>
<path d="M49.5 111.929H51.0714V113.5H49.5V111.929Z" fill="#C0F5F9" stroke="black"/>
<path d="M49.5 117.071H51.0714V121.214H49.5V117.071Z" fill="#C0F5F9" stroke="black"/>
<path d="M27.6431 122.214H36.9288V126.357H27.6431V122.214Z" fill="#6B9777" stroke="black"/>
<path d="M55.4288 90.3571C55.2204 90.3571 55.0205 90.2743 54.8732 90.127C54.7258 89.9796 54.6431 89.7798 54.6431 89.5714V84.4286C54.6431 84.2202 54.7258 84.0203 54.8732 83.873C55.0205 83.7256 55.2204 83.6428 55.4288 83.6428C55.6372 83.6428 55.837 83.7256 55.9844 83.873C56.1317 84.0203 56.2145 84.2202 56.2145 84.4286V89.5714C56.2145 89.7798 56.1317 89.9796 55.9844 90.127C55.837 90.2743 55.6372 90.3571 55.4288 90.3571Z" fill="#CBCBCB" stroke="black"/>
<path d="M56.2145 107.571V108.291C55.6945 108.379 55.1631 108.379 54.6431 108.291V107.571C54.6431 107.363 54.7258 107.163 54.8732 107.016C55.0205 106.868 55.2204 106.786 55.4288 106.786C55.6372 106.786 55.837 106.868 55.9844 107.016C56.1317 107.163 56.2145 107.363 56.2145 107.571Z" fill="#C3C3C3" stroke="black"/>
<path d="M66.2144 66.9286H70.3572V68.5H66.2144V66.9286Z" fill="#70400E" stroke="black"/>
<path d="M37.9287 123.5H38.2144V125.071H37.9287V123.5Z" fill="#C3C3C3" stroke="black"/>
<path d="M50.7856 90.0714H60.0714V102.429C60.0714 103.66 59.5822 104.841 58.7115 105.712C57.8408 106.582 56.6599 107.071 55.4285 107.071C54.1971 107.071 53.0162 106.582 52.1455 105.712C51.2748 104.841 50.7856 103.66 50.7856 102.429V90.0714Z" fill="#EBEBEB" stroke="black"/>
<path d="M55.4285 107.071C54.1971 107.071 53.0162 106.582 52.1455 105.712C51.2748 104.841 50.7856 103.66 50.7856 102.429V95.2143H60.0714V102.429C60.0714 103.66 59.5822 104.841 58.7115 105.712C57.8408 106.582 56.6599 107.071 55.4285 107.071Z" fill="#C0F5F9" stroke="black"/>
<path d="M56.2141 99.8571V100.357H56.7141H57.4998V101.929H56.7141H56.2141V102.429V103.214H54.6426V102.429V101.929H54.1426H53.3569V100.357H54.1426H54.6426V99.8571V99.0714H56.2141V99.8571Z" fill="#85BC94" stroke="black"/>
<path d="M50.7856 95.2143H60.0714V95.5H50.7856V95.2143Z" fill="#B8EAEE" stroke="black"/>
<path d="M21.982 96C21.982 96.7002 21.4144 97.2678 20.7141 97.2678C20.0139 97.2678 19.4463 96.7002 19.4463 96C19.4463 95.2998 20.0139 94.7321 20.7141 94.7321C21.4144 94.7321 21.982 95.2998 21.982 96Z" fill="black" stroke="black"/>
<path d="M32.7501 96C32.7501 96.7002 32.1824 97.2678 31.4822 97.2678C30.782 97.2678 30.2144 96.7002 30.2144 96C30.2144 95.2998 30.782 94.7321 31.4822 94.7321C32.1824 94.7321 32.7501 95.2998 32.7501 96Z" fill="black" stroke="black"/>
<mask id="path-38-inside-1_13471_685" fill="white">
<path d="M7.85717 88.8181V93.8143C7.85431 94.7103 8.10245 95.5892 8.57349 96.3515C9.04452 97.1137 9.71962 97.7288 10.5223 98.127L13 99.366V102.429C13 102.592 13.0312 102.754 13.092 102.906L15.4725 108.857L13.1903 114.562L10.2732 117.48C9.91375 117.837 9.62877 118.263 9.43476 118.731C9.24074 119.199 9.14154 119.701 9.14288 120.208V124.728C9.14059 125.572 9.30579 126.408 9.62891 127.188C9.95203 127.969 10.4267 128.677 11.0253 129.272L12.1378 130.385C11.6101 130.736 11.1777 131.212 10.8794 131.772C10.5812 132.331 10.4262 132.956 10.4286 133.589V135.857C10.4286 136.198 10.5641 136.525 10.8052 136.766C11.0463 137.007 11.3733 137.143 11.7143 137.143H40C40.341 137.143 40.668 137.007 40.9092 136.766C41.1503 136.525 41.2857 136.198 41.2857 135.857V133.853C41.2863 133.084 41.0566 132.332 40.6263 131.694C40.1959 131.057 39.5845 130.563 38.8708 130.276L40 129.429C41.2549 128.482 42.1215 127.111 42.4376 125.571H45.4643C45.72 125.572 45.9651 125.673 46.1459 125.854C46.3266 126.035 46.4283 126.28 46.4286 126.536V132C46.4286 133.364 46.9704 134.672 47.9349 135.637C48.8994 136.601 50.2075 137.143 51.5714 137.143C52.9354 137.143 54.2435 136.601 55.208 135.637C56.1725 134.672 56.7143 133.364 56.7143 132V108.729C58.1654 108.43 59.4693 107.641 60.4061 106.493C61.3429 105.346 61.8554 103.91 61.8571 102.429V89.5714C61.8571 89.2304 61.7217 88.9034 61.4806 88.6623C61.2395 88.4212 60.9124 88.2857 60.5714 88.2857H56.7143V85.5515C57.8188 85.2668 58.7973 84.6231 59.4959 83.7216C60.1946 82.8201 60.5737 81.7119 60.5737 80.5713C60.5737 79.4308 60.1946 78.3226 59.4959 77.4211C58.7973 76.5195 57.8188 75.8758 56.7143 75.5912V67.7143H64.4286V128.741L64.3534 128.791C63.189 129.565 62.2343 130.616 61.5744 131.849C60.9145 133.082 60.5699 134.459 60.5714 135.857C60.5714 136.198 60.7069 136.525 60.948 136.766C61.1891 137.007 61.5162 137.143 61.8571 137.143H74.7143C75.0553 137.143 75.3823 137.007 75.6234 136.766C75.8645 136.525 76 136.198 76 135.857C76.0015 134.459 75.6569 133.082 74.997 131.849C74.3372 130.616 73.3825 129.565 72.2181 128.791L72.1429 128.74V61.2857C72.1429 60.9447 72.0074 60.6177 71.7663 60.3766C71.5252 60.1355 71.1981 60 70.8571 60H54.1429C53.1199 60 52.1388 60.4064 51.4155 61.1297C50.6921 61.8531 50.2857 62.8342 50.2857 63.8571C50.2857 64.8801 50.6921 65.8612 51.4155 66.5846C52.1388 67.3079 53.1199 67.7143 54.1429 67.7143V76.7143C54.1429 77.0553 54.2783 77.3823 54.5194 77.6234C54.7606 77.8645 55.0876 78 55.4286 78C55.8575 78 56.2796 78.1073 56.6565 78.3122C57.0334 78.517 57.353 78.8129 57.5863 79.1729C57.8196 79.5328 57.9591 79.9454 57.9922 80.3731C58.0253 80.8007 57.9509 81.2299 57.7757 81.6214C57.6006 82.013 57.3303 82.3545 56.9894 82.6149C56.6485 82.8753 56.2479 83.0462 55.8241 83.1122C55.4003 83.1782 54.9667 83.1372 54.5628 82.9927C54.1589 82.8483 53.7975 82.6052 53.5116 82.2854C53.399 82.1596 53.2627 82.0572 53.1105 81.9841C52.9583 81.911 52.7932 81.8685 52.6246 81.8592C52.4561 81.8498 52.2873 81.8738 52.128 81.9297C51.9686 81.9856 51.8219 82.0723 51.6961 82.1849C51.5703 82.2975 51.4679 82.4338 51.3947 82.586C51.3216 82.7382 51.2791 82.9033 51.2698 83.0718C51.2605 83.2404 51.2844 83.4092 51.3403 83.5685C51.3962 83.7279 51.4829 83.8746 51.5955 84.0004C52.2734 84.7565 53.1596 85.2954 54.1429 85.5494V88.2857H50.2857C49.9447 88.2857 49.6177 88.4212 49.3766 88.6623C49.1355 88.9034 49 89.2304 49 89.5714V102.429C49.0017 103.91 49.5142 105.346 50.451 106.493C51.3879 107.641 52.6918 108.43 54.1429 108.729V132C54.1429 132.682 53.8719 133.336 53.3897 133.818C52.9075 134.3 52.2534 134.571 51.5714 134.571C50.8895 134.571 50.2354 134.3 49.7532 133.818C49.2709 133.336 49 132.682 49 132V126.536C48.9989 125.598 48.6261 124.7 47.9632 124.037C47.3004 123.374 46.4017 123.001 45.4643 123H42.5714V120.208C42.5728 119.701 42.4736 119.199 42.2796 118.731C42.0856 118.263 41.8006 117.837 41.4411 117.48L38.5243 114.562L36.2422 108.857L38.6227 102.906C38.6833 102.754 38.7144 102.592 38.7143 102.429V99.366L41.1927 98.1267C41.9952 97.7284 42.6702 97.1134 43.1411 96.3512C43.612 95.589 43.86 94.7102 43.8572 93.8143V88.8181L45.6438 87.0321C46.3024 86.3771 46.8245 85.5979 47.1799 84.7396C47.5353 83.8814 47.717 82.9612 47.7143 82.0323V76.9746C47.7144 76.4339 47.6079 75.8984 47.401 75.3989C47.1941 74.8993 46.8908 74.4453 46.5084 74.063C46.1261 73.6806 45.6722 73.3773 45.1726 73.1704C44.673 72.9635 44.1375 72.8571 43.5968 72.8571C42.634 72.8586 41.7018 73.1959 40.9611 73.811L35.4234 78.4259C34.8429 78.9078 34.376 79.5118 34.0559 80.195C33.7358 80.8781 33.5703 81.6234 33.5714 82.3778V84.2357C33.5343 84.2298 33.4974 84.2227 33.4602 84.2175L33.3109 84.1947C28.3625 83.4891 23.3389 83.4898 18.3907 84.1967L18.2694 84.2151C18.2269 84.2212 18.185 84.229 18.1429 84.2359V82.3778C18.144 81.6236 17.9786 80.8784 17.6586 80.1954C17.3386 79.5124 16.8718 78.9084 16.2916 78.4265L10.7513 73.809C10.0108 73.195 9.07945 72.8584 8.11753 72.8571C7.57679 72.8571 7.04134 72.9635 6.54175 73.1704C6.04217 73.3773 5.58823 73.6806 5.20587 74.063C4.82352 74.4453 4.52023 74.8993 4.31333 75.3989C4.10643 75.8984 3.99997 76.4339 4.00003 76.9746V82.0323C3.99735 82.9612 4.17897 83.8814 4.53438 84.7396C4.88978 85.5979 5.4119 86.3771 6.07051 87.0321L7.85717 88.8181ZM70.7917 130.93C72.0631 131.776 72.9577 133.081 73.2881 134.571H63.2833C63.6136 133.081 64.5083 131.776 65.7797 130.93L66.1035 130.714H70.4679L70.7917 130.93ZM67 128.143V67.7143H69.5714V128.143H67ZM54.1429 65.1429C53.8019 65.1429 53.4748 65.0074 53.2337 64.7663C52.9926 64.5252 52.8571 64.1981 52.8571 63.8571C52.8571 63.5161 52.9926 63.1891 53.2337 62.948C53.4748 62.7069 53.8019 62.5714 54.1429 62.5714H69.5714V65.1429H54.1429ZM51.5714 90.8571H59.2857V93.4286H51.5714V90.8571ZM51.5714 102.429V96H59.2857V102.429C59.2857 103.452 58.8793 104.433 58.156 105.156C57.4326 105.879 56.4516 106.286 55.4286 106.286C54.4056 106.286 53.4245 105.879 52.7012 105.156C51.9778 104.433 51.5714 103.452 51.5714 102.429ZM15.5715 134.571H13V133.589C12.9991 133.351 13.0651 133.116 13.1906 132.913C13.3161 132.71 13.496 132.546 13.7099 132.44L14.8608 131.864C14.9947 131.797 15.1159 131.707 15.2188 131.598L15.5715 132.304V134.571ZM34.8572 129.125L33.7072 131.425C33.6179 131.603 33.5714 131.8 33.5714 132V134.571H31V132C31 131.8 30.9535 131.603 30.8642 131.425L29.7143 129.125V128.143H34.8572V129.125ZM34.8572 125.571H29.7143V123H34.8572V125.571ZM38.7143 134.571H36.1429V132.304L36.2432 132.103L37.8342 132.633C38.0904 132.718 38.3133 132.882 38.4713 133.101C38.6292 133.32 38.7143 133.583 38.7143 133.853V134.571ZM38.4572 127.371L37.4286 128.143V125.571H39.7768C39.5234 126.288 39.0644 126.914 38.4572 127.371V127.371ZM36.5194 116.195L39.6228 119.298C39.7428 119.417 39.8379 119.559 39.9026 119.716C39.9674 119.872 40.0005 120.039 40 120.208V123H37.4286V121.714C37.4286 121.373 37.2931 121.046 37.052 120.805C36.8109 120.564 36.4839 120.429 36.1429 120.429H28.4286C28.0876 120.429 27.7606 120.564 27.5195 120.805C27.2783 121.046 27.1429 121.373 27.1429 121.714V129.429C27.1429 129.628 27.1894 129.825 27.2787 130.004L28.4286 132.304V134.571H23.2857V132.304L24.4356 130.004C24.525 129.825 24.5715 129.628 24.5714 129.429V123C24.5714 122.659 24.436 122.332 24.1949 122.091C23.9538 121.85 23.6267 121.714 23.2857 121.714C22.9447 121.714 22.6177 121.85 22.3766 122.091C22.1355 122.332 22 122.659 22 123V129.125L20.8501 131.425C20.7608 131.603 20.7143 131.8 20.7143 132V134.571H18.1429V132C18.1429 131.8 18.0964 131.603 18.0071 131.425L16.8572 129.125V123C16.8572 122.659 16.7217 122.332 16.4806 122.091C16.2395 121.85 15.9124 121.714 15.5715 121.714C15.2305 121.714 14.9034 121.85 14.6623 122.091C14.4212 122.332 14.2857 122.659 14.2857 123V128.896L12.8437 127.454C12.123 126.729 11.7172 125.75 11.7143 124.728V120.208C11.7138 120.039 11.7469 119.872 11.8117 119.716C11.8764 119.559 11.9716 119.417 12.0915 119.298L15.1949 116.195C15.318 116.072 15.4148 115.925 15.4795 115.763L16.9319 112.132C17.485 112.764 18.1763 113.261 18.9522 113.583C19.7281 113.904 20.5677 114.043 21.4059 113.988C22.2441 113.933 23.0583 113.686 23.7854 113.265C24.5126 112.844 25.133 112.262 25.5986 111.563L25.8572 111.175L26.1156 111.563C26.5812 112.262 27.2016 112.844 27.9288 113.265C28.6559 113.686 29.4701 113.933 30.3084 113.988C31.1466 114.043 31.9862 113.904 32.7621 113.583C33.538 113.261 34.2293 112.764 34.7824 112.132L36.2348 115.763C36.2995 115.925 36.3963 116.072 36.5194 116.195V116.195ZM24.4819 108.603L23.4593 110.136C23.1139 110.655 22.6109 111.048 22.0246 111.259C21.4383 111.469 20.7999 111.485 20.2037 111.305C19.6075 111.124 19.0853 110.757 18.7141 110.256C18.343 109.756 18.1427 109.15 18.1429 108.527V106.616C18.1438 105.847 18.4498 105.109 18.9938 104.565C19.5378 104.021 20.2754 103.715 21.0447 103.714H22.2212C21.8852 104.663 21.9335 105.705 22.3559 106.619C22.7783 107.532 23.5412 108.244 24.4816 108.603H24.4819ZM24.5714 105C24.5714 104.746 24.6469 104.497 24.7881 104.286C24.9294 104.074 25.1302 103.909 25.3651 103.812C25.6001 103.715 25.8586 103.689 26.108 103.739C26.3574 103.789 26.5865 103.911 26.7663 104.091C26.9461 104.271 27.0686 104.5 27.1182 104.749C27.1678 104.999 27.1423 105.257 27.045 105.492C26.9477 105.727 26.7829 105.928 26.5715 106.069C26.36 106.21 26.1115 106.286 25.8572 106.286C25.5163 106.285 25.1895 106.15 24.9484 105.909C24.7074 105.668 24.5718 105.341 24.5714 105ZM29.4932 103.714H30.6696C31.4389 103.715 32.1765 104.021 32.7205 104.565C33.2645 105.109 33.5706 105.847 33.5714 106.616V108.527C33.5714 109.149 33.371 109.756 32.9999 110.256C32.6288 110.756 32.1066 111.123 31.5105 111.304C30.9145 111.484 30.2762 111.468 29.6899 111.258C29.1037 111.048 28.6007 110.655 28.2552 110.136L27.2327 108.603C28.1731 108.244 28.936 107.532 29.3584 106.619C29.7808 105.705 29.8291 104.663 29.4932 103.714V103.714ZM36.1429 82.3778C36.1422 82.0005 36.2249 81.6277 36.385 81.286C36.545 80.9442 36.7786 80.6421 37.0689 80.4011L42.6049 75.7873C42.8837 75.556 43.2345 75.4291 43.5968 75.4286C43.7998 75.4285 44.0009 75.4685 44.1885 75.5462C44.3761 75.6238 44.5466 75.7377 44.6901 75.8813C44.8337 76.0249 44.9476 76.1953 45.0253 76.3829C45.1029 76.5705 45.1429 76.7716 45.1429 76.9746V82.0323C45.1445 82.6233 45.0288 83.2088 44.8026 83.7548C44.5764 84.3009 44.2441 84.7966 43.825 85.2133L41.6618 87.3765C41.4209 87.6177 41.2856 87.9448 41.2857 88.2857V93.8143C41.2871 94.2324 41.1713 94.6426 40.9515 94.9984C40.7317 95.3542 40.4167 95.6413 40.0421 95.8272L38.7143 96.4911V90.2834C38.714 89.8244 38.6625 89.3669 38.5605 88.9194L42.3143 83.9143C42.4812 83.6917 42.5714 83.421 42.5714 83.1428V80.5714C42.5714 80.2304 42.436 79.9034 42.1949 79.6623C41.9537 79.4212 41.6267 79.2857 41.2857 79.2857C40.9447 79.2857 40.6177 79.4212 40.3766 79.6623C40.1355 79.9034 40 80.2304 40 80.5714V82.7142L37.2754 86.3464C37.1642 86.2149 37.0482 86.0865 36.9251 85.9632L36.9026 85.9407C36.6672 85.7069 36.4131 85.4926 36.1429 85.3V82.3778ZM16.6076 87.7822L16.6301 87.7597C17.1742 87.2162 17.8807 86.8648 18.6424 86.7586L18.7663 86.7396C23.4654 86.0689 28.236 86.0682 32.9353 86.7377L33.0872 86.7608C33.8432 86.8696 34.5438 87.22 35.0842 87.7597L35.1067 87.7822C35.4362 88.1099 35.6975 88.4997 35.8753 88.929C36.0532 89.3583 36.1441 89.8187 36.1429 90.2834V102.181L35.4401 103.938C34.9644 103.091 34.2718 102.385 33.4335 101.894C32.5951 101.403 31.6412 101.144 30.6696 101.143H21.0447C20.0731 101.144 19.1192 101.403 18.2808 101.894C17.4425 102.385 16.7499 103.091 16.2743 103.938L15.5715 102.181V90.2834C15.5702 89.8187 15.6611 89.3583 15.839 88.929C16.0168 88.4997 16.2781 88.1099 16.6076 87.7822V87.7822ZM6.57146 76.9746C6.57141 76.7716 6.61138 76.5705 6.68906 76.3829C6.76674 76.1953 6.88062 76.0249 7.0242 75.8813C7.16777 75.7377 7.33822 75.6238 7.52582 75.5462C7.71342 75.4685 7.91448 75.4285 8.11753 75.4286C8.47897 75.4292 8.82892 75.5557 9.10721 75.7863L14.6462 80.4025C14.9362 80.6434 15.1695 80.9454 15.3295 81.2868C15.4894 81.6283 15.572 82.0008 15.5715 82.3778V85.3001C15.3012 85.4928 15.0471 85.7073 14.8118 85.9414L14.7893 85.9639C14.6661 86.0871 14.5501 86.2155 14.4389 86.347L11.7143 82.7142V80.5714C11.7143 80.2304 11.5789 79.9034 11.3377 79.6623C11.0966 79.4212 10.7696 79.2857 10.4286 79.2857C10.0876 79.2857 9.76058 79.4212 9.51946 79.6623C9.27834 79.9034 9.14288 80.2304 9.14288 80.5714V83.1428C9.14288 83.421 9.23311 83.6917 9.40003 83.9143L13.1538 88.9194C13.0519 89.3669 13.0003 89.8244 13 90.2834V96.4911L11.6728 95.8275C11.2981 95.6416 10.983 95.3545 10.7631 94.9987C10.5431 94.6429 10.4273 94.2326 10.4286 93.8143V88.2857C10.4286 88.1169 10.3954 87.9497 10.3307 87.7937C10.2661 87.6377 10.1714 87.4959 10.052 87.3765L7.88931 85.2133C7.47021 84.7966 7.13794 84.3009 6.91173 83.7548C6.68552 83.2088 6.56986 82.6233 6.57146 82.0323V76.9746Z"/>
</mask>
<path d="M7.85717 88.8181V93.8143C7.85431 94.7103 8.10245 95.5892 8.57349 96.3515C9.04452 97.1137 9.71962 97.7288 10.5223 98.127L13 99.366V102.429C13 102.592 13.0312 102.754 13.092 102.906L15.4725 108.857L13.1903 114.562L10.2732 117.48C9.91375 117.837 9.62877 118.263 9.43476 118.731C9.24074 119.199 9.14154 119.701 9.14288 120.208V124.728C9.14059 125.572 9.30579 126.408 9.62891 127.188C9.95203 127.969 10.4267 128.677 11.0253 129.272L12.1378 130.385C11.6101 130.736 11.1777 131.212 10.8794 131.772C10.5812 132.331 10.4262 132.956 10.4286 133.589V135.857C10.4286 136.198 10.5641 136.525 10.8052 136.766C11.0463 137.007 11.3733 137.143 11.7143 137.143H40C40.341 137.143 40.668 137.007 40.9092 136.766C41.1503 136.525 41.2857 136.198 41.2857 135.857V133.853C41.2863 133.084 41.0566 132.332 40.6263 131.694C40.1959 131.057 39.5845 130.563 38.8708 130.276L40 129.429C41.2549 128.482 42.1215 127.111 42.4376 125.571H45.4643C45.72 125.572 45.9651 125.673 46.1459 125.854C46.3266 126.035 46.4283 126.28 46.4286 126.536V132C46.4286 133.364 46.9704 134.672 47.9349 135.637C48.8994 136.601 50.2075 137.143 51.5714 137.143C52.9354 137.143 54.2435 136.601 55.208 135.637C56.1725 134.672 56.7143 133.364 56.7143 132V108.729C58.1654 108.43 59.4693 107.641 60.4061 106.493C61.3429 105.346 61.8554 103.91 61.8571 102.429V89.5714C61.8571 89.2304 61.7217 88.9034 61.4806 88.6623C61.2395 88.4212 60.9124 88.2857 60.5714 88.2857H56.7143V85.5515C57.8188 85.2668 58.7973 84.6231 59.4959 83.7216C60.1946 82.8201 60.5737 81.7119 60.5737 80.5713C60.5737 79.4308 60.1946 78.3226 59.4959 77.4211C58.7973 76.5195 57.8188 75.8758 56.7143 75.5912V67.7143H64.4286V128.741L64.3534 128.791C63.189 129.565 62.2343 130.616 61.5744 131.849C60.9145 133.082 60.5699 134.459 60.5714 135.857C60.5714 136.198 60.7069 136.525 60.948 136.766C61.1891 137.007 61.5162 137.143 61.8571 137.143H74.7143C75.0553 137.143 75.3823 137.007 75.6234 136.766C75.8645 136.525 76 136.198 76 135.857C76.0015 134.459 75.6569 133.082 74.997 131.849C74.3372 130.616 73.3825 129.565 72.2181 128.791L72.1429 128.74V61.2857C72.1429 60.9447 72.0074 60.6177 71.7663 60.3766C71.5252 60.1355 71.1981 60 70.8571 60H54.1429C53.1199 60 52.1388 60.4064 51.4155 61.1297C50.6921 61.8531 50.2857 62.8342 50.2857 63.8571C50.2857 64.8801 50.6921 65.8612 51.4155 66.5846C52.1388 67.3079 53.1199 67.7143 54.1429 67.7143V76.7143C54.1429 77.0553 54.2783 77.3823 54.5194 77.6234C54.7606 77.8645 55.0876 78 55.4286 78C55.8575 78 56.2796 78.1073 56.6565 78.3122C57.0334 78.517 57.353 78.8129 57.5863 79.1729C57.8196 79.5328 57.9591 79.9454 57.9922 80.3731C58.0253 80.8007 57.9509 81.2299 57.7757 81.6214C57.6006 82.013 57.3303 82.3545 56.9894 82.6149C56.6485 82.8753 56.2479 83.0462 55.8241 83.1122C55.4003 83.1782 54.9667 83.1372 54.5628 82.9927C54.1589 82.8483 53.7975 82.6052 53.5116 82.2854C53.399 82.1596 53.2627 82.0572 53.1105 81.9841C52.9583 81.911 52.7932 81.8685 52.6246 81.8592C52.4561 81.8498 52.2873 81.8738 52.128 81.9297C51.9686 81.9856 51.8219 82.0723 51.6961 82.1849C51.5703 82.2975 51.4679 82.4338 51.3947 82.586C51.3216 82.7382 51.2791 82.9033 51.2698 83.0718C51.2605 83.2404 51.2844 83.4092 51.3403 83.5685C51.3962 83.7279 51.4829 83.8746 51.5955 84.0004C52.2734 84.7565 53.1596 85.2954 54.1429 85.5494V88.2857H50.2857C49.9447 88.2857 49.6177 88.4212 49.3766 88.6623C49.1355 88.9034 49 89.2304 49 89.5714V102.429C49.0017 103.91 49.5142 105.346 50.451 106.493C51.3879 107.641 52.6918 108.43 54.1429 108.729V132C54.1429 132.682 53.8719 133.336 53.3897 133.818C52.9075 134.3 52.2534 134.571 51.5714 134.571C50.8895 134.571 50.2354 134.3 49.7532 133.818C49.2709 133.336 49 132.682 49 132V126.536C48.9989 125.598 48.6261 124.7 47.9632 124.037C47.3004 123.374 46.4017 123.001 45.4643 123H42.5714V120.208C42.5728 119.701 42.4736 119.199 42.2796 118.731C42.0856 118.263 41.8006 117.837 41.4411 117.48L38.5243 114.562L36.2422 108.857L38.6227 102.906C38.6833 102.754 38.7144 102.592 38.7143 102.429V99.366L41.1927 98.1267C41.9952 97.7284 42.6702 97.1134 43.1411 96.3512C43.612 95.589 43.86 94.7102 43.8572 93.8143V88.8181L45.6438 87.0321C46.3024 86.3771 46.8245 85.5979 47.1799 84.7396C47.5353 83.8814 47.717 82.9612 47.7143 82.0323V76.9746C47.7144 76.4339 47.6079 75.8984 47.401 75.3989C47.1941 74.8993 46.8908 74.4453 46.5084 74.063C46.1261 73.6806 45.6722 73.3773 45.1726 73.1704C44.673 72.9635 44.1375 72.8571 43.5968 72.8571C42.634 72.8586 41.7018 73.1959 40.9611 73.811L35.4234 78.4259C34.8429 78.9078 34.376 79.5118 34.0559 80.195C33.7358 80.8781 33.5703 81.6234 33.5714 82.3778V84.2357C33.5343 84.2298 33.4974 84.2227 33.4602 84.2175L33.3109 84.1947C28.3625 83.4891 23.3389 83.4898 18.3907 84.1967L18.2694 84.2151C18.2269 84.2212 18.185 84.229 18.1429 84.2359V82.3778C18.144 81.6236 17.9786 80.8784 17.6586 80.1954C17.3386 79.5124 16.8718 78.9084 16.2916 78.4265L10.7513 73.809C10.0108 73.195 9.07945 72.8584 8.11753 72.8571C7.57679 72.8571 7.04134 72.9635 6.54175 73.1704C6.04217 73.3773 5.58823 73.6806 5.20587 74.063C4.82352 74.4453 4.52023 74.8993 4.31333 75.3989C4.10643 75.8984 3.99997 76.4339 4.00003 76.9746V82.0323C3.99735 82.9612 4.17897 83.8814 4.53438 84.7396C4.88978 85.5979 5.4119 86.3771 6.07051 87.0321L7.85717 88.8181ZM70.7917 130.93C72.0631 131.776 72.9577 133.081 73.2881 134.571H63.2833C63.6136 133.081 64.5083 131.776 65.7797 130.93L66.1035 130.714H70.4679L70.7917 130.93ZM67 128.143V67.7143H69.5714V128.143H67ZM54.1429 65.1429C53.8019 65.1429 53.4748 65.0074 53.2337 64.7663C52.9926 64.5252 52.8571 64.1981 52.8571 63.8571C52.8571 63.5161 52.9926 63.1891 53.2337 62.948C53.4748 62.7069 53.8019 62.5714 54.1429 62.5714H69.5714V65.1429H54.1429ZM51.5714 90.8571H59.2857V93.4286H51.5714V90.8571ZM51.5714 102.429V96H59.2857V102.429C59.2857 103.452 58.8793 104.433 58.156 105.156C57.4326 105.879 56.4516 106.286 55.4286 106.286C54.4056 106.286 53.4245 105.879 52.7012 105.156C51.9778 104.433 51.5714 103.452 51.5714 102.429ZM15.5715 134.571H13V133.589C12.9991 133.351 13.0651 133.116 13.1906 132.913C13.3161 132.71 13.496 132.546 13.7099 132.44L14.8608 131.864C14.9947 131.797 15.1159 131.707 15.2188 131.598L15.5715 132.304V134.571ZM34.8572 129.125L33.7072 131.425C33.6179 131.603 33.5714 131.8 33.5714 132V134.571H31V132C31 131.8 30.9535 131.603 30.8642 131.425L29.7143 129.125V128.143H34.8572V129.125ZM34.8572 125.571H29.7143V123H34.8572V125.571ZM38.7143 134.571H36.1429V132.304L36.2432 132.103L37.8342 132.633C38.0904 132.718 38.3133 132.882 38.4713 133.101C38.6292 133.32 38.7143 133.583 38.7143 133.853V134.571ZM38.4572 127.371L37.4286 128.143V125.571H39.7768C39.5234 126.288 39.0644 126.914 38.4572 127.371V127.371ZM36.5194 116.195L39.6228 119.298C39.7428 119.417 39.8379 119.559 39.9026 119.716C39.9674 119.872 40.0005 120.039 40 120.208V123H37.4286V121.714C37.4286 121.373 37.2931 121.046 37.052 120.805C36.8109 120.564 36.4839 120.429 36.1429 120.429H28.4286C28.0876 120.429 27.7606 120.564 27.5195 120.805C27.2783 121.046 27.1429 121.373 27.1429 121.714V129.429C27.1429 129.628 27.1894 129.825 27.2787 130.004L28.4286 132.304V134.571H23.2857V132.304L24.4356 130.004C24.525 129.825 24.5715 129.628 24.5714 129.429V123C24.5714 122.659 24.436 122.332 24.1949 122.091C23.9538 121.85 23.6267 121.714 23.2857 121.714C22.9447 121.714 22.6177 121.85 22.3766 122.091C22.1355 122.332 22 122.659 22 123V129.125L20.8501 131.425C20.7608 131.603 20.7143 131.8 20.7143 132V134.571H18.1429V132C18.1429 131.8 18.0964 131.603 18.0071 131.425L16.8572 129.125V123C16.8572 122.659 16.7217 122.332 16.4806 122.091C16.2395 121.85 15.9124 121.714 15.5715 121.714C15.2305 121.714 14.9034 121.85 14.6623 122.091C14.4212 122.332 14.2857 122.659 14.2857 123V128.896L12.8437 127.454C12.123 126.729 11.7172 125.75 11.7143 124.728V120.208C11.7138 120.039 11.7469 119.872 11.8117 119.716C11.8764 119.559 11.9716 119.417 12.0915 119.298L15.1949 116.195C15.318 116.072 15.4148 115.925 15.4795 115.763L16.9319 112.132C17.485 112.764 18.1763 113.261 18.9522 113.583C19.7281 113.904 20.5677 114.043 21.4059 113.988C22.2441 113.933 23.0583 113.686 23.7854 113.265C24.5126 112.844 25.133 112.262 25.5986 111.563L25.8572 111.175L26.1156 111.563C26.5812 112.262 27.2016 112.844 27.9288 113.265C28.6559 113.686 29.4701 113.933 30.3084 113.988C31.1466 114.043 31.9862 113.904 32.7621 113.583C33.538 113.261 34.2293 112.764 34.7824 112.132L36.2348 115.763C36.2995 115.925 36.3963 116.072 36.5194 116.195V116.195ZM24.4819 108.603L23.4593 110.136C23.1139 110.655 22.6109 111.048 22.0246 111.259C21.4383 111.469 20.7999 111.485 20.2037 111.305C19.6075 111.124 19.0853 110.757 18.7141 110.256C18.343 109.756 18.1427 109.15 18.1429 108.527V106.616C18.1438 105.847 18.4498 105.109 18.9938 104.565C19.5378 104.021 20.2754 103.715 21.0447 103.714H22.2212C21.8852 104.663 21.9335 105.705 22.3559 106.619C22.7783 107.532 23.5412 108.244 24.4816 108.603H24.4819ZM24.5714 105C24.5714 104.746 24.6469 104.497 24.7881 104.286C24.9294 104.074 25.1302 103.909 25.3651 103.812C25.6001 103.715 25.8586 103.689 26.108 103.739C26.3574 103.789 26.5865 103.911 26.7663 104.091C26.9461 104.271 27.0686 104.5 27.1182 104.749C27.1678 104.999 27.1423 105.257 27.045 105.492C26.9477 105.727 26.7829 105.928 26.5715 106.069C26.36 106.21 26.1115 106.286 25.8572 106.286C25.5163 106.285 25.1895 106.15 24.9484 105.909C24.7074 105.668 24.5718 105.341 24.5714 105ZM29.4932 103.714H30.6696C31.4389 103.715 32.1765 104.021 32.7205 104.565C33.2645 105.109 33.5706 105.847 33.5714 106.616V108.527C33.5714 109.149 33.371 109.756 32.9999 110.256C32.6288 110.756 32.1066 111.123 31.5105 111.304C30.9145 111.484 30.2762 111.468 29.6899 111.258C29.1037 111.048 28.6007 110.655 28.2552 110.136L27.2327 108.603C28.1731 108.244 28.936 107.532 29.3584 106.619C29.7808 105.705 29.8291 104.663 29.4932 103.714V103.714ZM36.1429 82.3778C36.1422 82.0005 36.2249 81.6277 36.385 81.286C36.545 80.9442 36.7786 80.6421 37.0689 80.4011L42.6049 75.7873C42.8837 75.556 43.2345 75.4291 43.5968 75.4286C43.7998 75.4285 44.0009 75.4685 44.1885 75.5462C44.3761 75.6238 44.5466 75.7377 44.6901 75.8813C44.8337 76.0249 44.9476 76.1953 45.0253 76.3829C45.1029 76.5705 45.1429 76.7716 45.1429 76.9746V82.0323C45.1445 82.6233 45.0288 83.2088 44.8026 83.7548C44.5764 84.3009 44.2441 84.7966 43.825 85.2133L41.6618 87.3765C41.4209 87.6177 41.2856 87.9448 41.2857 88.2857V93.8143C41.2871 94.2324 41.1713 94.6426 40.9515 94.9984C40.7317 95.3542 40.4167 95.6413 40.0421 95.8272L38.7143 96.4911V90.2834C38.714 89.8244 38.6625 89.3669 38.5605 88.9194L42.3143 83.9143C42.4812 83.6917 42.5714 83.421 42.5714 83.1428V80.5714C42.5714 80.2304 42.436 79.9034 42.1949 79.6623C41.9537 79.4212 41.6267 79.2857 41.2857 79.2857C40.9447 79.2857 40.6177 79.4212 40.3766 79.6623C40.1355 79.9034 40 80.2304 40 80.5714V82.7142L37.2754 86.3464C37.1642 86.2149 37.0482 86.0865 36.9251 85.9632L36.9026 85.9407C36.6672 85.7069 36.4131 85.4926 36.1429 85.3V82.3778ZM16.6076 87.7822L16.6301 87.7597C17.1742 87.2162 17.8807 86.8648 18.6424 86.7586L18.7663 86.7396C23.4654 86.0689 28.236 86.0682 32.9353 86.7377L33.0872 86.7608C33.8432 86.8696 34.5438 87.22 35.0842 87.7597L35.1067 87.7822C35.4362 88.1099 35.6975 88.4997 35.8753 88.929C36.0532 89.3583 36.1441 89.8187 36.1429 90.2834V102.181L35.4401 103.938C34.9644 103.091 34.2718 102.385 33.4335 101.894C32.5951 101.403 31.6412 101.144 30.6696 101.143H21.0447C20.0731 101.144 19.1192 101.403 18.2808 101.894C17.4425 102.385 16.7499 103.091 16.2743 103.938L15.5715 102.181V90.2834C15.5702 89.8187 15.6611 89.3583 15.839 88.929C16.0168 88.4997 16.2781 88.1099 16.6076 87.7822V87.7822ZM6.57146 76.9746C6.57141 76.7716 6.61138 76.5705 6.68906 76.3829C6.76674 76.1953 6.88062 76.0249 7.0242 75.8813C7.16777 75.7377 7.33822 75.6238 7.52582 75.5462C7.71342 75.4685 7.91448 75.4285 8.11753 75.4286C8.47897 75.4292 8.82892 75.5557 9.10721 75.7863L14.6462 80.4025C14.9362 80.6434 15.1695 80.9454 15.3295 81.2868C15.4894 81.6283 15.572 82.0008 15.5715 82.3778V85.3001C15.3012 85.4928 15.0471 85.7073 14.8118 85.9414L14.7893 85.9639C14.6661 86.0871 14.5501 86.2155 14.4389 86.347L11.7143 82.7142V80.5714C11.7143 80.2304 11.5789 79.9034 11.3377 79.6623C11.0966 79.4212 10.7696 79.2857 10.4286 79.2857C10.0876 79.2857 9.76058 79.4212 9.51946 79.6623C9.27834 79.9034 9.14288 80.2304 9.14288 80.5714V83.1428C9.14288 83.421 9.23311 83.6917 9.40003 83.9143L13.1538 88.9194C13.0519 89.3669 13.0003 89.8244 13 90.2834V96.4911L11.6728 95.8275C11.2981 95.6416 10.983 95.3545 10.7631 94.9987C10.5431 94.6429 10.4273 94.2326 10.4286 93.8143V88.2857C10.4286 88.1169 10.3954 87.9497 10.3307 87.7937C10.2661 87.6377 10.1714 87.4959 10.052 87.3765L7.88931 85.2133C7.47021 84.7966 7.13794 84.3009 6.91173 83.7548C6.68552 83.2088 6.56986 82.6233 6.57146 82.0323V76.9746Z" fill="black" stroke="black" stroke-width="2" mask="url(#path-38-inside-1_13471_685)"/>
<path d="M56.7141 101.929H56.2141V102.429V103.214H54.6426V102.429V101.929H54.1426H53.3569V100.357H54.1426H54.6426V99.8571V99.0714H56.2141V99.8571V100.357H56.7141H57.4998V101.929H56.7141Z" fill="black" stroke="black"/>
<path d="M49.5 111.929H51.0714V113.5H49.5V111.929Z" fill="black" stroke="black"/>
<path d="M49.5 117.071H51.0714V121.214H49.5V117.071Z" fill="black" stroke="black"/>
</g>
<defs>
<filter id="filter0_d_13471_685" x="0" y="20.1733" width="236.17" height="124.97" filterUnits="userSpaceOnUse" color-interpolation-filters="sRGB">
<feFlood flood-opacity="0" result="BackgroundImageFix"/>
<feColorMatrix in="SourceAlpha" type="matrix" values="0 0 0 0 0 0 0 0 0 0 0 0 0 0 0 0 0 0 127 0" result="hardAlpha"/>
<feOffset dy="4"/>
<feGaussianBlur stdDeviation="2"/>
<feComposite in2="hardAlpha" operator="out"/>
<feColorMatrix type="matrix" values="0 0 0 0 0 0 0 0 0 0 0 0 0 0 0 0 0 0 0.25 0"/>
<feBlend mode="normal" in2="BackgroundImageFix" result="effect1_dropShadow_13471_685"/>
<feBlend mode="normal" in="SourceGraphic" in2="effect1_dropShadow_13471_685" result="shape"/>
</filter>
</defs>
</svg>
