<svg width="253" height="138" viewBox="0 0 253 138" fill="none" xmlns="http://www.w3.org/2000/svg">
<g opacity="0.05">
<path d="M195.034 80.9799C194.948 71.9944 190.353 63.7781 182.743 59.0021C175.132 54.226 165.736 53.6619 157.608 57.4924L138.02 66.7213C134.771 68.2522 132.156 70.7364 130.459 73.9028C128.761 77.0698 128.142 80.6224 128.667 84.178C129.194 87.7325 130.816 90.9541 133.358 93.4946C135.899 96.0352 139.123 97.6546 142.679 98.1786L142.918 98.2129C151.827 99.5929 159.823 104.65 164.887 112.116C166.194 114.041 167.854 115.642 169.783 116.853C170.832 117.511 171.961 118.054 173.156 118.472C176.549 119.657 180.155 119.716 183.586 118.645C187.016 117.573 189.947 115.471 192.062 112.565C194.176 109.659 195.276 106.224 195.242 102.631L195.034 80.9799Z" fill="#949494"/>
<path d="M150.388 52.9338C154.042 53.6507 157.768 52.6818 160.879 50.2051C163.841 47.8486 165.896 44.3802 166.667 40.4375C167.435 36.4964 166.837 32.5098 164.982 29.211C163.032 25.7463 159.947 23.4448 156.296 22.7331C148.955 21.2954 141.655 26.9005 140.021 35.2316C138.728 41.8673 141.416 48.2553 146.273 51.3037C147.513 52.0821 148.895 52.6426 150.388 52.9338Z" fill="#949494"/>
<path d="M177.184 52.8891C184.577 57.5289 194.893 54.4509 200.179 46.0278C205.467 37.6025 203.753 26.9735 196.36 22.3338C188.967 17.6945 178.652 20.7743 173.364 29.1996C168.078 37.6227 169.792 48.2499 177.184 52.8891Z" fill="#949494"/>
<path d="M197.985 71.1741L197.986 71.1746C198.886 72.2657 199.933 73.1742 201.088 73.8993C206.48 77.2829 214.197 76.6561 219.987 71.8834C223.32 69.1364 225.548 65.418 226.259 61.4137C227.005 57.2222 226.021 53.2229 223.489 50.1517C220.957 47.08 217.218 45.3519 212.961 45.284C208.895 45.2191 204.82 46.6972 201.488 49.4451C194.458 55.2411 192.887 64.9888 197.985 71.1741Z" fill="#949494"/>
<path d="M227.34 87.1113L227.339 87.1079C224.604 80.142 215.955 76.9892 208.055 80.0808C200.159 83.1778 195.952 91.3641 198.677 98.328C199.671 100.869 201.452 102.903 203.697 104.312C207.611 106.768 212.935 107.325 217.962 105.36C225.858 102.263 230.065 94.077 227.34 87.1113Z" fill="#949494"/>
</g>
<path d="M74.6719 77.9844V115.953H56.9531V133.672H18.9844V115.953H1.26562V77.9844H18.9844V60.2656H56.9531V77.9844H74.6719Z" fill="#6B9777"/>
<path d="M72.1406 77.9844V115.953H54.4219V133.672H18.9844V115.953H1.26562V77.9844H18.9844V60.2656H54.4219V77.9844H72.1406Z" fill="#85BC94"/>
<path d="M20.2498 109.625H18.9841C17.8996 109.625 16.8463 109.262 15.9914 108.595C15.1366 107.928 14.5294 106.994 14.2664 105.942L12.656 99.5L11.8175 100.338C10.8988 101.257 10.2066 102.377 9.79568 103.61C9.38481 104.842 9.26657 106.154 9.45035 107.44C9.8818 110.46 11.4953 113.185 13.9359 115.016C14.748 115.624 15.7357 115.953 16.7506 115.953H20.2498V109.625Z" fill="#744630"/>
<path d="M53.1562 131.141L51.8906 133.672H18.9844V114.956C18.9843 112.264 19.418 109.588 20.269 107.034L20.9587 104.966C22.1551 101.373 24.1722 98.1084 26.8502 95.431L26.9436 95.3377C29.2065 93.0786 31.0167 90.4076 32.2766 87.4687C32.7734 86.3106 33.2685 85.1526 33.6292 84.3125C33.9567 83.5484 34.1719 83.0469 34.1719 83.0469H30.53C29.4014 83.0457 28.3054 82.6678 27.4159 81.9732C26.5263 81.2785 25.8941 80.3068 25.6194 79.2121L24.9961 76.7188L24.8331 76.067C24.7399 75.6938 24.7329 75.3043 24.8126 74.9281C24.8924 74.5518 25.0569 74.1987 25.2936 73.8955C25.5303 73.5923 25.833 73.3471 26.1786 73.1784C26.5243 73.0097 26.9038 72.922 27.2885 72.9219H31.6406C32.4567 70.4714 34.1228 68.3939 36.3377 67.0652L36.8914 66.7346C38.3148 65.8809 39.9305 65.3999 41.5891 65.3361C43.2476 65.2722 44.8955 65.6275 46.3804 66.3691L46.4358 66.3976C48.0749 67.2172 49.4534 68.477 50.4168 70.0359C51.3802 71.5948 51.8906 73.3912 51.8906 75.2238V129.875L53.1562 131.141Z" fill="#F3AF3E"/>
<path d="M25.9453 133.672C24.4353 133.67 22.9877 133.07 21.92 132.002C20.8523 130.934 20.2517 129.487 20.25 127.977V127.027C20.2521 126.144 20.4589 125.272 20.8542 124.482C21.2494 123.691 21.8224 123.003 22.5281 122.471C23.3908 121.821 24.0911 120.98 24.5742 120.014C25.0573 119.047 25.31 117.983 25.3125 116.902V115.953C25.3125 115.617 25.4458 115.296 25.6832 115.058C25.9205 114.821 26.2425 114.688 26.5781 114.688C26.9138 114.688 27.2357 114.821 27.4731 115.058C27.7104 115.296 27.8438 115.617 27.8438 115.953V116.902C27.8402 118.375 27.4956 119.828 26.8369 121.145C26.1781 122.462 25.2232 123.609 24.0469 124.496C23.6548 124.792 23.3365 125.174 23.1169 125.613C22.8974 126.052 22.7825 126.536 22.7812 127.027V127.977C22.7812 128.816 23.1146 129.621 23.708 130.214C24.3014 130.807 25.1062 131.141 25.9453 131.141C26.7845 131.141 27.5893 130.807 28.1826 130.214C28.776 129.621 29.1094 128.816 29.1094 127.977V127.344C29.1105 126.337 29.511 125.372 30.2227 124.66C30.9345 123.948 31.8996 123.548 32.9062 123.547C33.2419 123.547 33.5638 123.68 33.8012 123.918C34.0385 124.155 34.1719 124.477 34.1719 124.812C34.1719 125.148 34.0385 125.47 33.8012 125.707C33.5638 125.945 33.2419 126.078 32.9062 126.078C32.5707 126.079 32.249 126.212 32.0117 126.449C31.7745 126.687 31.641 127.008 31.6406 127.344V127.977C31.639 129.487 31.0384 130.934 29.9707 132.002C28.9029 133.07 27.4553 133.67 25.9453 133.672Z" fill="#CD761F"/>
<path d="M53.1562 131.141L51.8906 133.672H38.3532C37.3055 133.672 36.268 133.466 35.3 133.065C34.332 132.664 33.4525 132.076 32.7117 131.335C31.9708 130.594 31.3831 129.715 30.9822 128.747C30.5813 127.779 30.375 126.741 30.375 125.694C30.3746 124.269 30.5733 122.852 30.9651 121.482L31.1534 120.824C32.279 116.881 34.862 113.514 38.3785 111.405C38.9372 111.069 39.3888 110.581 39.6805 109.998L41.7656 105.828H37.4799C37.0455 105.828 36.6153 105.743 36.214 105.576C35.8126 105.41 35.4479 105.166 35.1407 104.859C34.8335 104.552 34.5899 104.187 34.4236 103.786C34.2574 103.385 34.1719 102.955 34.1719 102.52V99.5H37.9688L38.2836 98.5555C38.5747 97.6812 39.0819 96.8945 39.758 96.2683C40.4342 95.6422 41.2575 95.197 42.1516 94.9738L44.2969 94.4375V90.6406L47.9941 93.4139C48.8931 94.0858 49.6219 94.9593 50.1219 95.9642C51.2848 98.2895 51.8903 100.854 51.8906 103.453V129.875L53.1562 131.141Z" fill="#E08122"/>
<path d="M43.9268 105.458L42.6612 106.724C42.4235 106.961 42.1015 107.094 41.7657 107.094H41.1329L41.7657 105.828H37.48C36.9992 105.829 36.5241 105.724 36.088 105.522C35.6518 105.32 35.2651 105.025 34.9551 104.657C35.1081 104.594 35.2721 104.562 35.4376 104.562H41.2421L42.1359 103.667C42.3734 103.43 42.6955 103.296 43.0314 103.296C43.3672 103.296 43.6893 103.43 43.9268 103.667C44.1643 103.905 44.2977 104.227 44.2977 104.562C44.2977 104.898 44.1643 105.22 43.9268 105.458Z" fill="#CD761F"/>
<path d="M46.8281 117.219C46.4925 117.219 46.1705 117.352 45.9332 117.589C45.6958 117.827 45.5625 118.149 45.5625 118.484V127.64C45.0802 127.444 44.5644 127.343 44.0437 127.344H42.8651L43.0376 127.084C43.593 126.251 43.9119 125.283 43.9602 124.283C44.0085 123.283 43.7844 122.288 43.3118 121.405C42.8392 120.523 42.1359 119.785 41.2768 119.27C40.4178 118.756 39.4352 118.484 38.4339 118.484H37.9688C37.6331 118.484 37.3112 118.618 37.0738 118.855C36.8365 119.092 36.7031 119.414 36.7031 119.75C36.7031 120.086 36.8365 120.408 37.0738 120.645C37.3112 120.882 37.6331 121.016 37.9688 121.016H38.4339C38.9771 121.015 39.5103 121.163 39.9764 121.442C40.4425 121.721 40.8241 122.121 41.0806 122.6C41.337 123.079 41.4586 123.618 41.4324 124.161C41.4063 124.704 41.2333 125.229 40.9319 125.681L39.4464 127.907C39.3197 128.098 39.247 128.319 39.2362 128.548C39.2254 128.777 39.2767 129.004 39.3848 129.206C39.4929 129.408 39.6537 129.577 39.85 129.694C40.0464 129.812 40.271 129.875 40.5 129.875H44.0437C44.4464 129.876 44.8323 130.036 45.117 130.321C45.4017 130.605 45.5619 130.991 45.5625 131.394V133.672H48.0938V118.484C48.0938 118.149 47.9604 117.827 47.7231 117.589C47.4857 117.352 47.1638 117.219 46.8281 117.219Z" fill="#CD761F"/>
<path d="M51.8906 75.4531V79.0443C51.8906 79.8412 51.6399 80.6179 51.1739 81.2644C50.7079 81.9109 50.0504 82.3943 49.2944 82.6463C48.515 82.9061 47.6725 82.9061 46.8931 82.6463C46.1371 82.3943 45.4796 81.9109 45.0136 81.2644C44.5476 80.6179 44.2969 79.8412 44.2969 79.0443V72.9219H49.3594L51.8906 75.4531Z" fill="#744630"/>
<path d="M40.1297 81.411L37.5984 83.9423C37.3608 84.1794 37.0387 84.3126 36.703 84.3125H33.6291C33.9566 83.5484 34.1717 83.0468 34.1717 83.0468H30.5299C29.358 83.0479 28.2225 82.6407 27.3184 81.8951C27.4833 81.8201 27.6624 81.7812 27.8436 81.7812H36.1793L38.3388 79.6202C38.4564 79.5026 38.596 79.4093 38.7496 79.3457C38.9033 79.282 39.0679 79.2493 39.2342 79.2493C39.4005 79.2493 39.5652 79.282 39.7188 79.3457C39.8725 79.4093 40.0121 79.5026 40.1297 79.6202C40.2472 79.7378 40.3405 79.8774 40.4042 80.031C40.4678 80.1846 40.5006 80.3493 40.5006 80.5156C40.5006 80.6819 40.4678 80.8466 40.4042 81.0002C40.3405 81.1538 40.2472 81.2934 40.1297 81.411Z" fill="#D18D28"/>
<path d="M29.1096 72.9219V75.4531C29.1096 75.7888 28.9763 76.1107 28.7389 76.3481C28.5016 76.5854 28.1796 76.7188 27.844 76.7188H24.9963L24.8334 76.067C24.7401 75.6938 24.7331 75.3043 24.8129 74.928C24.8927 74.5518 25.0571 74.1987 25.2938 73.8955C25.5305 73.5923 25.8332 73.347 26.1788 73.1783C26.5245 73.0096 26.9041 72.9219 27.2887 72.9219H29.1096Z" fill="#D18D28"/>
<path d="M33.035 96.3736C32.8001 96.3734 32.5698 96.3078 32.37 96.1842C32.1703 96.0605 32.0089 95.8837 31.9039 95.6735C31.7989 95.4633 31.7545 95.228 31.7756 94.9941C31.7968 94.7601 31.8827 94.5366 32.0236 94.3486C33.5331 92.3372 34.7077 90.0952 35.5022 87.7091C35.6084 87.3907 35.8367 87.1274 36.1369 86.9773C36.4372 86.8272 36.7847 86.8025 37.1032 86.9086C37.4217 87.0148 37.6849 87.2431 37.835 87.5434C37.9852 87.8436 38.0099 88.1912 37.9037 88.5097C37.0231 91.1538 35.7213 93.6384 34.0485 95.8674C33.9306 96.0248 33.7776 96.1525 33.6017 96.2404C33.4257 96.3283 33.2317 96.3739 33.035 96.3736Z" fill="#D18D28"/>
<path d="M24.0469 114.687C23.7112 114.687 23.3893 114.554 23.1519 114.317C22.9146 114.079 22.7812 113.758 22.7812 113.422C22.7903 109.042 24.2105 104.781 26.8313 101.272C27.0327 101.003 27.3325 100.826 27.6648 100.778C27.9971 100.731 28.3346 100.817 28.6031 101.019C28.8717 101.22 29.0492 101.52 29.0967 101.852C29.1441 102.185 29.0577 102.522 28.8563 102.791C26.5631 105.861 25.3204 109.589 25.3125 113.422C25.3125 113.758 25.1792 114.079 24.9418 114.317C24.7045 114.554 24.3825 114.687 24.0469 114.687Z" fill="#D18D28"/>
<path d="M37.9688 75.4531C38.6677 75.4531 39.2344 74.8865 39.2344 74.1875C39.2344 73.4885 38.6677 72.9219 37.9688 72.9219C37.2698 72.9219 36.7031 73.4885 36.7031 74.1875C36.7031 74.8865 37.2698 75.4531 37.9688 75.4531Z" fill="#D18D28"/>
<path d="M43.0312 100.766C43.7302 100.766 44.2969 100.199 44.2969 99.5C44.2969 98.801 43.7302 98.2344 43.0312 98.2344C42.3323 98.2344 41.7656 98.801 41.7656 99.5C41.7656 100.199 42.3323 100.766 43.0312 100.766Z" fill="#CD761F"/>
<path d="M74.6719 76.7188H58.2188V60.2656C58.2188 59.93 58.0854 59.608 57.8481 59.3707C57.6107 59.1333 57.2888 59 56.9531 59H18.9844C18.6487 59 18.3268 59.1333 18.0894 59.3707C17.8521 59.608 17.7188 59.93 17.7188 60.2656V76.7188H1.26562C0.92996 76.7188 0.608044 76.8521 0.370693 77.0894C0.133342 77.3268 0 77.6487 0 77.9844V115.953C0 116.289 0.133342 116.611 0.370693 116.848C0.608044 117.085 0.92996 117.219 1.26562 117.219H17.7188V133.672C17.7188 134.008 17.8521 134.329 18.0894 134.567C18.3268 134.804 18.6487 134.938 18.9844 134.938H56.9531C57.2888 134.938 57.6107 134.804 57.8481 134.567C58.0854 134.329 58.2188 134.008 58.2188 133.672V117.219H74.6719C75.0075 117.219 75.3295 117.085 75.5668 116.848C75.8042 116.611 75.9375 116.289 75.9375 115.953V77.9844C75.9375 77.6487 75.8042 77.3268 75.5668 77.0894C75.3295 76.8521 75.0075 76.7188 74.6719 76.7188ZM17.7214 114.688H16.7505C16.0097 114.688 15.2888 114.447 14.6961 114.003C12.5245 112.373 11.0887 109.948 10.704 107.26C10.4474 105.429 10.9101 103.571 11.9951 102.074L13.0393 106.249C13.3306 107.419 13.9613 108.477 14.8521 109.29C15.743 110.103 16.8542 110.635 18.0462 110.818C17.8428 112.098 17.7342 113.391 17.7214 114.688ZM20.25 132.406V127.977C20.2482 128.725 20.3948 129.466 20.6812 130.158C20.9676 130.849 21.3882 131.477 21.9187 132.005C22.0607 132.146 22.2099 132.28 22.3658 132.406H20.25ZM29.1094 127.344V127.977C29.1094 128.816 28.776 129.621 28.1826 130.214C27.5893 130.807 26.7845 131.141 25.9453 131.141C25.1062 131.141 24.3014 130.807 23.708 130.214C23.1146 129.621 22.7812 128.816 22.7812 127.977V127.027C22.7825 126.536 22.8974 126.052 23.1169 125.613C23.3365 125.174 23.6548 124.792 24.0469 124.496C25.2259 123.612 26.1828 122.466 26.8419 121.147C27.5009 119.829 27.8439 118.376 27.8438 116.902V115.953C27.8438 115.617 27.7104 115.296 27.4731 115.058C27.2357 114.821 26.9138 114.688 26.5781 114.688C26.2425 114.688 25.9205 114.821 25.6832 115.058C25.4458 115.296 25.3125 115.617 25.3125 115.953V116.902C25.3127 117.983 25.0612 119.049 24.5779 120.016C24.0946 120.982 23.3928 121.823 22.5281 122.471C21.8224 123.003 21.2495 123.691 20.8543 124.482C20.459 125.272 20.2522 126.144 20.25 127.027V114.956C20.2499 113.254 20.4325 111.557 20.7949 109.894C20.7966 109.886 20.7985 109.878 20.8001 109.87C20.98 109.047 21.2035 108.233 21.4696 107.434L22.1597 105.365C23.2977 101.961 25.2096 98.8665 27.7452 96.3257L27.8387 96.2322C30.2167 93.8603 32.118 91.0546 33.4399 87.967L35.0061 84.3125H36.7031C36.8693 84.3125 37.0339 84.2798 37.1875 84.2162C37.341 84.1526 37.4806 84.0594 37.5981 83.9418L40.1293 81.4106C40.3667 81.1732 40.5 80.8513 40.5 80.5156C40.5 80.18 40.3667 79.858 40.1293 79.6207C39.892 79.3833 39.57 79.25 39.2344 79.25C38.8987 79.25 38.5768 79.3833 38.3394 79.6207L36.179 81.7812H30.53C29.6831 81.7822 28.8602 81.4994 28.1927 80.9781C27.5251 80.4568 27.0514 79.7269 26.8471 78.905L26.6169 77.9844H27.8438C28.5148 77.9836 29.1582 77.7166 29.6327 77.2421C30.1073 76.7676 30.3742 76.1242 30.375 75.4531V74.1875H31.6406C31.9063 74.1875 32.1652 74.104 32.3807 73.9486C32.5962 73.7933 32.7574 73.5741 32.8414 73.3221C33.5617 71.1593 35.0319 69.3254 36.9863 68.1521L37.5429 67.8198C38.7816 67.0772 40.1873 66.6582 41.6304 66.6014C43.0736 66.5447 44.5078 66.8519 45.8011 67.4949L45.8686 67.5295C47.6767 68.4275 49.1096 69.9352 49.9145 71.7866C49.7418 71.7015 49.5519 71.6569 49.3594 71.6562H44.2969C43.9612 71.6562 43.6393 71.7896 43.4019 72.0269C43.1646 72.2643 43.0312 72.5862 43.0312 72.9219V79.0443C43.0286 79.9339 43.261 80.8085 43.7048 81.5795C44.1486 82.3505 44.7882 82.9906 45.5587 83.4351C46.3293 83.8796 47.2036 84.1128 48.0932 84.111C48.9828 84.1092 49.8562 83.8726 50.625 83.425V94.3461C50.1085 93.6022 49.4768 92.9453 48.7536 92.4002L45.0562 89.6281C44.8682 89.4871 44.6446 89.4012 44.4105 89.3801C44.1764 89.359 43.9411 89.4035 43.7309 89.5086C43.5206 89.6137 43.3438 89.7753 43.2203 89.9752C43.0967 90.1752 43.0312 90.4056 43.0312 90.6406V93.4494L41.8447 93.7462C40.7429 94.0185 39.7282 94.5657 38.8954 95.3368C38.0626 96.1079 37.4389 97.0776 37.0828 98.1553L37.0564 98.2344H34.1719C33.8362 98.2344 33.5143 98.3677 33.2769 98.6051C33.0396 98.8424 32.9062 99.1643 32.9062 99.5V102.522C32.9078 103.734 33.3902 104.896 34.2474 105.753C35.1047 106.61 36.2669 107.092 37.4791 107.094H39.7178L38.5487 109.432C38.3651 109.8 38.0802 110.107 37.7275 110.319C33.9321 112.589 31.1455 116.222 29.9361 120.476L29.7479 121.134C29.3242 122.617 29.1093 124.152 29.1094 125.694C29.1098 126.029 29.1283 126.365 29.1649 126.698C29.1281 126.911 29.1096 127.127 29.1094 127.344ZM26.0244 75.4531C26.0244 75.4458 26.0244 75.4386 26.0244 75.4313C26.0254 75.378 26.0297 75.3248 26.0374 75.272C26.0396 75.2562 26.0417 75.2403 26.0445 75.2255C26.0552 75.1651 26.0702 75.1057 26.0894 75.0475C26.0917 75.0412 26.0947 75.035 26.097 75.0287C26.116 74.9762 26.1384 74.925 26.1643 74.8755C26.1719 74.8608 26.1801 74.8463 26.1877 74.8319C26.2184 74.7767 26.2531 74.7238 26.2915 74.6737C26.4094 74.5219 26.5606 74.3991 26.7333 74.3149C26.9061 74.2306 27.0959 74.1871 27.2881 74.1877H27.8438V75.4533L26.0244 75.4531ZM50.625 75.9773V79.0443C50.625 79.7157 50.3583 80.3595 49.8836 80.8342C49.4089 81.3089 48.7651 81.5756 48.0938 81.5756C47.4224 81.5756 46.7786 81.3089 46.3039 80.8342C45.8292 80.3595 45.5625 79.7157 45.5625 79.0443V74.1875H48.8353L50.625 75.9773ZM29.5196 132.406C30.0155 132.005 30.4412 131.524 30.7791 130.983C31.1395 131.498 31.5512 131.975 32.0077 132.406H29.5196ZM51.1085 132.406H48.0938V118.484C48.0938 118.149 47.9604 117.827 47.7231 117.589C47.4857 117.352 47.1638 117.219 46.8281 117.219C46.4925 117.219 46.1705 117.352 45.9332 117.589C45.6958 117.827 45.5625 118.149 45.5625 118.484V127.64C45.0802 127.444 44.5644 127.344 44.0438 127.344H42.8651L43.0377 127.085C43.5931 126.252 43.912 125.284 43.9603 124.283C44.0086 123.283 43.7846 122.289 43.3121 121.406C42.8396 120.523 42.1363 119.785 41.2773 119.271C40.4183 118.756 39.4358 118.484 38.4345 118.484H37.9688C37.6331 118.484 37.3112 118.618 37.0738 118.855C36.8365 119.092 36.7031 119.414 36.7031 119.75C36.7031 120.086 36.8365 120.408 37.0738 120.645C37.3112 120.882 37.6331 121.016 37.9688 121.016H38.4345C38.9776 121.016 39.5106 121.163 39.9765 121.442C40.4425 121.721 40.824 122.121 41.0803 122.6C41.3366 123.079 41.4581 123.619 41.4319 124.161C41.4057 124.704 41.2327 125.229 40.9314 125.681L39.447 127.907C39.3199 128.098 39.2469 128.319 39.2359 128.548C39.2248 128.777 39.276 129.005 39.3841 129.207C39.4922 129.409 39.6531 129.577 39.8496 129.695C40.0461 129.813 40.2709 129.875 40.5 129.875H44.0438C44.4464 129.876 44.8323 130.036 45.117 130.32C45.4017 130.605 45.5619 130.991 45.5625 131.394V132.406H38.3529C36.5733 132.404 34.8672 131.696 33.6088 130.438C32.3505 129.18 31.6426 127.474 31.6406 125.694C31.6406 124.387 31.8228 123.087 32.1818 121.83L32.3699 121.171C33.4038 117.535 35.7858 114.43 39.0303 112.489C39.796 112.031 40.4146 111.363 40.8134 110.564L42.8068 106.577L43.9273 105.457C44.1647 105.219 44.298 104.898 44.298 104.562C44.298 104.226 44.1647 103.904 43.9273 103.667C43.69 103.43 43.368 103.296 43.0324 103.296C42.6967 103.296 42.3748 103.43 42.1374 103.667L41.2415 104.562H37.4791C36.938 104.562 36.4191 104.347 36.0364 103.964C35.6537 103.582 35.4383 103.063 35.4375 102.522V100.766H37.9688C38.2344 100.766 38.4933 100.682 38.7088 100.527C38.9243 100.371 39.0855 100.152 39.1695 99.9003L39.4843 98.9559C39.7068 98.2828 40.0963 97.6771 40.6164 97.1954C41.1366 96.7137 41.7704 96.3718 42.4586 96.2016L44.604 95.6653C44.8778 95.5968 45.1208 95.4388 45.2945 95.2163C45.4682 94.9939 45.5625 94.7197 45.5625 94.4375V93.1719L47.2349 94.4263C47.9749 94.9826 48.576 95.7028 48.9909 96.5304C50.063 98.681 50.6223 101.051 50.625 103.454V129.875C50.625 130.041 50.6577 130.206 50.7213 130.359C50.7849 130.513 50.8781 130.652 50.9957 130.77L51.6163 131.391L51.1085 132.406ZM73.4062 114.688H56.9531C56.6175 114.688 56.2955 114.821 56.0582 115.058C55.8208 115.296 55.6875 115.617 55.6875 115.953V132.406H53.9384L54.2882 131.707C54.407 131.469 54.448 131.2 54.4054 130.938C54.3628 130.676 54.2388 130.433 54.0509 130.246L53.1562 129.351V75.2237C53.1635 73.1571 52.5921 71.1297 51.5066 69.371C50.4211 67.6123 48.865 66.1927 47.0143 65.2728L46.9454 65.2375C45.2706 64.4007 43.4119 63.9997 41.5412 64.0716C39.6704 64.1435 37.848 64.6859 36.2424 65.6488L35.6865 65.981C33.4847 67.3017 31.7609 69.2896 30.7653 71.6562H27.2885C26.7115 71.6563 26.1421 71.7879 25.6236 72.0409C25.1051 72.2939 24.6511 72.6618 24.2961 73.1166C23.941 73.5714 23.6943 74.1011 23.5746 74.6655C23.4549 75.2299 23.4654 75.8141 23.6053 76.3739L24.3914 79.5188C24.7321 80.8887 25.5216 82.105 26.6342 82.9738C27.7467 83.8426 29.1181 84.3139 30.5297 84.3123H32.2521L31.113 86.9702C29.918 89.7617 28.1987 92.2983 26.0485 94.4424L25.955 94.5359C23.1419 97.3554 21.0208 100.789 19.7581 104.566L19.0681 106.634C18.8811 107.196 18.7137 107.762 18.5661 108.333C17.8404 108.249 17.1576 107.946 16.6087 107.464C16.0598 106.982 15.671 106.344 15.4943 105.635L13.8841 99.1931C13.8298 98.9758 13.7188 98.7768 13.5624 98.6165C13.406 98.4561 13.2099 98.3401 12.9941 98.2803C12.7782 98.2205 12.5504 98.2191 12.3338 98.2761C12.1172 98.3332 11.9197 98.4467 11.7613 98.605L10.9228 99.4435C9.86849 100.503 9.07384 101.792 8.60112 103.21C8.12839 104.628 7.99045 106.137 8.19809 107.617C8.57771 110.28 9.78987 112.755 11.6612 114.688H2.53125V79.25H18.9844C19.32 79.25 19.642 79.1167 19.8793 78.8793C20.1167 78.642 20.25 78.32 20.25 77.9844V61.5312H55.6875V77.9844C55.6875 78.32 55.8208 78.642 56.0582 78.8793C56.2955 79.1167 56.6175 79.25 56.9531 79.25H73.4062V114.688Z" fill="black"/>
<path d="M32.2767 96.1205C32.4096 96.2202 32.5609 96.2928 32.7219 96.334C32.8829 96.3753 33.0505 96.3844 33.215 96.3609C33.3796 96.3374 33.5378 96.2817 33.6809 96.197C33.8239 96.1124 33.9488 96.0003 34.0485 95.8674C35.7214 93.6384 37.0232 91.1538 37.9038 88.5097C38.0099 88.1912 37.9852 87.8436 37.8351 87.5434C37.685 87.2431 37.4217 87.0148 37.1033 86.9086C36.7848 86.8025 36.4372 86.8272 36.137 86.9773C35.8367 87.1274 35.6084 87.3907 35.5023 87.7092C34.7078 90.0952 33.5331 92.3372 32.0237 94.3486C31.8223 94.6171 31.7358 94.9547 31.7832 95.287C31.8307 95.6192 32.0082 95.9191 32.2767 96.1205Z" fill="black"/>
<path d="M28.6031 101.019C28.3346 100.817 27.9971 100.731 27.6648 100.778C27.3325 100.826 27.0327 101.003 26.8313 101.272C24.2105 104.781 22.7903 109.042 22.7812 113.422C22.7812 113.758 22.9146 114.079 23.1519 114.317C23.3893 114.554 23.7112 114.687 24.0469 114.687C24.3825 114.687 24.7045 114.554 24.9418 114.317C25.1792 114.079 25.3125 113.758 25.3125 113.422C25.3204 109.589 26.5631 105.861 28.8563 102.791C29.0577 102.522 29.1441 102.185 29.0967 101.852C29.0492 101.52 28.8717 101.22 28.6031 101.019Z" fill="black"/>
<path d="M37.9688 75.4531C38.6677 75.4531 39.2344 74.8865 39.2344 74.1875C39.2344 73.4885 38.6677 72.9219 37.9688 72.9219C37.2698 72.9219 36.7031 73.4885 36.7031 74.1875C36.7031 74.8865 37.2698 75.4531 37.9688 75.4531Z" fill="black"/>
<path d="M43.0312 100.766C43.7302 100.766 44.2969 100.199 44.2969 99.5C44.2969 98.801 43.7302 98.2344 43.0312 98.2344C42.3323 98.2344 41.7656 98.801 41.7656 99.5C41.7656 100.199 42.3323 100.766 43.0312 100.766Z" fill="black"/>
</svg>
