<svg width="253" height="138" viewBox="0 0 253 138" fill="none" xmlns="http://www.w3.org/2000/svg">
<g opacity="0.05">
<path d="M195.034 80.9799C194.948 71.9945 190.353 63.7782 182.743 59.0021C175.132 54.226 165.736 53.6619 157.608 57.4924L138.02 66.7213C134.771 68.2522 132.156 70.7364 130.459 73.9028C128.761 77.0699 128.142 80.6224 128.667 84.1781C129.194 87.7325 130.816 90.9541 133.358 93.4947C135.899 96.0352 139.123 97.6546 142.679 98.1786L142.918 98.2129C151.827 99.5929 159.823 104.65 164.887 112.116C166.194 114.041 167.854 115.642 169.783 116.853C170.832 117.511 171.961 118.054 173.156 118.472C176.549 119.657 180.155 119.716 183.586 118.645C187.016 117.573 189.947 115.471 192.062 112.565C194.176 109.659 195.276 106.224 195.242 102.631L195.034 80.9799Z" fill="#949494"/>
<path d="M150.388 52.9339C154.042 53.6507 157.768 52.6818 160.879 50.2051C163.841 47.8486 165.896 44.3802 166.667 40.4375C167.435 36.4964 166.837 32.5098 164.982 29.211C163.032 25.7464 159.947 23.4448 156.296 22.7331C148.955 21.2955 141.655 26.9005 140.021 35.2316C138.728 41.8674 141.416 48.2553 146.273 51.3037C147.513 52.0821 148.895 52.6426 150.388 52.9339Z" fill="#949494"/>
<path d="M177.184 52.8892C184.577 57.5289 194.893 54.4509 200.179 46.0278C205.467 37.6025 203.753 26.9736 196.36 22.3338C188.967 17.6945 178.652 20.7743 173.364 29.1996C168.078 37.6228 169.792 48.2499 177.184 52.8892Z" fill="#949494"/>
<path d="M197.985 71.1741L197.986 71.1745C198.886 72.2657 199.933 73.1742 201.088 73.8993C206.48 77.2829 214.197 76.6561 219.987 71.8834C223.32 69.1364 225.548 65.4179 226.259 61.4137C227.005 57.2222 226.021 53.2229 223.489 50.1517C220.957 47.08 217.218 45.3519 212.961 45.284C208.895 45.219 204.82 46.6971 201.488 49.445C194.458 55.2411 192.887 64.9888 197.985 71.1741Z" fill="#949494"/>
<path d="M227.34 87.1113L227.339 87.1079C224.604 80.142 215.955 76.9892 208.055 80.0808C200.159 83.1779 195.952 91.3641 198.677 98.328C199.671 100.869 201.452 102.903 203.697 104.312C207.611 106.768 212.935 107.325 217.962 105.36C225.858 102.263 230.065 94.077 227.34 87.1113Z" fill="#949494"/>
</g>
<path d="M74.6719 121.752V135.674H21.5156L19.6868 132.931C19.5945 132.793 19.5303 132.638 19.498 132.474C19.4657 132.311 19.4658 132.143 19.4985 131.98C19.5311 131.817 19.5955 131.662 19.6881 131.524C19.7807 131.386 19.8996 131.267 20.038 131.175L22.7813 129.346V124.284L18.7692 114.255L17.7188 111.627L16.2949 108.78L14.0959 104.383C12.3173 100.824 11.3911 96.9002 11.3906 92.9215V84.4956L5.14477 82.711C4.36936 82.4897 3.67619 82.0451 3.15156 81.4327C2.62694 80.8203 2.29402 80.0671 2.19428 79.2669L1.87945 76.7483L1.26562 71.8393H10.125L11.7624 68.5645C12.7751 66.5395 14.3682 64.8622 16.3384 63.7466C18.3086 62.631 20.5665 62.1278 22.824 62.3012L27.6476 62.673C28.8915 62.7686 30.0974 63.1459 31.174 63.7763C32.2506 64.4067 33.1697 65.2737 33.8618 66.3117L39.2344 74.3705L42.6658 79.9788C46.2537 85.839 50.8981 90.9823 56.3631 95.1474L64.6055 101.426C67.7347 103.811 70.2712 106.886 72.0172 110.411C73.7633 113.937 74.6718 117.818 74.6719 121.752Z" fill="#F3AF3E"/>
<path d="M24.8587 70.994L23.7566 78.1573C23.4734 79.9982 23.7818 81.8816 24.6374 83.5361C25.4929 85.1906 26.8516 86.5309 28.5176 87.3639C29.7392 87.9747 31.0863 88.2927 32.4521 88.2927H34.1721V71.3561C34.1721 70.8417 34.0523 70.3344 33.8223 69.8744C33.5472 69.3239 33.1242 68.861 32.6007 68.5374C32.0773 68.2138 31.4741 68.0424 30.8587 68.0424H28.2986C27.4672 68.0424 26.6633 68.34 26.0323 68.8814C25.4013 69.4228 24.985 70.1722 24.8587 70.994Z" fill="#C38325"/>
<path d="M60.6314 128.617C60.529 128.835 60.3668 129.019 60.1638 129.148C59.9607 129.277 59.7251 129.346 59.4844 129.346H49.092C48.1563 129.347 47.2592 129.72 46.5976 130.381C45.9359 131.043 45.5637 131.94 45.5625 132.876V135.674H43.0312V132.876C43.0328 131.269 43.6718 129.728 44.8081 128.592C45.9444 127.455 47.4851 126.816 49.092 126.815H56.787C53.6208 122.865 51.8939 117.955 51.8906 112.893C51.8906 112.557 52.024 112.235 52.2613 111.998C52.4987 111.761 52.8206 111.627 53.1563 111.627C53.4919 111.627 53.8138 111.761 54.0512 111.998C54.2885 112.235 54.4219 112.557 54.4219 112.893C54.4248 117.503 56.0406 121.966 58.9892 125.51L60.4573 127.271C60.6109 127.455 60.7088 127.68 60.7396 127.918C60.7704 128.157 60.7329 128.399 60.6314 128.617Z" fill="#C38325"/>
<path d="M68.3438 93.9087C68.3438 94.3342 68.3311 94.7551 68.3042 95.1743C68.2773 95.5999 68.2373 96.0218 68.184 96.4399C67.9101 98.6582 67.2662 100.815 66.2792 102.82C64.9926 105.442 63.1549 107.755 60.8919 109.601C58.629 111.447 55.9941 112.783 53.1673 113.516C53.1639 113.518 53.1601 113.519 53.1563 113.52C50.3709 114.239 47.4643 114.356 44.63 113.864C41.7957 113.372 39.0988 112.282 36.719 110.666C34.3391 109.05 32.3309 106.945 30.8281 104.492C29.3253 102.039 28.3624 99.2942 28.0035 96.4399C27.9497 96.0223 27.9097 95.6004 27.8833 95.1743C27.8564 94.7551 27.8438 94.3342 27.8438 93.9087C27.8441 89.5407 29.2567 85.2899 31.8708 81.7905C34.4849 78.291 38.1603 75.7306 42.3488 74.4911C46.5372 73.2517 51.0142 73.3997 55.1117 74.913C59.2091 76.4263 62.7075 79.2238 65.0848 82.8882C65.3759 83.336 65.6496 83.7958 65.9059 84.2678C67.5109 87.2274 68.349 90.5419 68.3438 93.9087Z" fill="#C0F5F9"/>
<path d="M6.32813 71.8393V72.9182C6.32827 73.6945 6.06896 74.4485 5.59141 75.0605C5.11386 75.6725 4.44547 76.1073 3.69246 76.2958L1.87945 76.7483L1.26562 71.8393H6.32813Z" fill="#C38325"/>
<path d="M17.7188 73.1052C19.1167 73.1052 20.25 71.9719 20.25 70.574C20.25 69.176 19.1167 68.0427 17.7188 68.0427C16.3208 68.0427 15.1875 69.176 15.1875 70.574C15.1875 71.9719 16.3208 73.1052 17.7188 73.1052Z" fill="#C38325"/>
<path d="M44.2969 120.487H51.8906V135.674H44.2969V120.487Z" fill="#428DC5"/>
<path d="M68.3042 95.1742C68.2773 95.5998 68.2373 96.0217 68.184 96.4399C67.9101 98.6581 67.2662 100.815 66.2792 102.82C64.9926 105.442 63.1549 107.755 60.8919 109.601C58.629 111.447 55.9941 112.782 53.1673 113.516C53.1639 113.518 53.1601 113.519 53.1563 113.519C50.3709 114.239 47.4643 114.356 44.63 113.864C41.7957 113.372 39.0988 112.282 36.719 110.666C34.3391 109.05 32.3309 106.945 30.8281 104.492C29.3253 102.039 28.3624 99.2941 28.0035 96.4399C27.9497 96.0222 27.9097 95.6003 27.8833 95.1742H68.3042Z" fill="#EEB58E"/>
<path d="M40.5 98.9711H43.0313V101.502H40.5V98.9711Z" fill="#F55648"/>
<path d="M40.5 105.299H43.0313V107.831H40.5V105.299Z" fill="#B94137"/>
<path d="M51.8906 105.299H54.4219V107.831H51.8906V105.299Z" fill="#F55648"/>
<path d="M56.9531 105.299H59.4844V107.831H56.9531V105.299Z" fill="#F55648"/>
<path d="M54.4219 101.502H56.9531V104.034H54.4219V101.502Z" fill="#B94137"/>
<path d="M30.0048 130.242L28.206 132.039L30.163 134.972C30.3016 135.18 30.3754 135.424 30.375 135.674H27.5875L26.1004 133.442C25.7774 132.955 25.6326 132.371 25.6902 131.789C25.7479 131.208 26.0045 130.664 26.4168 130.249L27.8438 128.822V122.32L18.7692 114.255L17.7188 111.627L16.2949 108.78C16.4392 108.834 16.5723 108.914 16.6873 109.017L29.9494 120.806C30.0832 120.925 30.1903 121.071 30.2637 121.234C30.3371 121.397 30.375 121.574 30.375 121.752V129.346C30.3751 129.682 30.242 130.004 30.0048 130.242Z" fill="#C38325"/>
<path d="M37.969 119.221V135.674H35.4377V119.604L33.1184 116.127C32.9321 115.847 32.8645 115.505 32.9304 115.176C32.9962 114.847 33.1902 114.557 33.4697 114.371C33.7491 114.184 34.0911 114.117 34.4204 114.183C34.7497 114.248 35.0394 114.442 35.2257 114.722L37.757 118.519C37.8949 118.727 37.9686 118.971 37.969 119.221Z" fill="#C38325"/>
<path d="M68.3042 95.1742C68.2773 95.5998 68.2373 96.0217 68.184 96.4399H28.0035L27.8833 95.1742H68.3042Z" fill="#BD9070"/>
<path d="M54.3194 79.9868C50.173 85.7919 47.6179 92.581 46.908 99.6794L46.8402 100.357C46.8044 100.715 46.8486 101.077 46.9695 101.415C47.0905 101.754 47.2852 102.062 47.5396 102.316C47.7651 102.542 48.0328 102.721 48.3275 102.843C48.6222 102.965 48.938 103.028 49.257 103.028C49.5759 103.028 49.8917 102.965 50.1864 102.843C50.4811 102.721 50.7488 102.542 50.9743 102.316L51.0769 102.214C51.3025 101.988 51.4815 101.721 51.6036 101.426C51.7258 101.131 51.7887 100.815 51.7888 100.496V95.1442C51.7888 91.8019 52.1987 88.4722 53.0093 85.2296L54.3194 79.9868Z" fill="#744630"/>
<path d="M65.9057 84.2677L65.6652 85.2296C64.8539 88.472 64.4437 91.8018 64.4439 95.1442V100.496C64.4435 101.14 64.1881 101.758 63.7336 102.214L63.6307 102.316C63.2765 102.67 62.8214 102.906 62.3279 102.991C61.8343 103.077 61.3263 103.008 60.8736 102.793C60.4209 102.579 60.0456 102.229 59.7992 101.793C59.5527 101.357 59.4471 100.855 59.4969 100.357L59.5633 99.6799C60.1563 93.7468 62.0409 88.0154 65.0846 82.8882C65.3757 83.3359 65.6494 83.7957 65.9057 84.2677Z" fill="#744630"/>
<path d="M39.1319 79.9868C34.9855 85.7919 32.4304 92.581 31.7205 99.6794L31.6527 100.357C31.6169 100.715 31.6611 101.077 31.782 101.415C31.903 101.754 32.0977 102.062 32.3521 102.316C32.5776 102.542 32.8453 102.721 33.14 102.843C33.4347 102.965 33.7505 103.028 34.0695 103.028C34.3884 103.028 34.7042 102.965 34.9989 102.843C35.2936 102.721 35.5613 102.542 35.7868 102.316L35.8894 102.214C36.115 101.988 36.294 101.721 36.4161 101.426C36.5383 101.131 36.6012 100.815 36.6013 100.496V95.1442C36.6013 91.8019 37.0112 88.4722 37.8218 85.2296L39.1319 79.9868Z" fill="#744630"/>
<path d="M69.6094 93.9086C69.6094 82.0448 59.9574 72.393 48.0938 72.393C36.2301 72.393 26.5781 82.0448 26.5781 93.9086C26.5781 104.029 33.6023 112.538 43.0313 114.821V120.487H53.1563V114.821C62.5852 112.538 69.6094 104.029 69.6094 93.9086ZM48.0938 112.893C44.339 112.893 40.6686 111.78 37.5466 109.694C34.4246 107.608 31.9914 104.643 30.5545 101.174C29.1176 97.7047 28.7416 93.8876 29.4742 90.205C30.2067 86.5223 32.0148 83.1396 34.6698 80.4846C37.3248 77.8296 40.7075 76.0215 44.3901 75.289C48.0727 74.5565 51.8898 74.9325 55.3588 76.3693C58.8277 77.8062 61.7927 80.2395 63.8787 83.3615C65.9647 86.4834 67.0782 90.1539 67.0782 93.9086C67.0725 98.9419 65.0705 103.767 61.5115 107.326C57.9524 110.885 53.127 112.887 48.0938 112.893Z" fill="#428DC5"/>
<path d="M44.2969 120.487H51.8906V123.018H44.2969V120.487Z" fill="#3775A4"/>
<path d="M17.7188 73.1052C19.1167 73.1052 20.25 71.9719 20.25 70.574C20.25 69.176 19.1167 68.0427 17.7188 68.0427C16.3208 68.0427 15.1875 69.176 15.1875 70.574C15.1875 71.9719 16.3208 73.1052 17.7188 73.1052Z" fill="black"/>
<path d="M40.5 98.9711H43.0313V101.502H40.5V98.9711Z" fill="black"/>
<path d="M40.5 105.299H43.0313V107.831H40.5V105.299Z" fill="black"/>
<path d="M51.8906 105.299H54.4219V107.831H51.8906V105.299Z" fill="black"/>
<path d="M56.9531 105.299H59.4844V107.831H56.9531V105.299Z" fill="black"/>
<path d="M54.4219 101.502H56.9531V104.034H54.4219V101.502Z" fill="black"/>
<path d="M0.93858 79.4238C1.06798 80.4707 1.50297 81.4563 2.18922 82.2574C2.87547 83.0585 3.78255 83.6397 4.79716 83.9283L10.1251 85.4506V92.9209C10.1301 97.0956 11.1019 101.212 12.9644 104.948L16.5632 112.147L21.5158 124.527V128.669L19.3356 130.122C19.059 130.307 18.8214 130.544 18.6364 130.82C18.4515 131.096 18.3227 131.406 18.2575 131.732C18.1923 132.058 18.192 132.394 18.2565 132.72C18.321 133.046 18.4491 133.356 18.6335 133.632L20.4628 136.376C20.5783 136.55 20.7349 136.692 20.9186 136.79C21.1023 136.888 21.3074 136.94 21.5158 136.94H74.6721C75.0077 136.94 75.3296 136.807 75.567 136.569C75.8043 136.332 75.9377 136.01 75.9377 135.674V121.752C75.935 118.166 75.2143 114.617 73.8181 111.315C72.4219 108.012 70.3785 105.022 67.8084 102.521C68.7752 100.318 69.3628 97.9674 69.5463 95.5686C69.6147 95.3613 69.628 95.1398 69.585 94.9258C69.6008 94.5887 69.6097 94.2497 69.6097 93.9086C69.6138 90.5025 68.8043 87.1447 67.2485 84.1147L68.2038 80.2936C68.2751 80.0078 68.2445 79.706 68.1172 79.4403C67.9899 79.1745 67.7739 78.9616 67.5064 78.838C67.239 78.7145 66.9368 78.6882 66.6519 78.7636C66.3671 78.839 66.1175 79.0114 65.9462 79.2511C65.6236 79.7028 65.3107 80.1605 65.0076 80.6241C62.1701 77.0059 58.2473 74.3929 53.8152 73.1687C49.383 71.9446 44.6752 72.1738 40.3829 73.8228L40.3139 73.7102C40.3056 73.6962 40.2967 73.6823 40.2875 73.6687L34.9156 65.61C34.1203 64.4091 33.0606 63.4064 31.8178 62.6786C30.5749 61.9508 29.1819 61.5172 27.7455 61.4113L22.9216 61.0397C20.4122 60.8402 17.9006 61.3964 15.7101 62.6367C13.5196 63.8769 11.7504 65.7445 10.6304 67.9989L9.34297 70.5736H1.26574C1.08617 70.5736 0.908654 70.6118 0.74498 70.6857C0.581307 70.7595 0.435227 70.8674 0.316446 71.0021C0.197664 71.1367 0.108901 71.2951 0.0560521 71.4668C0.00320362 71.6384 -0.0125197 71.8193 0.00992674 71.9974L0.93858 79.4238ZM27.8439 128.822L26.4169 130.249C26.0043 130.663 25.7475 131.208 25.6898 131.789C25.6322 132.371 25.7772 132.955 26.1005 133.443L26.7447 134.409H22.193L20.7396 132.228L23.4835 130.399C23.6568 130.284 23.799 130.127 23.8973 129.943C23.9956 129.76 24.047 129.554 24.047 129.346V124.284C24.047 124.123 24.0163 123.963 23.9565 123.814L20.8852 116.135L27.8439 122.321V128.822ZM50.6252 134.409H45.5627V121.752H50.6252V134.409ZM51.8908 119.221H44.297V115.089C46.8085 115.536 49.3793 115.536 51.8908 115.089V119.221ZM66.2792 88.4571C66.8102 90.2255 67.0794 92.0622 67.0783 93.9086H65.7298C65.7871 92.0809 65.9706 90.2594 66.2792 88.4571ZM65.7097 100.496V96.4398H66.9085C66.6941 98.0427 66.2741 99.6113 65.6587 101.107C65.6927 100.905 65.7099 100.701 65.7103 100.496H65.7097ZM66.5912 104.885C70.9588 109.415 73.4016 115.46 73.4064 121.752V134.409H53.1564V129.346H59.4845C59.7251 129.346 59.9607 129.278 60.1637 129.149C60.3667 129.019 60.5287 128.835 60.6308 128.617C60.7328 128.399 60.7707 128.157 60.7399 127.918C60.709 127.68 60.6109 127.455 60.4569 127.27L58.99 125.51C56.3743 122.384 54.8003 118.519 54.4877 114.454C59.5621 112.862 63.8715 109.455 66.5918 104.885H66.5912ZM53.1564 126.815V121.752C53.3356 121.752 53.5126 121.714 53.6758 121.64C54.4725 123.499 55.5193 125.24 56.787 126.815H53.1564ZM64.628 103.109C64.6858 103.051 64.7408 102.991 64.7942 102.93C63.1894 105.903 60.82 108.394 57.9307 110.145C55.0415 111.896 51.7371 112.844 48.359 112.891C44.9808 112.938 41.6513 112.083 38.7144 110.413C35.7775 108.743 33.3396 106.319 31.6526 103.392C32.3585 104.003 33.2698 104.324 34.203 104.291C35.1363 104.257 36.0221 103.871 36.6822 103.211L36.7843 103.109C37.1284 102.766 37.4013 102.359 37.5871 101.911C37.7729 101.463 37.8678 100.982 37.8665 100.496V96.4398H46.0798C45.8982 97.4704 45.7546 98.5082 45.6489 99.5533L45.581 100.231C45.5051 100.99 45.6656 101.753 46.0405 102.416C46.4154 103.08 46.9864 103.611 47.6751 103.938C48.3639 104.264 49.1367 104.369 49.8876 104.239C50.6386 104.109 51.3309 103.75 51.8697 103.211L51.9718 103.109C52.316 102.767 52.5888 102.36 52.7746 101.911C52.9604 101.463 53.0554 100.982 53.0541 100.496V96.4398H58.7361C58.5545 97.4704 58.4108 98.5082 58.3051 99.5533L58.2373 100.231C58.1614 100.99 58.3219 101.753 58.6968 102.416C59.0717 103.08 59.6426 103.611 60.3314 103.938C61.0201 104.264 61.7929 104.369 62.5439 104.239C63.2948 104.109 63.9872 103.75 64.526 103.211L64.628 103.109ZM32.9121 100.483L32.98 99.8047C33.3736 95.8812 34.3504 92.0384 35.8781 88.4031C35.517 90.6321 35.3355 92.8866 35.3353 95.1446V100.497C35.3357 100.65 35.3057 100.801 35.2472 100.942C35.1886 101.084 35.1025 101.212 34.994 101.319L34.892 101.422C34.7223 101.591 34.5044 101.704 34.268 101.745C34.0316 101.786 33.7883 101.753 33.5715 101.65C33.3547 101.547 33.175 101.38 33.0569 101.171C32.9389 100.962 32.8883 100.722 32.9121 100.484V100.483ZM48.0996 100.483L48.1675 99.8047C48.5611 95.8812 49.5379 92.0384 51.0656 88.4031C50.7045 90.6321 50.523 92.8866 50.5228 95.1446V100.497C50.5232 100.65 50.4932 100.801 50.4347 100.942C50.3761 101.084 50.2901 101.212 50.1816 101.319L50.0795 101.422C49.9098 101.591 49.6919 101.704 49.4555 101.745C49.2191 101.786 48.9758 101.753 48.759 101.65C48.5422 101.547 48.3625 101.38 48.2444 101.171C48.1264 100.962 48.0758 100.722 48.0996 100.484V100.483ZM63.1791 95.1435V100.496C63.1795 100.649 63.1495 100.8 63.0909 100.941C63.0324 101.082 62.9463 101.211 62.8378 101.318L62.7358 101.421C62.5661 101.59 62.3481 101.703 62.1117 101.744C61.8753 101.785 61.6321 101.752 61.4153 101.649C61.1985 101.546 61.0187 101.379 60.9007 101.17C60.7826 100.961 60.7321 100.721 60.7559 100.482L60.8237 99.8045C61.2174 95.8811 62.1942 92.0383 63.7219 88.4031C63.3608 90.632 63.1792 92.8862 63.1791 95.1442V95.1435ZM38.0553 74.8834C37.1447 75.3659 36.27 75.913 35.4376 76.5206V71.3561C35.4376 71.2116 35.4289 71.0672 35.415 70.9232L38.0553 74.8834ZM48.0939 74.9242C51.1301 74.9247 54.1219 75.6538 56.8179 77.0504C59.5139 78.4469 61.8354 80.47 63.5874 82.9497C61.6412 86.3828 60.1857 90.0716 59.2631 93.9086H53.0735C53.1619 91.0845 53.5518 88.2779 54.2366 85.5366L55.5473 80.2936C55.6187 80.0078 55.5881 79.706 55.4608 79.4403C55.3335 79.1745 55.1175 78.9616 54.85 78.838C54.5825 78.7145 54.2803 78.6882 53.9955 78.7636C53.7107 78.839 53.4611 79.0114 53.2898 79.2511C50.1418 83.6626 47.8728 88.639 46.6068 93.9086H37.886C37.9744 91.0845 38.3643 88.2779 39.0491 85.5366L40.3598 80.2936C40.4312 80.0078 40.4006 79.706 40.2733 79.4403C40.146 79.1745 39.93 78.9616 39.6625 78.838C39.395 78.7145 39.0928 78.6882 38.808 78.7636C38.5232 78.839 38.2736 79.0114 38.1023 79.2511C34.9543 83.6626 32.6853 88.639 31.4193 93.9086H29.1095C29.1152 88.8754 31.1172 84.0499 34.6762 80.4909C38.2352 76.9319 43.0607 74.9299 48.0939 74.9242ZM30.3785 100.732C29.8442 99.3494 29.4751 97.9088 29.2786 96.4398H30.8923C30.7107 97.4704 30.567 98.5082 30.4614 99.5533L30.3935 100.231C30.3773 100.398 30.3723 100.565 30.3785 100.732ZM28.2017 85.7137C27.027 84.9145 26.1031 83.7984 25.5377 82.4949C24.9722 81.1914 24.7884 79.7542 25.0075 78.3504L26.1095 71.1873C26.1874 70.6631 26.4516 70.1846 26.8536 69.8395C27.2557 69.4943 27.7687 69.3056 28.2986 69.308H30.8586C31.2392 69.3067 31.6125 69.4121 31.9363 69.6122C32.26 69.8123 32.5212 70.0991 32.6903 70.4401C32.8321 70.7246 32.906 71.0382 32.9064 71.3561V78.6831C30.8899 80.6935 29.291 83.0829 28.2017 85.7137ZM7.58596 73.1049H10.1251C10.3602 73.1049 10.5905 73.0394 10.7905 72.9158C10.9904 72.7923 11.152 72.6155 11.2571 72.4053L12.8945 69.1305C13.7904 67.3271 15.2056 65.8331 16.9579 64.8409C18.7102 63.8487 20.7194 63.4037 22.7268 63.5632L27.5509 63.9349C28.6043 64.0126 29.6259 64.3305 30.5373 64.8642C31.4487 65.398 32.2258 66.1334 32.8089 67.014L33.0035 67.3059C32.3424 66.9572 31.6061 66.7755 30.8586 66.7767H28.2986C27.1634 66.7715 26.0644 67.1754 25.2028 67.9146C24.3413 68.6538 23.775 69.6787 23.6077 70.8014L22.5056 77.9649C22.1948 79.9565 22.4914 81.9956 23.3566 83.8162C24.2218 85.6368 25.6156 87.1545 27.3562 88.1712C26.839 90.0398 26.5773 91.9698 26.5783 93.9086C26.5783 94.2497 26.5871 94.5889 26.6029 94.9258C26.5599 95.1398 26.5733 95.3613 26.6417 95.5686C26.9814 99.8715 28.6044 103.973 31.3007 107.344C33.997 110.714 37.6426 113.198 41.7659 114.474V120.487C41.7659 120.822 41.8993 121.144 42.1366 121.382C42.374 121.619 42.6959 121.752 43.0316 121.752V134.409H37.9689V119.221C37.9689 118.971 37.8949 118.727 37.7563 118.519L35.225 114.722C35.1332 114.583 35.0149 114.463 34.8766 114.37C34.7384 114.276 34.5832 114.211 34.4197 114.178C34.2563 114.145 34.0879 114.145 33.9242 114.177C33.7606 114.209 33.6049 114.273 33.4662 114.366C33.3274 114.458 33.2083 114.577 33.1157 114.716C33.0231 114.855 32.9588 115.01 32.9266 115.174C32.8943 115.337 32.8947 115.506 32.9277 115.669C32.9608 115.833 33.0258 115.988 33.119 116.126L35.4376 119.604V134.409H29.7868L28.2078 132.039L30.0053 130.241C30.2423 130.004 30.3754 129.682 30.3751 129.346V121.752C30.3751 121.574 30.3372 121.397 30.264 121.234C30.1908 121.071 30.0838 120.925 29.9502 120.806L18.7418 110.843L15.2284 103.817C13.5413 100.432 12.6609 96.7027 12.6564 92.9209V84.4955C12.6564 84.2205 12.5669 83.953 12.4013 83.7335C12.2357 83.5139 12.0032 83.3542 11.7388 83.2786L5.49214 81.4942C4.95518 81.3415 4.47514 81.0339 4.11201 80.6098C3.74887 80.1858 3.51874 79.6642 3.45037 79.1101L3.27493 77.7049L4.00013 77.524C4.99589 77.2753 5.88394 76.7099 6.53063 75.9129C7.17733 75.1159 7.54769 74.1305 7.58596 73.1049ZM5.05471 73.1049C5.01651 73.5655 4.83499 74.0025 4.53563 74.3547C4.23627 74.7068 3.83412 74.9563 3.38567 75.0682L2.95852 75.175L2.69938 73.1049H5.05471Z" fill="black"/>
</svg>
