<svg width="252" height="138" viewBox="0 0 252 138" fill="none" xmlns="http://www.w3.org/2000/svg">
<g opacity="0.05">
<path d="M194.034 80.9799C193.948 71.9944 189.353 63.7781 181.743 59.0021C174.132 54.226 164.736 53.6619 156.608 57.4924L137.02 66.7213C133.771 68.2522 131.156 70.7364 129.459 73.9028C127.761 77.0698 127.142 80.6224 127.667 84.178C128.194 87.7325 129.816 90.9541 132.358 93.4946C134.899 96.0352 138.123 97.6546 141.679 98.1786L141.918 98.2129C150.827 99.5929 158.823 104.65 163.887 112.116C165.194 114.041 166.854 115.642 168.783 116.853C169.832 117.511 170.961 118.054 172.156 118.472C175.549 119.657 179.155 119.716 182.586 118.645C186.016 117.573 188.947 115.471 191.062 112.565C193.176 109.659 194.276 106.224 194.242 102.631L194.034 80.9799Z" fill="#78C0DE"/>
<path d="M149.388 52.9338C153.042 53.6507 156.768 52.6818 159.879 50.2051C162.841 47.8486 164.896 44.3802 165.667 40.4375C166.435 36.4964 165.837 32.5098 163.982 29.211C162.032 25.7463 158.947 23.4448 155.296 22.7331C147.955 21.2954 140.655 26.9005 139.021 35.2316C137.728 41.8673 140.416 48.2553 145.273 51.3037C146.513 52.0821 147.895 52.6426 149.388 52.9338Z" fill="#78C0DE"/>
<path d="M176.184 52.8891C183.577 57.5289 193.893 54.4509 199.179 46.0278C204.467 37.6025 202.753 26.9735 195.36 22.3338C187.967 17.6945 177.652 20.7743 172.364 29.1996C167.078 37.6227 168.792 48.2499 176.184 52.8891Z" fill="#78C0DE"/>
<path d="M196.985 71.1741L196.986 71.1746C197.886 72.2657 198.933 73.1742 200.088 73.8993C205.48 77.2829 213.197 76.6561 218.987 71.8834C222.32 69.1364 224.548 65.418 225.259 61.4137C226.005 57.2222 225.021 53.2229 222.489 50.1517C219.957 47.08 216.218 45.3519 211.961 45.284C207.895 45.2191 203.82 46.6972 200.488 49.4451C193.458 55.2411 191.887 64.9888 196.985 71.1741Z" fill="#78C0DE"/>
<path d="M226.34 87.1113L226.339 87.1079C223.604 80.142 214.955 76.9892 207.055 80.0808C199.159 83.1778 194.952 91.3641 197.677 98.328C198.671 100.869 200.452 102.903 202.697 104.312C206.611 106.768 211.935 107.325 216.962 105.36C224.858 102.263 229.065 94.077 226.34 87.1113Z" fill="#78C0DE"/>
</g>
<path d="M1.44434 66.2222H85.2221V132.667C85.2221 133.433 84.9177 134.168 84.376 134.709C83.8342 135.251 83.0994 135.556 82.3332 135.556H4.33322C3.56704 135.556 2.83224 135.251 2.29047 134.709C1.7487 134.168 1.44434 133.433 1.44434 132.667V66.2222Z" fill="#EBEBEB"/>
<path d="M1.44434 66.2222H85.2221V77.7777H1.44434V66.2222Z" fill="#428DC5"/>
<path d="M34.1736 93.6631C33.5661 94.7136 32.8297 95.684 31.9817 96.552C29.4102 99.1781 25.9348 100.726 22.2626 100.88C18.5904 101.034 14.9974 99.7834 12.2149 97.3821C9.43229 94.9808 7.66925 91.6095 7.28451 87.9543C6.89977 84.2991 7.92225 80.6346 10.1439 77.7066C12.3655 74.7786 15.6193 72.8071 19.2431 72.1934C22.8669 71.5796 26.5885 72.3697 29.6503 74.4029C32.7122 76.4361 34.8843 79.5595 35.7246 83.1376C36.5649 86.7157 36.0103 90.4795 34.1736 93.6631Z" fill="#8DC79D"/>
<path d="M32.9187 92.9386C32.3724 93.8836 31.7101 94.7568 30.9474 95.5377C28.634 97.9004 25.5072 99.2928 22.2034 99.4316C18.8996 99.5704 15.667 98.4451 13.1636 96.2847C10.6601 94.1243 9.0739 91.0913 8.72773 87.8027C8.38155 84.5141 9.30143 81.2173 11.3002 78.583C13.2989 75.9487 16.2263 74.1749 19.4866 73.6227C22.7469 73.0705 26.0951 73.7814 28.8498 75.6105C31.6045 77.4397 33.5587 80.2498 34.3148 83.469C35.0708 86.6881 34.5719 90.0744 32.9195 92.9386H32.9187Z" fill="#AAE5C8"/>
<path d="M34.1739 93.6631C33.5663 94.7136 32.83 95.684 31.9819 96.552H24.5521C23.4032 96.5508 22.3017 96.0939 21.4893 95.2815C20.6769 94.4691 20.2199 93.3676 20.2188 92.2187V89.3298H23.1076V92.2187C23.1076 92.6018 23.2598 92.9692 23.5307 93.24C23.8016 93.5109 24.169 93.6631 24.5521 93.6631H34.1739Z" fill="#428DC5"/>
<path d="M20.222 115.333C22.6152 115.333 24.5553 113.393 24.5553 111C24.5553 108.607 22.6152 106.667 20.222 106.667C17.8288 106.667 15.8887 108.607 15.8887 111C15.8887 113.393 17.8288 115.333 20.222 115.333Z" fill="#DBDBDB"/>
<path d="M20.222 129.778C22.6152 129.778 24.5553 127.838 24.5553 125.444C24.5553 123.051 22.6152 121.111 20.222 121.111C17.8288 121.111 15.8887 123.051 15.8887 125.444C15.8887 127.838 17.8288 129.778 20.222 129.778Z" fill="#DBDBDB"/>
<path d="M20.2224 112.444C20.0326 112.445 19.8447 112.407 19.6693 112.335C19.494 112.262 19.3347 112.156 19.2006 112.021L16.3118 109.132C16.0409 108.862 15.8887 108.494 15.8887 108.111C15.8887 107.728 16.0409 107.361 16.3118 107.09C16.5826 106.819 16.9501 106.667 17.3332 106.667C17.7163 106.667 18.0837 106.819 18.3546 107.09L20.3293 109.064L26.5418 104.094C26.841 103.855 27.223 103.744 27.6038 103.786C27.9847 103.828 28.3331 104.02 28.5726 104.319C28.812 104.619 28.9228 105.001 28.8806 105.381C28.8383 105.762 28.6466 106.111 28.3474 106.35L21.1252 112.128C20.8691 112.333 20.5506 112.445 20.2224 112.444Z" fill="#DC4D41"/>
<path d="M33.2222 106.667H36.1111V109.556H33.2222V106.667Z" fill="#DBDBDB"/>
<path d="M39 106.667H54.8889V109.556H39V106.667Z" fill="#DBDBDB"/>
<path d="M33.2222 112.444H41.8888V115.333H33.2222V112.444Z" fill="#DBDBDB"/>
<path d="M44.7778 112.444H53.4445V115.333H44.7778V112.444Z" fill="#DBDBDB"/>
<path d="M46.222 96.5555C48.6152 96.5555 50.5553 94.6154 50.5553 92.2222C50.5553 89.829 48.6152 87.8889 46.222 87.8889C43.8288 87.8889 41.8887 89.829 41.8887 92.2222C41.8887 94.6154 43.8288 96.5555 46.222 96.5555Z" fill="#DBDBDB"/>
<path d="M46.2224 93.6666C46.0326 93.6669 45.8447 93.6296 45.6693 93.557C45.494 93.4844 45.3347 93.3779 45.2006 93.2436L42.3118 90.3547C42.0409 90.0838 41.8887 89.7164 41.8887 89.3333C41.8887 88.9502 42.0409 88.5828 42.3118 88.3119C42.5826 88.041 42.9501 87.8888 43.3332 87.8888C43.7163 87.8888 44.0837 88.041 44.3546 88.3119L46.3293 90.2866L52.5419 85.3165C52.841 85.0771 53.223 84.9663 53.6038 85.0085C53.9847 85.0507 54.3331 85.2425 54.5726 85.5416C54.812 85.8408 54.9228 86.2228 54.8806 86.6036C54.8383 86.9845 54.6466 87.3329 54.3474 87.5724L47.1252 93.3501C46.8691 93.5554 46.5506 93.6671 46.2224 93.6666Z" fill="#DC4D41"/>
<path d="M59.2222 87.8889H62.1111V90.7777H59.2222V87.8889Z" fill="#DBDBDB"/>
<path d="M65 87.8889H78V90.7777H65V87.8889Z" fill="#DBDBDB"/>
<path d="M59.2222 93.6667H70.7777V96.5556H59.2222V93.6667Z" fill="#DBDBDB"/>
<path d="M73.6665 93.6667H77.9998V96.5556H73.6665V93.6667Z" fill="#DBDBDB"/>
<path d="M33.2222 121.111H36.1111V124H33.2222V121.111Z" fill="#DBDBDB"/>
<path d="M39 121.111H54.8889V124H39V121.111Z" fill="#DBDBDB"/>
<path d="M33.2222 126.889H43.3333V129.778H33.2222V126.889Z" fill="#DBDBDB"/>
<path d="M46.2222 126.889H64.9999V129.778H46.2222V126.889Z" fill="#DBDBDB"/>
<path d="M37.5556 63.3333C37.5556 61.7379 36.2622 60.4445 34.6667 60.4445C33.0712 60.4445 31.7778 61.7379 31.7778 63.3333V69.1111C31.7778 70.7066 33.0712 72 34.6667 72C36.2622 72 37.5556 70.7066 37.5556 69.1111V63.3333Z" fill="#DBDBDB"/>
<path d="M20.2221 63.3333C20.2221 61.7379 18.9287 60.4445 17.3332 60.4445C15.7377 60.4445 14.4443 61.7379 14.4443 63.3333V69.1111C14.4443 70.7066 15.7377 72 17.3332 72C18.9287 72 20.2221 70.7066 20.2221 69.1111V63.3333Z" fill="#DBDBDB"/>
<path d="M54.8886 63.3333C54.8886 61.7379 53.5952 60.4445 51.9997 60.4445C50.4042 60.4445 49.1108 61.7379 49.1108 63.3333V69.1111C49.1108 70.7066 50.4042 72 51.9997 72C53.5952 72 54.8886 70.7066 54.8886 69.1111V63.3333Z" fill="#DBDBDB"/>
<path d="M72.2221 63.3333C72.2221 61.7379 70.9287 60.4445 69.3332 60.4445C67.7377 60.4445 66.4443 61.7379 66.4443 63.3333V69.1111C66.4443 70.7066 67.7377 72 69.3332 72C70.9287 72 72.2221 70.7066 72.2221 69.1111V63.3333Z" fill="#DBDBDB"/>
<path d="M78.9695 119.033C78.0645 122.462 75.9304 125.438 72.9733 127.395C70.0162 129.353 66.4426 130.155 62.9328 129.648C59.4229 129.142 56.2218 127.362 53.9387 124.649C51.6557 121.935 50.45 118.477 50.5513 114.932C50.6526 111.387 52.0537 108.004 54.488 105.425C56.9223 102.846 60.2198 101.252 63.7528 100.947C67.2859 100.642 70.8078 101.646 73.6483 103.769C76.4888 105.892 78.4495 108.986 79.1573 112.461C79.6007 114.637 79.5364 116.886 78.9695 119.033Z" fill="#FBB540"/>
<path d="M78.9694 119.033C78.1663 122.049 76.4101 124.724 73.9626 126.66C71.5152 128.597 68.5075 129.69 65.388 129.778H64.9998L62.1109 121.111H58.702C58.0341 121.112 57.3867 120.88 56.8702 120.457C56.3536 120.034 55.9998 119.444 55.8691 118.789L54.8887 113.889L59.222 112.445L62.1109 108.111H70.7776L78.9694 119.033Z" fill="#DA922A"/>
<path d="M75.1113 113.889V119.667C75.1113 120.433 74.8069 121.168 74.2651 121.71C73.7234 122.251 72.9886 122.556 72.2224 122.556C71.4562 122.556 70.7214 122.251 70.1796 121.71C69.6379 121.168 69.3335 120.433 69.3335 119.667V108.111H70.7779L75.1113 113.889Z" fill="#834B10"/>
<path d="M62.1113 113.889H65.0002V116.778H62.1113V113.889Z" fill="#834B10"/>
<path d="M21.664 90.7749C20.1322 90.7731 18.6636 90.1638 17.5805 89.0807C16.4973 87.9975 15.888 86.5289 15.8862 84.9971V82.1082C15.8862 81.84 15.9609 81.577 16.102 81.3489C16.243 81.1207 16.4447 80.9363 16.6846 80.8163L19.5735 79.3719L20.8656 81.9558L18.7751 83.0011V84.9971C18.7751 85.7633 19.0795 86.4981 19.6213 87.0399C20.163 87.5816 20.8978 87.886 21.664 87.886C22.4302 87.886 23.165 87.5816 23.7068 87.0399C24.2485 86.4981 24.5529 85.7633 24.5529 84.9971V83.0011L22.4624 81.9558L23.7545 79.3719L26.6434 80.8163C26.8833 80.9363 27.085 81.1207 27.2261 81.3489C27.3671 81.577 27.4418 81.84 27.4418 82.1082V84.9971C27.4401 86.5289 26.8308 87.9975 25.7476 89.0807C24.6644 90.1639 23.1958 90.7732 21.664 90.7749Z" fill="#4799CF"/>
<path d="M85.2222 64.7778H73.6667V63.3333C73.6667 62.1841 73.2101 61.0819 72.3975 60.2692C71.5848 59.4565 70.4826 59 69.3333 59C68.1841 59 67.0819 59.4565 66.2692 60.2692C65.4566 61.0819 65 62.1841 65 63.3333V64.7778H56.3333V63.3333C56.3333 62.1841 55.8768 61.0819 55.0641 60.2692C54.2515 59.4565 53.1493 59 52 59C50.8507 59 49.7485 59.4565 48.9359 60.2692C48.1232 61.0819 47.6667 62.1841 47.6667 63.3333V64.7778H39V63.3333C39 62.1841 38.5435 61.0819 37.7308 60.2692C36.9181 59.4565 35.8159 59 34.6667 59C33.5174 59 32.4152 59.4565 31.6025 60.2692C30.7899 61.0819 30.3333 62.1841 30.3333 63.3333V64.7778H21.6667V63.3333C21.6667 62.1841 21.2101 61.0819 20.3975 60.2692C19.5848 59.4565 18.4826 59 17.3333 59C16.1841 59 15.0819 59.4565 14.2692 60.2692C13.4565 61.0819 13 62.1841 13 63.3333V64.7778H1.44444C1.06135 64.7778 0.693954 64.93 0.423068 65.2008C0.152182 65.4717 0 65.8391 0 66.2222V132.667C0.001338 133.816 0.458314 134.917 1.27068 135.729C2.08305 136.542 3.18447 136.999 4.33333 137H82.3333C83.4822 136.999 84.5836 136.542 85.396 135.729C86.2084 134.917 86.6653 133.816 86.6667 132.667V66.2222C86.6667 65.8391 86.5145 65.4717 86.2436 65.2008C85.9727 64.93 85.6053 64.7778 85.2222 64.7778ZM67.8889 63.3333C67.8889 62.9502 68.0411 62.5828 68.312 62.312C68.5828 62.0411 68.9502 61.8889 69.3333 61.8889C69.7164 61.8889 70.0838 62.0411 70.3547 62.312C70.6256 62.5828 70.7778 62.9502 70.7778 63.3333V69.1111C70.7778 69.4942 70.6256 69.8616 70.3547 70.1325C70.0838 70.4034 69.7164 70.5556 69.3333 70.5556C68.9502 70.5556 68.5828 70.4034 68.312 70.1325C68.0411 69.8616 67.8889 69.4942 67.8889 69.1111V63.3333ZM50.5556 63.3333C50.5556 62.9502 50.7077 62.5828 50.9786 62.312C51.2495 62.0411 51.6169 61.8889 52 61.8889C52.3831 61.8889 52.7505 62.0411 53.0214 62.312C53.2923 62.5828 53.4444 62.9502 53.4444 63.3333V69.1111C53.4444 69.4942 53.2923 69.8616 53.0214 70.1325C52.7505 70.4034 52.3831 70.5556 52 70.5556C51.6169 70.5556 51.2495 70.4034 50.9786 70.1325C50.7077 69.8616 50.5556 69.4942 50.5556 69.1111V63.3333ZM33.2222 63.3333C33.2222 62.9502 33.3744 62.5828 33.6453 62.312C33.9162 62.0411 34.2836 61.8889 34.6667 61.8889C35.0498 61.8889 35.4172 62.0411 35.688 62.312C35.9589 62.5828 36.1111 62.9502 36.1111 63.3333V69.1111C36.1111 69.4942 35.9589 69.8616 35.688 70.1325C35.4172 70.4034 35.0498 70.5556 34.6667 70.5556C34.2836 70.5556 33.9162 70.4034 33.6453 70.1325C33.3744 69.8616 33.2222 69.4942 33.2222 69.1111V63.3333ZM34.4036 83.8538C34.7482 85.5266 34.7576 87.251 34.4312 88.9274C34.1048 90.6038 33.4492 92.1988 32.5022 93.6201C32.4922 93.6351 32.4814 93.649 32.4717 93.6638H24.5527C24.1697 93.6633 23.8026 93.511 23.5318 93.2402C23.261 92.9694 23.1087 92.6023 23.1082 92.2193V90.5922C24.3477 90.2703 25.4454 89.5465 26.2296 88.534C27.0137 87.5216 27.4399 86.2777 27.4416 84.9971V82.1082C27.4415 81.84 27.3668 81.5771 27.2258 81.3489C27.0848 81.1207 26.883 80.9363 26.6431 80.8163L23.7542 79.3719L22.4622 81.9558L24.5527 83.0011V84.9971C24.5527 85.7633 24.2483 86.4981 23.7065 87.0399C23.1648 87.5816 22.43 87.886 21.6638 87.886C20.8976 87.886 20.1628 87.5816 19.621 87.0399C19.0793 86.4981 18.7749 85.7633 18.7749 84.9971V83.0011L20.8654 81.9558L19.5733 79.3719L16.6844 80.8163C16.4445 80.9363 16.2427 81.1207 16.1017 81.3489C15.9607 81.5771 15.886 81.84 15.886 82.1082V84.9971C15.8877 86.2777 16.3139 87.5216 17.098 88.534C17.8822 89.5464 18.9799 90.2703 20.2193 90.5922V92.2193C20.2206 93.3682 20.6776 94.4697 21.49 95.282C22.3023 96.0944 23.4038 96.5514 24.5527 96.5527H29.8408C27.6346 98.3378 24.905 99.3522 22.0685 99.441C19.232 99.5298 16.4443 98.6882 14.1308 97.0445C11.8173 95.4009 10.1051 93.0455 9.25539 90.3377C8.40571 87.63 8.46522 84.7186 9.42484 82.0479C10.3845 79.3771 12.1915 77.0936 14.5702 75.5459C16.949 73.9982 19.7687 73.2712 22.5993 73.4758C25.4298 73.6805 28.1157 74.8055 30.247 76.6793C32.3784 78.5532 33.8381 81.0728 34.4036 83.8538ZM15.8889 63.3333C15.8889 62.9502 16.0411 62.5828 16.312 62.312C16.5828 62.0411 16.9502 61.8889 17.3333 61.8889C17.7164 61.8889 18.0838 62.0411 18.3547 62.312C18.6256 62.5828 18.7778 62.9502 18.7778 63.3333V69.1111C18.7778 69.4942 18.6256 69.8616 18.3547 70.1325C18.0838 70.4034 17.7164 70.5556 17.3333 70.5556C16.9502 70.5556 16.5828 70.4034 16.312 70.1325C16.0411 69.8616 15.8889 69.4942 15.8889 69.1111V63.3333ZM2.88889 67.6667H13V69.1111C12.9998 69.7121 13.125 70.3065 13.3674 70.8564C13.6099 71.4063 13.9644 71.8996 14.4083 72.3048C12.4869 73.2935 10.7877 74.6644 9.41507 76.3333H2.88889V67.6667ZM83.7778 132.667C83.7773 133.05 83.625 133.417 83.3542 133.688C83.0834 133.958 82.7163 134.111 82.3333 134.111H4.33333C3.95037 134.111 3.58322 133.958 3.31243 133.688C3.04164 133.417 2.88932 133.05 2.88889 132.667V79.2222H7.51815C6.28362 81.6436 5.69111 84.3413 5.79731 87.0572C5.90351 89.7731 6.70486 92.4163 8.12471 94.7339C9.54455 97.0515 11.5354 98.966 13.9067 100.294C16.278 101.622 18.9505 102.32 21.6685 102.32C24.3864 102.32 27.0589 101.622 29.4302 100.294C31.8016 98.966 33.7924 97.0515 35.2122 94.7339C36.6321 92.4163 37.4334 89.7731 37.5396 87.0572C37.6458 84.3413 37.0533 81.6436 35.8188 79.2222H83.7778V132.667ZM83.7778 76.3333H33.9184C32.3996 74.4967 30.4883 73.0241 28.325 72.0239C26.1618 71.0237 23.8018 70.5214 21.4188 70.5539C21.583 70.0906 21.6668 69.6027 21.6667 69.1111V67.6667H30.3333V69.1111C30.3333 70.2604 30.7899 71.3626 31.6025 72.1752C32.4152 72.9879 33.5174 73.4444 34.6667 73.4444C35.8159 73.4444 36.9181 72.9879 37.7308 72.1752C38.5435 71.3626 39 70.2604 39 69.1111V67.6667H47.6667V69.1111C47.6667 70.2604 48.1232 71.3626 48.9359 72.1752C49.7485 72.9879 50.8507 73.4444 52 73.4444C53.1493 73.4444 54.2515 72.9879 55.0641 72.1752C55.8768 71.3626 56.3333 70.2604 56.3333 69.1111V67.6667H65V69.1111C65 70.2604 65.4566 71.3626 66.2692 72.1752C67.0819 72.9879 68.1841 73.4444 69.3333 73.4444C70.4826 73.4444 71.5848 72.9879 72.3975 72.1752C73.2101 71.3626 73.6667 70.2604 73.6667 69.1111V67.6667H83.7778V76.3333Z" fill="black"/>
<path d="M49.3735 112.445H44.7778V115.333H49.11C49.1133 117.31 49.4832 119.269 50.2009 121.111H39V124H51.6873C52.3757 125.056 53.1874 126.025 54.1051 126.889H46.2222V129.778H58.3917C60.4636 130.732 62.7173 131.226 64.9982 131.227C65.1209 131.227 65.2437 131.225 65.3667 131.222H65.3884C68.1189 131.156 70.7861 130.387 73.1327 128.989C75.4793 127.591 77.426 125.612 78.7849 123.243C80.1437 120.874 80.8689 118.194 80.8905 115.463C80.912 112.732 80.2291 110.041 78.9077 107.651C77.5863 105.261 75.671 103.251 73.3467 101.817C71.0224 100.382 68.3676 99.5714 65.6385 99.462C62.9094 99.3526 60.1982 99.9485 57.7666 101.192C55.3349 102.436 53.2649 104.286 51.7564 106.563C51.7337 106.597 51.7135 106.632 51.6909 106.667H39V109.556H50.2013C49.8337 110.49 49.5565 111.457 49.3735 112.445ZM67.5915 128.076C67.0754 128.18 66.5535 128.252 66.0286 128.293L63.4828 120.654C63.3868 120.366 63.2027 120.116 62.9565 119.939C62.7102 119.762 62.4145 119.666 62.1111 119.667H58.7022C58.3684 119.666 58.045 119.55 57.7869 119.339C57.5287 119.127 57.3516 118.833 57.2856 118.506L56.5554 114.856L59.679 113.815C59.9837 113.713 60.2459 113.513 60.424 113.246L62.8841 109.556H67.8889V119.667C67.8889 120.816 68.3454 121.918 69.1581 122.731C69.9708 123.544 71.073 124 72.2222 124C73.3715 124 74.4737 123.544 75.2864 122.731C76.099 121.918 76.5556 120.816 76.5556 119.667V118.222L77.3738 119.313C76.6672 121.511 75.3887 123.48 73.6694 125.02C71.9502 126.56 69.8521 127.615 67.5906 128.076H67.5915ZM70.7778 119.667V110.519L70.8126 110.565L73.6667 114.371V119.667C73.6667 120.05 73.5145 120.417 73.2436 120.688C72.9727 120.959 72.6053 121.111 72.2222 121.111C71.8391 121.111 71.4717 120.959 71.2008 120.688C70.93 120.417 70.7778 120.05 70.7778 119.667ZM54.1645 108.158C55.7075 105.829 57.9595 104.06 60.5868 103.111C63.214 102.163 66.077 102.085 68.7516 102.891C71.4263 103.696 73.7703 105.342 75.4367 107.584C77.1031 109.826 78.0032 112.544 78.0036 115.338L71.9333 107.245C71.8159 107.088 71.6679 106.957 71.4984 106.859C71.3288 106.762 71.1411 106.7 70.9468 106.677C70.8907 106.67 70.8343 106.667 70.7778 106.667H62.1111C61.8733 106.667 61.6392 106.725 61.4296 106.838C61.2199 106.95 61.0412 107.112 60.9093 107.31L58.2952 111.231L54.4314 112.519C54.0973 112.63 53.8155 112.859 53.6388 113.164C53.462 113.468 53.4026 113.827 53.4717 114.172L54.4519 119.071C54.65 120.053 55.1813 120.936 55.9559 121.571C56.7304 122.206 57.7007 122.554 58.7022 122.556H61.07L62.9417 128.171C60.795 127.826 58.7691 126.949 57.0492 125.619C55.3294 124.289 53.9707 122.549 53.0975 120.558C52.2243 118.566 51.8644 116.388 52.0508 114.222C52.2373 112.056 52.9641 109.971 54.1647 108.159L54.1645 108.158Z" fill="black"/>
<path d="M20.2221 119.667C19.0794 119.667 17.9623 120.006 17.0122 120.64C16.062 121.275 15.3215 122.178 14.8841 123.233C14.4468 124.289 14.3324 125.451 14.5554 126.572C14.7783 127.692 15.3286 128.722 16.1366 129.53C16.9446 130.338 17.9741 130.888 19.0949 131.111C20.2157 131.334 21.3774 131.22 22.4332 130.782C23.4889 130.345 24.3913 129.605 25.0262 128.654C25.661 127.704 25.9999 126.587 25.9999 125.445C25.9982 123.913 25.3889 122.444 24.3057 121.361C23.2226 120.278 21.754 119.668 20.2221 119.667ZM20.2221 128.333C19.6507 128.333 19.0922 128.164 18.6171 127.847C18.1421 127.529 17.7718 127.078 17.5531 126.55C17.3345 126.022 17.2773 125.441 17.3887 124.881C17.5002 124.321 17.7753 123.806 18.1794 123.402C18.5834 122.998 19.0981 122.723 19.6585 122.611C20.2189 122.5 20.7998 122.557 21.3276 122.776C21.8555 122.994 22.3067 123.364 22.6241 123.84C22.9416 124.315 23.111 124.873 23.111 125.445C23.1101 126.21 22.8054 126.945 22.2639 127.486C21.7223 128.028 20.988 128.333 20.2221 128.333Z" fill="black"/>
<path d="M26.5419 104.094L23.686 106.379C22.5595 105.534 21.1637 105.13 19.7602 105.241C18.3567 105.352 17.0419 105.971 16.0623 106.982C15.0827 107.993 14.5056 109.327 14.4391 110.734C14.3726 112.14 14.8213 113.522 15.7012 114.621C16.581 115.72 17.8316 116.461 19.2183 116.704C20.6051 116.947 22.0329 116.676 23.234 115.941C24.4351 115.207 25.3271 114.059 25.7427 112.714C26.1583 111.369 26.069 109.918 25.4916 108.634L28.3474 106.35C28.6466 106.111 28.8383 105.762 28.8806 105.381C28.9228 105.001 28.812 104.619 28.5726 104.319C28.3331 104.02 27.9847 103.828 27.6038 103.786C27.223 103.744 26.841 103.855 26.5419 104.094ZM20.2224 108.111C20.5815 108.112 20.9372 108.179 21.2713 108.311L20.3297 109.064L19.4773 108.212C19.7202 108.146 19.9707 108.112 20.2224 108.111ZM20.2224 113.889C19.7791 113.891 19.3414 113.79 18.9434 113.594C18.5455 113.399 18.198 113.114 17.9281 112.763C17.6583 112.411 17.4733 112.002 17.3877 111.567C17.3021 111.132 17.3181 110.683 17.4345 110.255L19.201 112.021C19.4524 112.273 19.7876 112.423 20.1425 112.442C20.4974 112.462 20.8471 112.35 21.1246 112.128L23.0746 110.567C23.1405 110.979 23.1159 111.4 23.0025 111.801C22.8892 112.202 22.6899 112.573 22.4184 112.889C22.1469 113.205 21.8099 113.459 21.4306 113.631C21.0514 113.804 20.6391 113.892 20.2224 113.889Z" fill="black"/>
<path d="M62.1113 113.889H65.0002V116.778H62.1113V113.889Z" fill="black"/>
<path d="M33.2222 106.667H36.1111V109.556H33.2222V106.667Z" fill="black"/>
<path d="M33.2222 112.444H41.8888V115.333H33.2222V112.444Z" fill="black"/>
<path d="M46.222 98C47.1866 98.0006 48.1359 97.7596 48.9834 97.299C49.8308 96.8383 50.5494 96.1727 51.0734 95.3629C51.5974 94.553 51.9101 93.6249 51.9831 92.6631C52.0561 91.7013 51.887 90.7365 51.4912 89.8569L54.347 87.5724C54.6462 87.3329 54.838 86.9845 54.8802 86.6036C54.9224 86.2228 54.8116 85.8408 54.5722 85.5416C54.4536 85.3935 54.3071 85.2702 54.1409 85.1787C53.9746 85.0873 53.792 85.0294 53.6035 85.0085C53.2226 84.9663 52.8406 85.0771 52.5415 85.3165L49.6856 87.6011C48.9532 87.0519 48.1008 86.6847 47.1987 86.5297C46.2965 86.3747 45.3704 86.4362 44.4967 86.7093C43.623 86.9825 42.8267 87.4593 42.1734 88.1005C41.5202 88.7418 41.0287 89.5291 40.7394 90.3976C40.4501 91.2661 40.3714 92.1909 40.5097 93.0958C40.6479 94.0007 40.9993 94.8597 41.5347 95.6022C42.0702 96.3447 42.7744 96.9492 43.5893 97.3661C44.4043 97.783 45.3066 98.0003 46.222 98ZM46.222 89.3333C46.5811 89.3338 46.9369 89.4016 47.2709 89.5334L46.3293 90.2866L45.4769 89.4342C45.7198 89.3681 45.9703 89.3342 46.222 89.3333ZM43.4341 91.4772L45.2006 93.2436C45.452 93.4949 45.7872 93.6448 46.1421 93.6644C46.497 93.6841 46.8467 93.5722 47.1243 93.3501L49.0743 91.7896C49.1411 92.2151 49.1119 92.6502 48.9888 93.063C48.8658 93.4758 48.652 93.8559 48.3631 94.1754C48.0742 94.4949 47.7175 94.7457 47.3191 94.9095C46.9207 95.0733 46.4907 95.146 46.0606 95.1222C45.6305 95.0984 45.2112 94.9787 44.8334 94.7719C44.4555 94.5651 44.1287 94.2764 43.8768 93.9269C43.6249 93.5775 43.4544 93.1762 43.3777 92.7523C43.3009 92.3284 43.32 91.8928 43.4334 91.4772H43.4341Z" fill="black"/>
<path d="M59.2222 87.8889H62.1111V90.7777H59.2222V87.8889Z" fill="black"/>
<path d="M65 87.8889H78V90.7777H65V87.8889Z" fill="black"/>
<path d="M59.2222 93.6667H70.7777V96.5556H59.2222V93.6667Z" fill="black"/>
<path d="M73.6665 93.6667H77.9998V96.5556H73.6665V93.6667Z" fill="black"/>
<path d="M33.2222 121.111H36.1111V124H33.2222V121.111Z" fill="black"/>
<path d="M33.2222 126.889H43.3333V129.778H33.2222V126.889Z" fill="black"/>
</svg>
