<svg width="253" height="138" viewBox="0 0 253 138" fill="none" xmlns="http://www.w3.org/2000/svg">
<g opacity="0.05">
<path d="M195.034 80.9799C194.948 71.9944 190.353 63.7781 182.743 59.0021C175.132 54.226 165.736 53.6619 157.608 57.4924L138.02 66.7213C134.771 68.2522 132.156 70.7364 130.459 73.9028C128.761 77.0698 128.142 80.6224 128.667 84.178C129.194 87.7325 130.816 90.9541 133.358 93.4946C135.899 96.0352 139.123 97.6546 142.679 98.1786L142.918 98.2129C151.827 99.5929 159.823 104.65 164.887 112.116C166.194 114.041 167.854 115.642 169.783 116.853C170.832 117.511 171.961 118.054 173.156 118.472C176.549 119.657 180.155 119.716 183.586 118.645C187.016 117.573 189.947 115.471 192.062 112.565C194.176 109.659 195.276 106.224 195.242 102.631L195.034 80.9799Z" fill="#949494"/>
<path d="M150.388 52.9338C154.042 53.6507 157.768 52.6818 160.879 50.2051C163.841 47.8486 165.896 44.3802 166.667 40.4375C167.435 36.4964 166.837 32.5098 164.982 29.211C163.032 25.7463 159.947 23.4448 156.296 22.7331C148.955 21.2954 141.655 26.9005 140.021 35.2316C138.728 41.8673 141.416 48.2553 146.273 51.3037C147.513 52.0821 148.895 52.6426 150.388 52.9338Z" fill="#949494"/>
<path d="M177.184 52.8891C184.577 57.5289 194.893 54.4509 200.179 46.0278C205.467 37.6025 203.753 26.9735 196.36 22.3338C188.967 17.6945 178.652 20.7743 173.364 29.1996C168.078 37.6227 169.792 48.2499 177.184 52.8891Z" fill="#949494"/>
<path d="M197.985 71.1741L197.986 71.1746C198.886 72.2657 199.933 73.1742 201.088 73.8993C206.48 77.2829 214.197 76.6561 219.987 71.8834C223.32 69.1364 225.548 65.418 226.259 61.4137C227.005 57.2222 226.021 53.2229 223.489 50.1517C220.957 47.08 217.218 45.3519 212.961 45.284C208.895 45.2191 204.82 46.6972 201.488 49.4451C194.458 55.2411 192.887 64.9888 197.985 71.1741Z" fill="#949494"/>
<path d="M227.34 87.1113L227.339 87.1079C224.604 80.142 215.955 76.9892 208.055 80.0808C200.159 83.1778 195.952 91.3641 198.677 98.328C199.671 100.869 201.452 102.903 203.697 104.312C207.611 106.768 212.935 107.325 217.962 105.36C225.858 102.263 230.065 94.077 227.34 87.1113Z" fill="#949494"/>
</g>
<path d="M51.522 101.838V95.5007H33.7763V101.838C32.4316 101.838 31.1419 102.373 30.1911 103.324C29.2402 104.274 28.7061 105.564 28.7061 106.909V129.725C28.7061 131.069 29.2402 132.359 30.1911 133.31C31.1419 134.261 32.4316 134.795 33.7763 134.795H51.522C52.8667 134.795 54.1563 134.261 55.1072 133.31C56.058 132.359 56.5922 131.069 56.5922 129.725V106.909C56.5922 105.564 56.058 104.274 55.1072 103.324C54.1563 102.373 52.8667 101.838 51.522 101.838Z" fill="#6B9777"/>
<path d="M56.5922 85.3604V92.9657C56.5922 93.638 56.3251 94.2828 55.8497 94.7583C55.3743 95.2337 54.7294 95.5008 54.0571 95.5008H31.2412C30.9081 95.5013 30.5782 95.4361 30.2704 95.3089C29.9626 95.1817 29.6829 94.995 29.4474 94.7595C29.2118 94.5239 29.0251 94.2443 28.8979 93.9364C28.7707 93.6286 28.7055 93.2987 28.7061 92.9657V85.3604C28.7061 84.688 28.9731 84.0432 29.4486 83.5678C29.924 83.0923 30.5688 82.8253 31.2412 82.8253H54.0571C54.7294 82.8253 55.3743 83.0923 55.8497 83.5678C56.3251 84.0432 56.5922 84.688 56.5922 85.3604Z" fill="#CBCBCB"/>
<path d="M28.7061 109.444H56.5922V127.19H28.7061V109.444Z" fill="#E4E4E2"/>
<path d="M44.5502 119.584H40.7475C39.6974 119.584 38.8462 120.435 38.8462 121.486C38.8462 122.536 39.6974 123.387 40.7475 123.387H44.5502C45.6002 123.387 46.4515 122.536 46.4515 121.486C46.4515 120.435 45.6002 119.584 44.5502 119.584Z" fill="#6B9777"/>
<path d="M42.6489 117.049C42.3127 117.049 41.9903 116.916 41.7526 116.678C41.5149 116.44 41.3813 116.118 41.3813 115.782V114.514C41.3813 114.178 41.5149 113.855 41.7526 113.618C41.9903 113.38 42.3127 113.246 42.6489 113.246C42.9851 113.246 43.3075 113.38 43.5452 113.618C43.7829 113.855 43.9165 114.178 43.9165 114.514V115.782C43.9165 116.118 43.7829 116.44 43.5452 116.678C43.3075 116.916 42.9851 117.049 42.6489 117.049Z" fill="#6B9777"/>
<path d="M38.8462 118.317C38.51 118.317 38.1876 118.183 37.9499 117.945C37.7122 117.708 37.5786 117.385 37.5786 117.049V115.782C37.5786 115.445 37.7122 115.123 37.9499 114.885C38.1876 114.648 38.51 114.514 38.8462 114.514C39.1823 114.514 39.5047 114.648 39.7425 114.885C39.9802 115.123 40.1137 115.445 40.1137 115.782V117.049C40.1137 117.385 39.9802 117.708 39.7425 117.945C39.5047 118.183 39.1823 118.317 38.8462 118.317Z" fill="#6B9777"/>
<path d="M46.4516 118.317C46.1155 118.317 45.7931 118.183 45.5553 117.945C45.3176 117.708 45.1841 117.385 45.1841 117.049V115.782C45.1841 115.445 45.3176 115.123 45.5553 114.885C45.7931 114.648 46.1155 114.514 46.4516 114.514C46.7878 114.514 47.1102 114.648 47.3479 114.885C47.5856 115.123 47.7192 115.445 47.7192 115.782V117.049C47.7192 117.385 47.5856 117.708 47.3479 117.945C47.1102 118.183 46.7878 118.317 46.4516 118.317Z" fill="#6B9777"/>
<path d="M1.26673 136.064C1.05115 136.064 0.83917 136.009 0.65083 135.904C0.46249 135.799 0.304012 135.648 0.190382 135.465C0.0767508 135.282 0.0117217 135.072 0.00144208 134.857C-0.00883752 134.642 0.0359722 134.427 0.131635 134.234L8.00139 118.329C8.07418 118.178 8.17615 118.043 8.30142 117.932C8.42668 117.82 8.57275 117.735 8.73118 117.681C8.88961 117.626 9.05726 117.604 9.22443 117.615C9.39161 117.625 9.55499 117.669 9.70513 117.743C9.85528 117.818 9.98921 117.921 10.0992 118.047C10.2092 118.174 10.293 118.321 10.3458 118.48C10.3987 118.639 10.4195 118.806 10.4071 118.973C10.3947 119.141 10.3493 119.303 10.2735 119.453L2.4042 135.358C2.29934 135.57 2.13723 135.749 1.93622 135.874C1.7352 135.998 1.50329 136.064 1.26673 136.064Z" fill="#C3C3C3"/>
<path d="M56.5921 86.6279V89.163H47.7192C47.383 89.163 47.0606 89.0295 46.8229 88.7918C46.5852 88.5541 46.4517 88.2317 46.4517 87.8955C46.4517 87.5593 46.5852 87.2369 46.8229 86.9992C47.0606 86.7615 47.383 86.6279 47.7192 86.6279H56.5921Z" fill="#E4E4E2"/>
<path d="M42.6488 89.163H40.1137C39.7776 89.163 39.4552 89.0295 39.2174 88.7918C38.9797 88.5541 38.8462 88.2317 38.8462 87.8955C38.8462 87.5593 38.9797 87.2369 39.2174 86.9992C39.4552 86.7615 39.7776 86.6279 40.1137 86.6279H42.6488C42.985 86.6279 43.3074 86.7615 43.5451 86.9992C43.7829 87.2369 43.9164 87.5593 43.9164 87.8955C43.9164 88.2317 43.7829 88.5541 43.5451 88.7918C43.3074 89.0295 42.985 89.163 42.6488 89.163Z" fill="#E4E4E2"/>
<path d="M64.1975 114.514V109.444H54.0571V114.514C53.3847 114.514 52.7399 114.781 52.2645 115.257C51.7891 115.732 51.522 116.377 51.522 117.049V132.26C51.522 132.932 51.7891 133.577 52.2645 134.052C52.7399 134.528 53.3847 134.795 54.0571 134.795H64.1975C64.8698 134.795 65.5147 134.528 65.9901 134.052C66.4655 133.577 66.7326 132.932 66.7326 132.26V117.049C66.7326 116.377 66.4655 115.732 65.9901 115.257C65.5147 114.781 64.8698 114.514 64.1975 114.514Z" fill="#A45E14"/>
<path d="M65.7819 101.839H52.4726C51.9476 101.839 51.522 102.264 51.522 102.789V108.493C51.522 109.018 51.9476 109.444 52.4726 109.444H65.7819C66.307 109.444 66.7326 109.018 66.7326 108.493V102.789C66.7326 102.264 66.307 101.839 65.7819 101.839Z" fill="#A8A8A8"/>
<path d="M51.522 119.584H66.7326V129.725H51.522V119.584Z" fill="#F3AF3E"/>
<path d="M66.7323 123.387V125.922H62.9297C62.5935 125.922 62.2711 125.789 62.0334 125.551C61.7957 125.313 61.6621 124.991 61.6621 124.655C61.6621 124.318 61.7957 123.996 62.0334 123.758C62.2711 123.521 62.5935 123.387 62.9297 123.387H66.7323Z" fill="#EA9D2D"/>
<path d="M57.8598 125.922H56.5923C56.2561 125.922 55.9337 125.789 55.696 125.551C55.4583 125.313 55.3247 124.991 55.3247 124.655C55.3247 124.318 55.4583 123.996 55.696 123.758C55.9337 123.521 56.2561 123.387 56.5923 123.387H57.8598C58.196 123.387 58.5184 123.521 58.7561 123.758C58.9938 123.996 59.1274 124.318 59.1274 124.655C59.1274 124.991 58.9938 125.313 58.7561 125.551C58.5184 125.789 58.196 125.922 57.8598 125.922Z" fill="#EA9D2D"/>
<path d="M33.7759 95.5007H51.5216V98.0358H33.7759V95.5007Z" fill="#5E8569"/>
<path d="M54.0571 109.444H64.1975V111.979H54.0571V109.444Z" fill="#834B10"/>
<path d="M35.0137 82.8253L29.2242 94.5042C28.8872 94.0621 28.7051 93.5215 28.7061 92.9657V85.3604C28.7061 84.688 28.9731 84.0432 29.4486 83.5678C29.924 83.0923 30.5688 82.8253 31.2412 82.8253H35.0137Z" fill="#B9B9B9"/>
<path d="M26.0006 73.4595L35.0838 77.9681L17.9057 112.63C17.6815 113.082 17.2871 113.426 16.8092 113.587C16.3312 113.747 15.809 113.712 15.3573 113.488L9.68044 110.67C9.22877 110.446 8.88467 110.051 8.72383 109.573C8.56299 109.095 8.59858 108.573 8.82279 108.121L26.0006 73.4595Z" fill="#EBEBEB"/>
<path d="M21.549 82.4279L30.632 86.9364L17.9057 112.63C17.6815 113.082 17.2871 113.426 16.8092 113.586C16.3312 113.747 15.809 113.712 15.3573 113.488L9.68044 110.67C9.22877 110.446 8.88467 110.051 8.72383 109.573C8.56299 109.095 8.59858 108.573 8.82279 108.121L21.549 82.4279Z" fill="#F388A2"/>
<path d="M20.9927 95.0542L22.1208 92.7827L26.6637 95.039L25.5356 97.3104L20.9927 95.0542Z" fill="#CF748A"/>
<path d="M18.7388 99.5979L19.8669 97.3264L24.4098 99.5827L23.2817 101.854L18.7388 99.5979Z" fill="#CF748A"/>
<path d="M16.4849 104.142L17.613 101.871L22.1559 104.127L21.0278 106.398L16.4849 104.142Z" fill="#CF748A"/>
<path d="M14.231 108.686L15.3591 106.414L19.902 108.671L18.7739 110.942L14.231 108.686Z" fill="#CF748A"/>
<path d="M9.15433 118.87C8.5519 118.571 8.093 118.044 7.87859 117.407C7.66417 116.769 7.7118 116.073 8.011 115.47L10.2672 110.927L14.8101 113.184L12.5539 117.727C12.2547 118.329 11.7284 118.788 11.0909 119.002C10.4534 119.217 9.75676 119.169 9.15433 118.87Z" fill="#4799CF"/>
<path d="M24.9393 88.2945C24.7236 88.2944 24.5115 88.2393 24.3231 88.1343C24.1346 88.0293 23.9761 87.878 23.8625 87.6947C23.7489 87.5113 23.6839 87.302 23.6738 87.0865C23.6636 86.8711 23.7086 86.6566 23.8045 86.4634L33.3543 67.2109C33.5037 66.9097 33.7666 66.6802 34.0852 66.5729C34.4038 66.4655 34.7519 66.4892 35.0531 66.6386C35.3543 66.7879 35.5838 67.0509 35.6911 67.3694C35.7984 67.688 35.7748 68.0362 35.6254 68.3374L26.0755 87.5899C25.9706 87.8016 25.8086 87.9797 25.6079 88.1042C25.4071 88.2287 25.1756 88.2946 24.9393 88.2945Z" fill="#F3AF3E"/>
<path d="M29.4143 75.154L23.8054 86.4634C23.656 86.7646 23.6323 87.1128 23.7397 87.4313C23.847 87.7499 24.0765 88.0128 24.3777 88.1622C24.6788 88.3116 25.027 88.3353 25.3456 88.2279C25.6642 88.1206 25.9271 87.8911 26.0765 87.5899L31.6845 76.2816L29.4143 75.154Z" fill="#EA9D2D"/>
<path d="M21.5488 82.4279L30.6318 86.9364L28.3317 91.6254L19.2485 87.1167L21.5488 82.4279Z" fill="#DA922A"/>
<path d="M31.0739 66.0648L37.8882 69.4491C39.1427 70.0722 40.6647 69.5603 41.2878 68.3058C41.9108 67.0513 41.3989 65.5293 40.1445 64.9062L33.3301 61.5219C32.0756 60.8988 30.5536 61.4107 29.9305 62.6652C29.3075 63.9197 29.8194 65.4417 31.0739 66.0648Z" fill="#4799CF"/>
<path d="M65.7818 110.711C66.3699 110.711 66.9337 110.477 67.3496 110.061C67.7654 109.645 67.9993 109.081 68 108.493V102.789C67.9993 102.201 67.7654 101.637 67.3496 101.221C66.9337 100.806 66.3699 100.572 65.7818 100.571H52.7894V96.7683H54.0569C55.0651 96.7672 56.0316 96.3662 56.7445 95.6533C57.4574 94.9404 57.8584 93.9739 57.8596 92.9657V85.3604C57.8584 84.3522 57.4574 83.3857 56.7445 82.6728C56.0316 81.9599 55.0651 81.5589 54.0569 81.5577H34.7193L36.2194 78.5314C36.3687 78.2304 36.3922 77.8823 36.2849 77.5639C36.1776 77.2455 35.9483 76.9826 35.6473 76.8332L32.2436 75.1438L35.0614 69.4734L37.3324 70.6007C37.7797 70.8227 38.2663 70.9545 38.7645 70.9884C39.2628 71.0224 39.7628 70.9579 40.2361 70.7986C40.7094 70.6393 41.1467 70.3884 41.523 70.0601C41.8993 69.7318 42.2072 69.3326 42.4293 68.8853C42.6513 68.438 42.7831 67.9513 42.817 67.4531C42.851 66.9549 42.7865 66.4549 42.6272 65.9816C42.4679 65.5083 42.2169 65.071 41.8886 64.6947C41.5604 64.3184 41.1612 64.0104 40.7139 63.7884L33.9017 60.4064C33.4541 60.1809 32.9663 60.0462 32.4663 60.01C31.9664 59.9737 31.4643 60.0366 30.9888 60.1951C30.5132 60.3536 30.0738 60.6046 29.6956 60.9336C29.3174 61.2625 29.008 61.663 28.7851 62.112C28.5623 62.5609 28.4304 63.0495 28.397 63.5496C28.3637 64.0497 28.4295 64.5515 28.5908 65.0261C28.7521 65.5007 29.0056 65.9387 29.3367 66.315C29.6679 66.6912 30.0701 66.9983 30.5204 67.2185L32.7906 68.3456L29.9734 74.0158L26.5642 72.3241C26.415 72.2501 26.2528 72.2062 26.0866 72.1949C25.9205 72.1836 25.7538 72.2051 25.596 72.2583C25.4382 72.3115 25.2925 72.3952 25.167 72.5047C25.0416 72.6142 24.939 72.7474 24.865 72.8965L7.68734 107.558C7.36357 108.213 7.27532 108.959 7.43746 109.671C7.59961 110.383 8.00223 111.017 8.57748 111.467L6.85836 114.93C6.50795 115.634 6.38511 116.43 6.50683 117.207C6.62855 117.984 6.98882 118.704 7.53777 119.267L0.131621 134.234C0.057756 134.383 0.0139986 134.546 0.00284733 134.712C-0.0083039 134.878 0.0133695 135.044 0.0666301 135.202C0.119891 135.36 0.203695 135.506 0.31326 135.631C0.422824 135.756 0.556001 135.859 0.705189 135.933C0.854376 136.007 1.01665 136.05 1.18275 136.061C1.34885 136.073 1.51552 136.051 1.67324 135.998C1.83096 135.944 1.97665 135.861 2.10198 135.751C2.22732 135.641 2.32984 135.508 2.40371 135.359L9.80668 120.396C9.95745 120.415 10.1092 120.424 10.2611 120.425C10.9697 120.424 11.6641 120.226 12.2663 119.852C12.8686 119.479 13.3549 118.945 13.6707 118.311L15.3899 114.847C15.654 114.918 15.9262 114.954 16.1997 114.955C16.7903 114.954 17.3689 114.789 17.8707 114.477C18.3726 114.166 18.7777 113.721 19.0408 113.193L28.0452 95.0236C28.3894 95.5585 28.8623 95.9985 29.4207 96.3033C29.979 96.6081 30.6049 96.768 31.241 96.7683H32.5085V100.698C31.078 100.992 29.7926 101.77 28.869 102.902C27.9454 104.033 27.4401 105.448 27.4383 106.909V129.725C27.4402 131.405 28.1085 133.016 29.2967 134.204C30.4848 135.392 32.0958 136.061 33.7761 136.062H51.5218C52.0042 136.063 52.485 136.008 52.9549 135.899C53.3122 136.007 53.6835 136.063 54.0569 136.062H64.1973C65.2055 136.061 66.1721 135.66 66.885 134.947C67.5978 134.235 67.9988 133.268 68 132.26V117.049C67.999 116.263 67.7548 115.497 67.3009 114.855C66.847 114.213 66.2057 113.727 65.4649 113.465V110.711H65.7818ZM31.6474 64.9479C31.3463 64.7984 31.1169 64.5354 31.0097 64.2168C30.9025 63.8982 30.9262 63.55 31.0757 63.2489C31.2252 62.9478 31.4882 62.7184 31.8068 62.6112C32.1254 62.504 32.4736 62.5277 32.7747 62.6772L39.5867 66.0587C39.7383 66.1312 39.874 66.2331 39.9859 66.3585C40.0977 66.4839 40.1836 66.6303 40.2383 66.7891C40.2931 66.948 40.3158 67.1161 40.305 67.2838C40.2942 67.4515 40.2501 67.6154 40.1754 67.7659C40.1007 67.9164 39.9968 68.0506 39.8698 68.1606C39.7427 68.2706 39.5951 68.3542 39.4354 68.4066C39.2758 68.4591 39.1073 68.4792 38.9398 68.4659C38.7723 68.4526 38.6091 68.4062 38.4597 68.3292L31.6474 64.9479ZM31.1155 77.4135L33.3854 78.5402L31.5408 82.2625L30.0652 85.24L27.788 84.1096L31.1155 77.4135ZM26.5732 75.1588L28.8447 76.2863L25.5174 82.9824L23.2529 81.8588L26.5732 75.1588ZM11.3998 117.184C11.2489 117.482 10.986 117.709 10.6685 117.815C10.351 117.92 10.0047 117.896 9.70499 117.747C9.4053 117.598 9.17659 117.337 9.06872 117.021C8.96085 116.704 8.98258 116.357 9.12918 116.057L10.8199 112.65L13.0906 113.777L11.3998 117.184ZM25.4945 94.4628L22.0996 92.7771L20.9724 95.048L24.3688 96.7338L23.2438 99.0053L19.8458 97.3186L18.7188 99.5894L22.1181 101.277L20.9923 103.548L17.591 101.86L16.4639 104.131L19.866 105.82L18.741 108.091L15.3367 106.402L14.2097 108.673L17.6148 110.363L16.7705 112.066C16.6956 112.217 16.5641 112.331 16.4048 112.385C16.2455 112.438 16.0715 112.426 15.921 112.352L10.244 109.534C10.0936 109.459 9.97907 109.327 9.92561 109.168C9.87214 109.008 9.88408 108.834 9.95879 108.684L19.8083 88.8091L26.6206 92.1904L25.4945 94.4628ZM28.8041 87.7846L27.746 89.9198L20.9421 86.5424L21.995 84.3961L22.1268 84.1299L28.938 87.5108L28.8041 87.7846ZM31.241 94.2332C30.9049 94.2329 30.5827 94.0992 30.3451 93.8616C30.1075 93.6239 29.9738 93.3017 29.9734 92.9657V91.1569L31.0825 88.8953L33.463 84.0928H54.0569C54.393 84.0932 54.7152 84.2269 54.9528 84.4645C55.1904 84.7021 55.3241 85.0243 55.3245 85.3604V86.6279H47.7192C47.383 86.6279 47.0606 86.7615 46.8229 86.9992C46.5851 87.2369 46.4516 87.5593 46.4516 87.8955C46.4516 88.2317 46.5851 88.5541 46.8229 88.7918C47.0606 89.0295 47.383 89.163 47.7192 89.163H55.3245V92.9657C55.3241 93.3017 55.1904 93.6239 54.9528 93.8616C54.7152 94.0992 54.393 94.2329 54.0569 94.2332H31.241ZM29.9734 106.909C29.9746 105.901 30.3756 104.934 31.0884 104.221C31.8013 103.508 32.7679 103.107 33.7761 103.106C34.1123 103.106 34.4347 102.973 34.6724 102.735C34.9101 102.497 35.0436 102.175 35.0436 101.839V96.7683H50.2543V108.176H29.9734V106.909ZM33.7761 133.527C32.7679 133.526 31.8013 133.125 31.0884 132.412C30.3756 131.699 29.9746 130.733 29.9734 129.725V128.457H50.2543V132.26C50.2541 132.692 50.3278 133.12 50.4723 133.527H33.7761ZM50.2543 117.049V125.922H29.9734V110.711H52.7894V113.465C52.0485 113.727 51.4072 114.213 50.9533 114.855C50.4995 115.497 50.2553 116.263 50.2543 117.049ZM65.4649 132.26C65.4645 132.596 65.3308 132.918 65.0932 133.156C64.8556 133.393 64.5334 133.527 64.1973 133.527H54.0569C53.7208 133.527 53.3987 133.393 53.161 133.156C52.9234 132.918 52.7897 132.596 52.7894 132.26V130.992H65.4649V132.26ZM65.4649 123.387H62.9298C62.5936 123.387 62.2712 123.52 62.0335 123.758C61.7958 123.996 61.6622 124.318 61.6622 124.654C61.6622 124.991 61.7958 125.313 62.0335 125.551C62.2712 125.788 62.5936 125.922 62.9298 125.922H65.4649V128.457H52.7894V120.852H65.4649V123.387ZM65.4649 118.317H52.7894V117.049C52.7897 116.713 52.9234 116.391 53.161 116.153C53.3987 115.916 53.7208 115.782 54.0569 115.782H64.1973C64.5334 115.782 64.8556 115.916 65.0932 116.153C65.3308 116.391 65.4645 116.713 65.4649 117.049V118.317ZM55.3245 113.247V110.711H62.9298V113.247H55.3245ZM52.7894 108.176V103.106H65.4649V108.176H52.7894Z" fill="black"/>
<path d="M44.5502 119.584H40.7475C40.2433 119.584 39.7596 119.785 39.4031 120.141C39.0465 120.498 38.8462 120.981 38.8462 121.486C38.8462 121.99 39.0465 122.473 39.4031 122.83C39.7596 123.187 40.2433 123.387 40.7475 123.387H44.5502C45.0544 123.387 45.538 123.187 45.8946 122.83C46.2512 122.473 46.4515 121.99 46.4515 121.486C46.4515 120.981 46.2512 120.498 45.8946 120.141C45.538 119.785 45.0544 119.584 44.5502 119.584Z" fill="black"/>
<path d="M42.6489 117.049C42.9851 117.049 43.3075 116.916 43.5452 116.678C43.7829 116.44 43.9165 116.118 43.9165 115.782V114.514C43.9165 114.178 43.7829 113.855 43.5452 113.618C43.3075 113.38 42.9851 113.246 42.6489 113.246C42.3127 113.246 41.9903 113.38 41.7526 113.618C41.5149 113.855 41.3813 114.178 41.3813 114.514V115.782C41.3813 116.118 41.5149 116.44 41.7526 116.678C41.9903 116.916 42.3127 117.049 42.6489 117.049Z" fill="black"/>
<path d="M40.1137 117.049V115.782C40.1137 115.445 39.9802 115.123 39.7425 114.885C39.5047 114.648 39.1823 114.514 38.8462 114.514C38.51 114.514 38.1876 114.648 37.9499 114.885C37.7122 115.123 37.5786 115.445 37.5786 115.782V117.049C37.5786 117.385 37.7122 117.708 37.9499 117.945C38.1876 118.183 38.51 118.317 38.8462 118.317C39.1823 118.317 39.5047 118.183 39.7425 117.945C39.9802 117.708 40.1137 117.385 40.1137 117.049Z" fill="black"/>
<path d="M46.4516 114.514C46.1155 114.514 45.7931 114.648 45.5553 114.885C45.3176 115.123 45.1841 115.445 45.1841 115.782V117.049C45.1841 117.385 45.3176 117.708 45.5553 117.945C45.7931 118.183 46.1155 118.317 46.4516 118.317C46.7878 118.317 47.1102 118.183 47.3479 117.945C47.5856 117.708 47.7192 117.385 47.7192 117.049V115.782C47.7192 115.445 47.5856 115.123 47.3479 114.885C47.1102 114.648 46.7878 114.514 46.4516 114.514Z" fill="black"/>
<path d="M56.5923 125.922H57.8598C58.196 125.922 58.5184 125.789 58.7561 125.551C58.9938 125.313 59.1274 124.991 59.1274 124.655C59.1274 124.318 58.9938 123.996 58.7561 123.758C58.5184 123.521 58.196 123.387 57.8598 123.387H56.5923C56.2561 123.387 55.9337 123.521 55.696 123.758C55.4583 123.996 55.3247 124.318 55.3247 124.655C55.3247 124.991 55.4583 125.313 55.696 125.551C55.9337 125.789 56.2561 125.922 56.5923 125.922Z" fill="black"/>
<path d="M40.1137 89.163H42.6488C42.985 89.163 43.3074 89.0295 43.5451 88.7918C43.7829 88.5541 43.9164 88.2317 43.9164 87.8955C43.9164 87.5593 43.7829 87.2369 43.5451 86.9992C43.3074 86.7615 42.985 86.6279 42.6488 86.6279H40.1137C39.7776 86.6279 39.4552 86.7615 39.2174 86.9992C38.9797 87.2369 38.8462 87.5593 38.8462 87.8955C38.8462 88.2317 38.9797 88.5541 39.2174 88.7918C39.4552 89.0295 39.7776 89.163 40.1137 89.163Z" fill="black"/>
</svg>
