<svg width="253" height="138" viewBox="0 0 253 138" fill="none" xmlns="http://www.w3.org/2000/svg">
<path d="M52.8655 98.0241C52.8655 101.365 50.1564 104.075 46.8151 104.075C43.4737 104.075 40.7646 101.365 40.7646 98.0241C40.7646 94.6828 43.4737 91.9737 46.8151 91.9737C50.1564 91.9737 52.8655 94.6828 52.8655 98.0241Z" fill="#89CEEA"/>
<path d="M46.8153 91.9737C46.0129 91.9737 45.2471 92.1315 44.5464 92.4151C46.7633 93.3132 48.3279 95.4852 48.3279 98.0241C48.3279 100.563 46.7633 102.735 44.5464 103.633C45.2471 103.917 46.0129 104.075 46.8153 104.075C50.1566 104.075 52.8657 101.365 52.8657 98.0241C52.8657 94.6828 50.1566 91.9737 46.8153 91.9737Z" fill="#78C0DE"/>
<path d="M37.4368 119.36V135.612H1.13428V119.36C1.13428 113.753 4.95361 109.044 10.1254 107.707C10.5745 107.59 11.0342 107.499 11.5015 107.435C12.0339 107.363 12.5757 107.325 13.1276 107.325H25.4435C25.9954 107.325 26.5372 107.363 27.0695 107.435C27.5411 107.499 28.0025 107.591 28.4551 107.71C33.6222 109.048 37.4368 113.757 37.4368 119.36Z" fill="#E8E1D5"/>
<path d="M28.4552 107.71C28.0026 107.591 27.5411 107.499 27.0696 107.435C26.5373 107.363 25.9954 107.325 25.4436 107.325H20.9058C21.4576 107.325 21.9994 107.363 22.5318 107.435C23.0033 107.499 23.4648 107.591 23.9174 107.71C29.0845 109.048 32.8991 113.757 32.8991 119.36V135.612H37.4369V119.36C37.4369 113.757 33.6223 109.048 28.4552 107.71Z" fill="#D6CFC4"/>
<path d="M28.4552 107.71L19.2903 135.612L10.1255 107.707C10.5745 107.59 11.0342 107.499 11.5016 107.435C12.034 107.363 12.5758 107.325 13.1277 107.325H25.4436C25.9954 107.325 26.5373 107.363 27.0696 107.435C27.5411 107.499 28.0026 107.591 28.4552 107.71Z" fill="#FF573D"/>
<path d="M26.1301 107.324C26.676 107.324 27.0754 107.839 26.9407 108.368C26.2689 111.008 23.0966 113.008 19.2855 113.008C15.4745 113.008 12.3021 111.008 11.6303 108.368C11.4956 107.839 11.895 107.324 12.441 107.324H14.7897V98.4885H23.7814V107.324H26.1301Z" fill="#EBA28C"/>
<path d="M19.2856 135.612C19.3317 135.22 15.4202 110.488 14.7631 106.336C14.7111 106.01 14.4068 105.786 14.0795 105.834L7.79746 106.735C7.51503 106.776 7.29936 107.008 7.27986 107.293L6.71973 115.503L9.36029 117.11L8.62407 120.949L19.2856 135.612Z" fill="#C4BEB4"/>
<path d="M19.2865 135.612C19.2404 135.22 23.1514 110.488 23.809 106.336C23.8604 106.01 24.1653 105.786 24.4926 105.834L30.7747 106.735C31.0571 106.776 31.2728 107.008 31.2922 107.293L31.8524 115.503L29.2118 117.11L29.9474 120.949L19.2865 135.612Z" fill="#C4BEB4"/>
<path d="M8.24363 83.6544C8.24363 85.9097 6.60458 87.7385 4.58324 87.7385C2.5619 87.7385 1.28564 85.6433 1.28564 83.3879C1.28564 80.7261 2.5619 79.5704 4.58324 79.5704C6.60458 79.5704 8.24363 81.3991 8.24363 83.6544Z" fill="#EBA28C"/>
<path d="M30.3276 83.6544C30.3276 85.9097 31.9667 87.7385 33.988 87.7385C36.0094 87.7385 37.2856 85.6433 37.2856 83.3879C37.2856 80.7261 36.0094 79.5704 33.988 79.5704C31.9667 79.5704 30.3276 81.3991 30.3276 83.6544Z" fill="#EBA28C"/>
<path d="M5.97461 88.9095V79.0611C5.97461 72.1297 11.5937 66.5106 18.5251 66.5106H20.046C26.9774 66.5106 32.5965 72.1297 32.5965 79.0611V88.9095C32.5965 96.2545 26.6423 102.208 19.2979 102.208H19.2731C11.9287 102.208 5.97461 96.2545 5.97461 88.9095Z" fill="#FCC19C"/>
<path d="M20.0459 66.5106H18.5251C18.014 66.5106 17.5112 66.5449 17.0166 66.6039C23.236 67.3496 28.0586 72.6408 28.0586 79.0611V88.9095C28.0586 95.4852 23.2862 100.945 17.0166 102.017C17.7499 102.142 18.5038 102.208 19.2731 102.208H19.2979C26.6423 102.208 32.5964 96.2545 32.5964 88.9095V79.0611C32.5964 72.1297 26.9773 66.5106 20.0459 66.5106Z" fill="#EBA28C"/>
<path d="M5.97471 83.5404C5.97471 83.6367 6.06216 83.7082 6.15669 83.6887C6.76174 83.5611 8.67908 83.0381 8.84866 81.5114C9.05014 79.6962 12.489 74.5534 17.9296 74.0494C21.8913 73.6819 23.8164 71.6038 24.5703 70.5013C24.721 70.2809 25.0601 70.3447 25.1163 70.6052C25.4164 72.005 26.2336 74.9256 28.0629 76.5706C30.4807 78.7449 29.7533 83.5286 32.4305 83.717C32.5197 83.723 32.5966 83.655 32.5966 83.5658V79.7866C32.5966 79.386 32.9215 79.0611 33.3221 79.0611H33.3883C33.7245 79.0611 34.017 78.8318 34.0944 78.5045C34.4229 77.1183 35.1243 73.4124 34.0702 70.5196C32.7478 66.8893 29.0437 65.3767 29.0437 65.3767C29.0437 65.3767 27.7869 60.4359 20.0827 60.4359C12.3779 60.4359 9.35621 63.6803 9.35621 63.6803C9.35621 63.6803 3.50432 68.6974 4.00832 73.0875C4.34689 76.0382 4.47628 77.9626 4.52414 78.9074C4.54423 79.2933 4.86271 79.5958 5.24913 79.5958C5.64973 79.5958 5.97471 79.9208 5.97471 80.3214V83.5404Z" fill="#633327"/>
<path d="M34.0702 70.5202C32.7478 66.8899 29.0437 65.3767 29.0437 65.3767C29.0437 65.3767 27.7869 60.4359 20.0827 60.4359C19.1787 60.4359 18.342 60.482 17.5645 60.5606C23.4754 61.3281 24.5059 65.3767 24.5059 65.3767C24.5059 65.3767 28.21 66.8899 29.5324 70.5202C30.5864 73.4124 29.8845 77.1183 29.556 78.5051C29.5359 78.5907 29.4999 78.6699 29.4526 78.7396C30.3341 80.9772 30.47 83.5794 32.4305 83.717C32.5197 83.723 32.5966 83.655 32.5966 83.5658V79.7866C32.5966 79.386 32.9215 79.0611 33.3221 79.0611H33.3883C33.7239 79.0611 34.0164 78.8318 34.0938 78.5045C34.4229 77.1183 35.1243 73.4124 34.0702 70.5202Z" fill="#572D22"/>
<path d="M13.3917 74.0493C9.35494 74.4233 6.42249 77.3505 5.09424 79.578C5.14387 79.5887 5.19587 79.5957 5.24904 79.5957C5.64965 79.5957 5.97462 79.9207 5.97462 80.3213V83.5403C5.97462 83.6366 6.06207 83.7081 6.15661 83.6886C6.76165 83.561 8.67899 83.0381 8.84857 81.5119C9.05005 79.6968 12.4889 74.5539 17.9295 74.0493C19.2991 73.9223 20.4253 73.5908 21.3435 73.166C18.8572 73.5199 17.3534 73.6824 13.3917 74.0493Z" fill="#572D22"/>
<path d="M17.0889 85.5002C17.0889 87.5883 15.3961 89.2817 13.3074 89.2817C11.2187 89.2817 9.52588 87.5883 9.52588 85.5002C9.52588 83.4115 11.2187 81.7187 13.3074 81.7187C15.3961 81.7187 17.0889 83.4115 17.0889 85.5002Z" fill="#CEE8F2"/>
<path d="M29.0454 85.5002C29.0454 87.5883 27.3526 89.2817 25.2639 89.2817C23.1752 89.2817 21.4824 87.5883 21.4824 85.5002C21.4824 83.4115 23.1752 81.7187 25.2639 81.7187C27.3526 81.7187 29.0454 83.4115 29.0454 85.5002Z" fill="#CEE8F2"/>
<path d="M54 98.0241C54 94.0624 50.7769 90.8393 46.8151 90.8393C42.8534 90.8393 39.6303 94.0624 39.6303 98.0241C39.6303 101.6 42.256 104.573 45.6807 105.119V106.572C45.6807 111.137 42.3984 114.947 38.0704 115.772C37.1995 112.7 35.2301 110.003 32.4944 108.252L32.4235 107.216C32.368 106.403 31.7423 105.728 30.9357 105.612L28.941 105.326C32.8726 103.27 35.5634 99.1533 35.5634 94.4175V88.5414C37.2662 87.7887 38.4202 85.8211 38.4202 83.3879C38.4202 80.7432 37.2786 79.0469 35.2425 78.5724C35.6177 76.915 36.244 73.1713 35.1362 70.1314C33.9426 66.8562 31.0935 65.1303 29.9519 64.5507C29.3487 63.1001 27.0993 59.3015 20.0828 59.3015C12.4317 59.3015 9.04963 62.3834 8.57931 62.8525C8.00322 63.3548 2.33154 68.4332 2.88163 73.2168C3.17647 75.7847 3.31001 77.5644 3.36909 78.5629C1.30758 79.0238 0.151261 80.7255 0.151261 83.3879C0.151261 85.8382 1.32117 87.8152 3.04235 88.5568V94.4175C3.04235 99.1503 5.73017 103.264 9.65763 105.322L7.63629 105.612C6.82918 105.728 6.20345 106.403 6.14791 107.216L6.0776 108.252C2.3144 110.66 0 114.859 0 119.36V127.066C0 127.692 0.508141 128.201 1.13445 128.201C1.76077 128.201 2.26891 127.692 2.26891 127.066V119.36C2.26891 116.242 3.61016 113.299 5.87257 111.253L5.58778 115.426C5.55882 115.849 5.76799 116.252 6.1296 116.472L8.09776 117.669L7.50985 120.736C7.45076 121.044 7.52226 121.363 7.7066 121.616L17.0582 134.478H2.26891V131.888C2.26891 131.261 1.76077 130.753 1.13445 130.753C0.508141 130.753 0 131.261 0 131.888V135.612C0 136.239 0.508141 136.747 1.13445 136.747H37.437C38.0633 136.747 38.5714 136.239 38.5714 135.612V119.36C38.5714 118.902 38.5472 118.448 38.4999 117.999C43.8744 116.973 47.9496 112.241 47.9496 106.572V105.119C51.3742 104.573 54 101.6 54 98.0241ZM35.7501 115.94H32.8968C32.9636 115.78 32.9967 115.605 32.9842 115.426L32.6995 111.254C34.1069 112.526 35.1568 114.146 35.7501 115.94ZM30.6734 114.892L29.0113 115.904C27.0319 115.736 25.2256 114.952 23.7875 113.743C23.8489 113.352 24.5574 108.863 24.8475 107.03L30.1895 107.798L30.6734 114.892ZM19.2739 103.342H19.2975C20.4503 103.342 21.5718 103.206 22.6465 102.95V104.453H15.9249V102.95C16.9997 103.206 18.1211 103.342 19.2739 103.342ZM15.9728 106.722H18.1725C18.1962 108.573 18.6547 110.322 19.45 111.87C19.395 111.871 19.3407 111.873 19.2857 111.873C18.4071 111.873 17.5362 111.75 16.7308 111.517C16.4933 110.014 16.241 108.419 15.9728 106.722ZM21.8436 111.501C20.9785 110.107 20.4692 108.472 20.4414 106.722H22.5993C22.3316 108.412 22.0799 110.003 21.8436 111.501ZM19.2857 114.142C19.8293 114.142 20.3629 114.106 20.8852 114.034C21.0382 114.217 21.1972 114.393 21.3602 114.565C20.4225 120.52 19.7572 124.785 19.2863 127.844C18.7988 124.679 18.1034 120.223 17.1131 113.94C17.8162 114.073 18.5418 114.142 19.2857 114.142ZM24.9154 104.314V102.204C29.0367 100.456 32.183 96.846 33.2944 92.4352V94.4175C33.2944 99.3867 29.6636 103.522 24.9154 104.314ZM36.1513 83.3879C36.1513 84.9691 35.3424 86.604 33.9881 86.604C33.9019 86.604 33.8162 86.5981 33.7311 86.588V80.7208C33.8162 80.7107 33.9019 80.7048 33.9881 80.7048C35.0576 80.7048 36.1513 81.0239 36.1513 83.3879ZM10.0949 64.5418C10.1268 64.5146 10.1575 64.4851 10.1865 64.4538C10.213 64.4248 12.9546 61.5704 20.0828 61.5704C26.7323 61.5704 27.9005 65.5008 27.9442 65.6568C28.0263 66.013 28.2739 66.2854 28.6113 66.4261C28.6438 66.4391 31.877 67.814 33.0043 70.9083C33.8965 73.3569 33.3447 76.6237 33.0581 77.9455C32.157 78.0743 31.4622 78.8507 31.4622 79.7866V81.2478C31.3493 80.9311 31.2329 80.5559 31.1029 80.1199C30.6563 78.6208 30.1493 76.9209 28.821 75.7268C27.2038 74.2721 26.467 71.4945 26.2254 70.3671C26.1048 69.8058 25.6629 69.3709 25.0998 69.2598C24.5349 69.1487 23.9594 69.3845 23.6339 69.8607C22.9467 70.8658 21.2787 72.5994 17.8251 72.9196C17.7767 72.9244 17.7282 72.9291 17.6803 72.9344C17.057 73.0012 16.6062 73.5601 16.6729 74.1829C16.7397 74.8062 17.2998 75.2559 17.9214 75.1903C17.9592 75.1862 17.9965 75.1826 18.0343 75.1791C21.1853 74.8866 23.1996 73.6145 24.4209 72.4268C24.9273 74.0612 25.8118 76.0713 27.3043 77.4137C28.1575 78.1812 28.5492 79.4965 28.9286 80.7686C29.3735 82.26 29.9124 84.0627 31.4622 84.6565V88.9089C31.4622 95.617 26.0056 101.074 19.2975 101.074H19.2739C12.5658 101.074 7.10924 95.617 7.10924 88.9089V84.6075C7.72788 84.4072 8.26142 84.1318 8.69689 83.795C8.49954 84.3268 8.39141 84.9011 8.39141 85.5002C8.39141 88.2105 10.5965 90.4162 13.3074 90.4162C15.6277 90.4162 17.5758 88.7996 18.0898 86.6347H20.4816C20.9951 88.7996 22.9437 90.4162 25.264 90.4162C27.9743 90.4162 30.18 88.2105 30.18 85.5002C30.18 82.7894 27.9743 80.5843 25.264 80.5843C22.9437 80.5843 20.9951 82.2003 20.4816 84.3658H18.0898C17.5758 82.2003 15.6277 80.5843 13.3074 80.5843C11.9986 80.5843 10.8086 81.0995 9.92647 81.9362C9.94774 81.8381 9.96488 81.7382 9.9761 81.6366C10.073 80.7663 11.5141 78.2994 13.9236 76.6864C14.4442 76.3378 14.5836 75.6329 14.2356 75.1123C13.887 74.5918 13.1821 74.4523 12.6616 74.8009C9.8532 76.6805 7.91045 79.6826 7.72138 81.3861C7.68711 81.691 7.43422 81.9409 7.10924 82.1341V80.3208C7.10924 80.319 7.10924 80.3178 7.10924 80.3166C7.10747 79.7843 6.88117 79.3051 6.52015 78.9665C6.50775 78.9541 6.49475 78.9417 6.48175 78.9293C6.4717 78.9204 6.46107 78.9121 6.45102 78.9039C6.43448 78.8897 6.41735 78.8755 6.39962 78.8625C6.18041 78.6888 5.92161 78.5624 5.63859 78.5021C5.5795 77.487 5.44302 75.6364 5.13518 72.958C4.77948 69.8578 8.59467 65.8311 10.0949 64.5418ZM10.6603 85.5002C10.6603 84.0408 11.848 82.8532 13.3074 82.8532C14.7668 82.8532 15.9544 84.0408 15.9544 85.5002C15.9544 86.9597 14.7668 88.1473 13.3074 88.1473C11.848 88.1473 10.6603 86.9597 10.6603 85.5002ZM22.617 85.5002C22.617 84.0408 23.8046 82.8532 25.264 82.8532C26.7235 82.8532 27.9111 84.0408 27.9111 85.5002C27.9111 86.9597 26.7235 88.1473 25.264 88.1473C23.8046 88.1473 22.617 86.9597 22.617 85.5002ZM4.58331 80.7048C4.66958 80.7048 4.75525 80.7119 4.84034 80.722V86.588C4.75525 86.5981 4.66958 86.604 4.58331 86.604C3.22906 86.604 2.42017 84.9691 2.42017 83.3879C2.42017 81.0239 3.51385 80.7048 4.58331 80.7048ZM5.31125 94.4175V92.5711C6.4528 96.9198 9.57727 100.474 13.656 102.204V104.307C8.92496 103.501 5.31125 99.3749 5.31125 94.4175ZM9.94951 116.14L7.89804 114.892L8.30042 109.004C8.30101 108.996 8.3016 108.99 8.3016 108.983L8.38255 107.797L13.7245 107.03C14.0152 108.868 16.8525 126.924 17.5108 131.242L9.83075 120.68L10.4742 117.323C10.5634 116.858 10.3543 116.386 9.94951 116.14ZM36.3025 134.478H21.5139L26.4865 127.638C26.8552 127.132 26.743 126.422 26.236 126.053C25.7296 125.685 25.02 125.798 24.6513 126.304L21.0613 131.242C21.6072 127.659 22.4504 122.249 23.3892 116.273C24.8191 117.222 26.47 117.862 28.2467 118.101L28.7407 120.68L27.5093 122.373C27.1412 122.88 27.2535 123.59 27.7598 123.958C28.2668 124.326 28.9764 124.214 29.3445 123.708L30.8648 121.617C31.0498 121.363 31.1207 121.044 31.0616 120.736L30.5777 118.209H36.2405C36.2807 118.588 36.3019 118.973 36.3019 119.36V134.478H36.3025ZM46.8151 102.94C44.1043 102.94 41.8992 100.735 41.8992 98.0241C41.8992 95.3133 44.1043 93.1082 46.8151 93.1082C49.526 93.1082 51.7311 95.3133 51.7311 98.0241C51.7311 100.735 49.526 102.94 46.8151 102.94Z" fill="black"/>
<g opacity="0.05">
<path d="M195.034 80.9799C194.948 71.9945 190.353 63.7782 182.743 59.0021C175.132 54.226 165.736 53.6619 157.608 57.4924L138.02 66.7213C134.771 68.2522 132.156 70.7364 130.459 73.9028C128.761 77.0699 128.142 80.6224 128.667 84.1781C129.194 87.7325 130.816 90.9541 133.358 93.4947C135.899 96.0352 139.123 97.6546 142.679 98.1786L142.918 98.2129C151.827 99.5929 159.823 104.65 164.887 112.116C166.194 114.041 167.854 115.642 169.783 116.853C170.832 117.511 171.961 118.054 173.156 118.472C176.549 119.657 180.155 119.716 183.586 118.645C187.016 117.573 189.947 115.471 192.062 112.565C194.176 109.659 195.276 106.224 195.242 102.631L195.034 80.9799Z" fill="#78C0DE"/>
<path d="M150.388 52.9339C154.042 53.6507 157.768 52.6818 160.879 50.2051C163.841 47.8486 165.896 44.3802 166.667 40.4375C167.435 36.4964 166.837 32.5098 164.982 29.211C163.032 25.7464 159.947 23.4448 156.296 22.7331C148.955 21.2955 141.655 26.9005 140.021 35.2316C138.728 41.8674 141.416 48.2553 146.273 51.3037C147.513 52.0821 148.895 52.6426 150.388 52.9339Z" fill="#78C0DE"/>
<path d="M177.184 52.8892C184.577 57.5289 194.893 54.4509 200.179 46.0278C205.467 37.6025 203.753 26.9736 196.36 22.3338C188.967 17.6945 178.652 20.7743 173.364 29.1996C168.078 37.6228 169.792 48.2499 177.184 52.8892Z" fill="#78C0DE"/>
<path d="M197.985 71.1741L197.986 71.1745C198.886 72.2657 199.933 73.1742 201.088 73.8993C206.48 77.2829 214.197 76.6561 219.987 71.8834C223.32 69.1364 225.548 65.4179 226.259 61.4137C227.005 57.2222 226.021 53.2229 223.489 50.1517C220.957 47.08 217.218 45.3519 212.961 45.284C208.895 45.219 204.82 46.6971 201.488 49.445C194.458 55.2411 192.887 64.9888 197.985 71.1741Z" fill="#78C0DE"/>
<path d="M227.34 87.1113L227.339 87.1079C224.604 80.142 215.955 76.9892 208.055 80.0808C200.159 83.1779 195.952 91.3641 198.677 98.328C199.671 100.869 201.452 102.903 203.697 104.312C207.611 106.768 212.935 107.325 217.962 105.36C225.858 102.263 230.065 94.077 227.34 87.1113Z" fill="#78C0DE"/>
</g>
</svg>
