<svg width="253" height="138" viewBox="0 0 253 138" fill="none" xmlns="http://www.w3.org/2000/svg">
<g opacity="0.05">
<path d="M195.034 80.9799C194.948 71.9945 190.353 63.7782 182.743 59.0021C175.132 54.226 165.736 53.6619 157.608 57.4924L138.02 66.7213C134.771 68.2522 132.156 70.7364 130.459 73.9028C128.761 77.0699 128.142 80.6224 128.667 84.1781C129.194 87.7325 130.816 90.9541 133.358 93.4947C135.899 96.0352 139.123 97.6546 142.679 98.1786L142.918 98.2129C151.827 99.5929 159.823 104.65 164.887 112.116C166.194 114.041 167.854 115.642 169.783 116.853C170.832 117.511 171.961 118.054 173.156 118.472C176.549 119.657 180.155 119.716 183.586 118.645C187.016 117.573 189.947 115.471 192.062 112.565C194.176 109.659 195.276 106.224 195.242 102.631L195.034 80.9799Z" fill="#949494"/>
<path d="M150.388 52.9339C154.042 53.6507 157.768 52.6818 160.879 50.2051C163.841 47.8486 165.896 44.3802 166.667 40.4375C167.435 36.4964 166.837 32.5098 164.982 29.211C163.032 25.7464 159.947 23.4448 156.296 22.7331C148.955 21.2955 141.655 26.9005 140.021 35.2316C138.728 41.8674 141.416 48.2553 146.273 51.3037C147.513 52.0821 148.895 52.6426 150.388 52.9339Z" fill="#949494"/>
<path d="M177.184 52.8892C184.577 57.5289 194.893 54.4509 200.179 46.0278C205.467 37.6025 203.753 26.9736 196.36 22.3338C188.967 17.6945 178.652 20.7743 173.364 29.1996C168.078 37.6228 169.792 48.2499 177.184 52.8892Z" fill="#949494"/>
<path d="M197.985 71.1741L197.986 71.1745C198.886 72.2657 199.933 73.1742 201.088 73.8993C206.48 77.2829 214.197 76.6561 219.987 71.8834C223.32 69.1364 225.548 65.4179 226.259 61.4137C227.005 57.2222 226.021 53.2229 223.489 50.1517C220.957 47.08 217.218 45.3519 212.961 45.284C208.895 45.219 204.82 46.6971 201.488 49.445C194.458 55.2411 192.887 64.9888 197.985 71.1741Z" fill="#949494"/>
<path d="M227.34 87.1113L227.339 87.1079C224.604 80.142 215.955 76.9892 208.055 80.0808C200.159 83.1779 195.952 91.3641 198.677 98.328C199.671 100.869 201.452 102.903 203.697 104.312C207.611 106.768 212.935 107.325 217.962 105.36C225.858 102.263 230.065 94.077 227.34 87.1113Z" fill="#949494"/>
</g>
<path d="M52.4453 127.799V116.286H60.1206V130.357C60.1206 131.714 59.5815 133.016 58.6219 133.975C57.6623 134.935 56.3608 135.474 55.0037 135.474H52.4453V127.799Z" fill="#F6BB92"/>
<path d="M56.283 104.773L57.3629 102.214L58.3207 99.945C58.8338 98.7249 58.9718 97.3795 58.7171 96.0806C58.4624 94.7817 57.8266 93.5881 56.8907 92.6521C55.6415 91.4026 54.9398 89.7081 54.9399 87.9413V81.7467H26.861V87.9418C26.8611 89.7086 26.1594 91.4031 24.9102 92.6525C23.9743 93.5885 23.3384 94.7819 23.0836 96.0808C22.8288 97.3796 22.9667 98.7249 23.4796 99.945L24.4934 102.357L56.283 104.773Z" fill="#834B10"/>
<path d="M60.1205 109.995C60.1205 108.179 59.476 106.421 58.3016 105.034C57.1272 103.648 55.4991 102.723 53.707 102.424L52.4452 102.214L45.8388 101.113L40.9322 106.052L35.974 101.075L26.8608 102.214V135.474H52.4452V125.24C53.6023 124.083 54.3329 122.567 54.5176 120.941C54.7024 119.314 54.3305 117.673 53.4625 116.286H60.1205V109.995Z" fill="#85BC94"/>
<path d="M55.0036 83.026H26.8608V75.3506C26.8608 71.6187 28.3434 68.0396 30.9823 65.4007C33.6212 62.7618 37.2003 61.2793 40.9322 61.2793C44.6642 61.2793 48.2433 62.7618 50.8822 65.4007C53.5211 68.0396 55.0036 71.6187 55.0036 75.3506V83.026Z" fill="#834B10"/>
<path d="M51.166 79.1883H49.8868V71.513H31.9777V79.1883H30.6985C29.6807 79.1883 28.7046 79.5926 27.9849 80.3123C27.2652 81.032 26.8608 82.0081 26.8608 83.0259C26.8608 84.0438 27.2652 85.0199 27.9849 85.7396C28.7046 86.4593 29.6807 86.8636 30.6985 86.8636H31.9777V88.1428C31.9777 90.5177 32.9211 92.7953 34.6004 94.4746C36.2797 96.1539 38.5573 97.0973 40.9322 97.0973C43.3071 97.0973 45.5847 96.1539 47.264 94.4746C48.9433 92.7953 49.8868 90.5177 49.8868 88.1428V86.8636H51.166C52.1838 86.8636 53.1599 86.4593 53.8796 85.7396C54.5993 85.0199 55.0036 84.0438 55.0036 83.0259C55.0036 82.0081 54.5993 81.032 53.8796 80.3123C53.1599 79.5926 52.1838 79.1883 51.166 79.1883Z" fill="#F6BB92"/>
<path d="M39.6533 110.937V135.474H11.0308C11.985 133.988 13.0957 132.61 14.3439 131.361L14.4383 131.267C16.7255 128.983 18.5552 126.284 19.8286 123.313C20.3307 122.143 20.8312 120.972 21.1957 120.123C21.5267 119.351 21.7442 118.844 21.7442 118.844H18.0633C16.9224 118.843 15.8146 118.461 14.9154 117.759C14.0163 117.057 13.3773 116.075 13.0999 114.968L12.4699 112.448L12.3052 111.789C12.2109 111.412 12.2038 111.018 12.2845 110.638C12.3651 110.258 12.5314 109.901 12.7706 109.594C13.0098 109.288 13.3157 109.04 13.6651 108.869C14.0145 108.699 14.3981 108.61 14.7869 108.61H19.1858C20.0106 106.133 21.6946 104.034 23.9333 102.691L24.4929 102.356C25.9317 101.494 27.5647 101.007 29.2411 100.943C30.9174 100.878 32.583 101.237 34.0839 101.987L34.1398 102.016C35.7965 102.844 37.1898 104.118 38.1636 105.693C39.1374 107.269 39.6532 109.085 39.6533 110.937Z" fill="#BD9070"/>
<path d="M39.6533 111.169V114.798C39.6533 115.604 39.3999 116.389 38.9289 117.042C38.4579 117.696 37.7933 118.184 37.0292 118.439C36.2415 118.702 35.3899 118.702 34.6022 118.439C33.8381 118.184 33.1734 117.696 32.7025 117.042C32.2315 116.389 31.978 115.604 31.978 114.798V108.61H37.0949L39.6533 111.169Z" fill="#9E785D"/>
<path d="M27.7659 117.191L25.2075 119.749C24.9673 119.989 24.6418 120.123 24.3025 120.123H21.1956C21.5266 119.351 21.744 118.844 21.744 118.844H18.0631C16.8173 118.845 15.6143 118.39 14.6812 117.565H23.7732L25.9559 115.38C26.1959 115.14 26.5214 115.006 26.8609 115.006C27.2004 115.006 27.5259 115.14 27.7659 115.38C28.006 115.621 28.1408 115.946 28.1408 116.286C28.1408 116.625 28.006 116.951 27.7659 117.191Z" fill="#9E785D"/>
<path d="M16.6275 108.61V110.156C16.6275 110.764 16.3861 111.347 15.9563 111.777C15.5266 112.206 14.9437 112.448 14.336 112.448H12.4701L12.3054 111.789C12.2111 111.412 12.204 111.018 12.2847 110.638C12.3653 110.258 12.5315 109.901 12.7708 109.594C13.01 109.288 13.3159 109.04 13.6653 108.869C14.0147 108.699 14.3983 108.61 14.7871 108.61H16.6275Z" fill="#9E785D"/>
<path d="M20.5952 132.314C20.3577 132.314 20.1249 132.248 19.923 132.123C19.721 131.998 19.5579 131.819 19.4517 131.606C19.3456 131.394 19.3007 131.156 19.3221 130.92C19.3435 130.683 19.4302 130.457 19.5727 130.267C21.0985 128.234 22.2859 125.968 23.089 123.556C23.1409 123.395 23.2241 123.246 23.334 123.118C23.4438 122.989 23.578 122.884 23.7288 122.808C23.8796 122.731 24.0441 122.686 24.2127 122.673C24.3813 122.661 24.5507 122.682 24.711 122.735C24.8714 122.789 25.0196 122.874 25.147 122.985C25.2745 123.096 25.3786 123.231 25.4535 123.383C25.5283 123.534 25.5724 123.699 25.5831 123.868C25.5938 124.036 25.571 124.206 25.516 124.365C24.626 127.038 23.3102 129.549 21.6195 131.802C21.5003 131.961 21.3457 132.091 21.1679 132.179C20.99 132.268 20.7939 132.314 20.5952 132.314Z" fill="#9E785D"/>
<path d="M30.6987 79.1883C31.9013 78.7875 33.0022 78.1294 33.9245 77.2598C34.8469 76.3902 35.5686 75.3301 36.0395 74.1531L37.0948 71.513L30.6987 70.2337V79.1883Z" fill="#834B10"/>
<path d="M37.0947 71.5129L37.2446 71.7376C38.7725 74.0295 40.8426 75.9087 43.2711 77.2085C45.6997 78.5082 48.4116 79.1883 51.1661 79.1882V70.2337L37.0947 71.5129Z" fill="#834B10"/>
<path d="M36.1352 83.3457C37.0183 83.3457 37.7342 82.6298 37.7342 81.7467C37.7342 80.8636 37.0183 80.1476 36.1352 80.1476C35.252 80.1476 34.5361 80.8636 34.5361 81.7467C34.5361 82.6298 35.252 83.3457 36.1352 83.3457Z" fill="#834B10"/>
<path d="M45.7294 83.3457C46.6125 83.3457 47.3284 82.6298 47.3284 81.7467C47.3284 80.8636 46.6125 80.1476 45.7294 80.1476C44.8463 80.1476 44.1304 80.8636 44.1304 81.7467C44.1304 82.6298 44.8463 83.3457 45.7294 83.3457Z" fill="#834B10"/>
<path d="M40.9323 88.1427H38.3739C38.1559 88.1427 37.9414 88.087 37.751 87.9808C37.5605 87.8746 37.4004 87.7215 37.2858 87.536C37.1711 87.3505 37.1058 87.1388 37.096 86.921C37.0862 86.7031 37.1323 86.4864 37.2298 86.2914L39.7882 81.1745C39.8626 81.0229 39.9662 80.8876 40.0931 80.7762C40.22 80.6649 40.3677 80.5797 40.5276 80.5257C40.6876 80.4717 40.8566 80.4499 41.0251 80.4616C41.1935 80.4732 41.358 80.5181 41.509 80.5936C41.66 80.6691 41.7945 80.7738 41.9049 80.9015C42.0152 81.0293 42.0992 81.1776 42.152 81.338C42.2047 81.4984 42.2252 81.6676 42.2122 81.8359C42.1993 82.0043 42.1531 82.1684 42.0764 82.3188L40.4437 85.5843H40.9323C41.2716 85.5843 41.597 85.7191 41.8369 85.959C42.0768 86.1989 42.2116 86.5242 42.2116 86.8635C42.2116 87.2028 42.0768 87.5282 41.8369 87.7681C41.597 88.008 41.2716 88.1427 40.9323 88.1427Z" fill="#834B10"/>
<path d="M48.6078 112.448C48.2686 112.448 47.9432 112.313 47.7033 112.073C47.4634 111.833 47.3286 111.508 47.3286 111.169V102.214C47.3286 101.875 47.4634 101.55 47.7033 101.31C47.9432 101.07 48.2686 100.935 48.6078 100.935C48.9471 100.935 49.2725 101.07 49.5124 101.31C49.7523 101.55 49.887 101.875 49.887 102.214V111.169C49.887 111.508 49.7523 111.833 49.5124 112.073C49.2725 112.313 48.9471 112.448 48.6078 112.448Z" fill="#C3C3C3"/>
<path d="M48.6077 118.844C50.7271 118.844 52.4453 117.126 52.4453 115.006C52.4453 112.887 50.7271 111.169 48.6077 111.169C46.4882 111.169 44.77 112.887 44.77 115.006C44.77 117.126 46.4882 118.844 48.6077 118.844Z" fill="#E4E4E2"/>
<path d="M48.6078 116.286C49.3143 116.286 49.887 115.713 49.887 115.006C49.887 114.3 49.3143 113.727 48.6078 113.727C47.9013 113.727 47.3286 114.3 47.3286 115.006C47.3286 115.713 47.9013 116.286 48.6078 116.286Z" fill="#C3C3C3"/>
<path d="M53.7246 135.474H34.5364C33.5186 135.474 32.5425 135.069 31.8228 134.35C31.1031 133.63 30.6987 132.654 30.6987 131.636C30.6987 130.618 31.1031 129.642 31.8228 128.923C32.5425 128.203 33.5186 127.798 34.5364 127.798H35.8156C35.8156 127.12 36.0851 126.469 36.5649 125.989C37.0447 125.51 37.6955 125.24 38.374 125.24H38.5936C39.2721 125.24 39.9228 125.51 40.4026 125.989L42.2117 127.798H53.7246V135.474Z" fill="#F6BB92"/>
<path d="M11.1734 129.535C10.9844 129.954 10.8879 130.408 10.8907 130.868C10.8934 131.327 10.9953 131.781 11.1893 132.197C11.3833 132.613 11.665 132.983 12.0149 133.28C12.3649 133.578 12.775 133.796 13.2171 133.921L18.1412 135.312C19.1206 135.589 20.1699 135.465 21.0581 134.968C21.9464 134.472 22.601 133.642 22.8778 132.663C23.1545 131.683 23.0308 130.634 22.534 129.746C22.0372 128.858 21.2079 128.203 20.2285 127.927L18.9973 127.579C19.0887 127.255 19.1155 126.917 19.0762 126.584C19.0369 126.25 18.9323 125.927 18.7683 125.634C18.6043 125.341 18.3841 125.083 18.1204 124.875C17.8566 124.666 17.5545 124.512 17.2312 124.421L17.0199 124.361C16.6966 124.27 16.3585 124.243 16.0248 124.282C15.6911 124.322 15.3684 124.426 15.0752 124.59C13.625 125.402 12.4733 126.657 11.7894 128.171L11.1734 129.535Z" fill="#F6BB92"/>
<path d="M4.50968 94.348C5.36131 94.348 6.17805 94.6863 6.78029 95.2885L8.39818 96.9064L10.0159 95.2885C10.6182 94.6864 11.4349 94.3481 12.2865 94.348C13.0027 94.348 13.6984 94.5874 14.2629 95.0281C14.8274 95.4689 15.2284 96.0857 15.402 96.7806C15.5985 97.5661 15.5472 98.3933 15.2552 99.1486C14.9632 99.9039 14.4448 100.55 13.771 101L8.39834 104.581L3.02562 101C2.35184 100.55 1.83343 99.9039 1.54144 99.1486C1.24946 98.3933 1.19817 97.5661 1.39462 96.7806C1.56828 96.0858 1.96917 95.469 2.53359 95.0283C3.098 94.5875 3.79355 94.3481 4.50968 94.348Z" fill="#DC4D41"/>
<path d="M30.6987 79.1882H31.9779V86.8635H30.6987V79.1882Z" fill="#EEB58E"/>
<path d="M49.8867 79.1882H51.1659V86.8635H49.8867V79.1882Z" fill="#EEB58E"/>
<path d="M35.9741 101.075L40.9324 106.052L45.839 101.113C45.5403 101.063 45.2689 100.909 45.0732 100.678C44.8775 100.447 44.77 100.154 44.77 99.8513V95.8181H37.0947V99.8057C37.0947 100.118 36.9808 100.419 36.7745 100.652C36.5681 100.886 36.2835 101.036 35.9741 101.075Z" fill="#F6BB92"/>
<path d="M40.9326 97.0973C38.5577 97.0973 36.28 96.1539 34.6007 94.4746C32.9214 92.7953 31.978 90.5177 31.978 88.1428V86.8636H49.8871V88.1428C49.8871 90.5177 48.9437 92.7953 47.2644 94.4746C45.5851 96.1539 43.3074 97.0973 40.9326 97.0973Z" fill="#85BC94"/>
<path d="M25.582 111.169C26.2884 111.169 26.8612 110.596 26.8612 109.889C26.8612 109.183 26.2884 108.61 25.582 108.61C24.8755 108.61 24.3027 109.183 24.3027 109.889C24.3027 110.596 24.8755 111.169 25.582 111.169Z" fill="#9E785D"/>
<path d="M36.1352 83.3457C37.0183 83.3457 37.7342 82.6298 37.7342 81.7467C37.7342 80.8636 37.0183 80.1477 36.1352 80.1477C35.252 80.1477 34.5361 80.8636 34.5361 81.7467C34.5361 82.6298 35.252 83.3457 36.1352 83.3457Z" fill="black"/>
<path d="M45.7294 83.3457C46.6125 83.3457 47.3284 82.6298 47.3284 81.7467C47.3284 80.8636 46.6125 80.1477 45.7294 80.1477C44.8463 80.1477 44.1304 80.8636 44.1304 81.7467C44.1304 82.6298 44.8463 83.3457 45.7294 83.3457Z" fill="black"/>
<path d="M48.6078 116.286C49.3143 116.286 49.887 115.713 49.887 115.006C49.887 114.3 49.3143 113.727 48.6078 113.727C47.9013 113.727 47.3286 114.3 47.3286 115.006C47.3286 115.713 47.9013 116.286 48.6078 116.286Z" fill="black"/>
<path d="M58.319 103.238L59.4997 100.441C60.1152 98.9872 60.2817 97.3824 59.9778 95.833C59.6739 94.2837 58.9134 92.8606 57.7942 91.747C57.2941 91.2474 56.8975 90.6541 56.6269 90.0011C56.3564 89.3481 56.2173 88.6482 56.2175 87.9413L56.2831 75.3506C56.2831 71.2794 54.6658 67.3749 51.787 64.4961C48.9082 61.6173 45.0037 60 40.9325 60C36.8612 60 32.9568 61.6173 30.078 64.4961C27.1992 67.3749 25.5819 71.2794 25.5819 75.3506V87.9413C25.5777 89.3678 25.0114 90.7352 24.0057 91.747C22.8895 92.8624 22.131 94.2852 21.8272 95.8337C21.5234 97.3821 21.6879 98.986 22.2999 100.441L22.8874 101.838C20.8436 103.169 19.2461 105.083 18.301 107.331H14.7869C14.2037 107.329 13.6278 107.461 13.1036 107.717C12.5794 107.973 12.1209 108.345 11.7633 108.806C11.6721 108.922 11.5877 109.044 11.5105 109.17C11.1301 109.789 10.9349 110.504 10.9481 111.23C10.9536 111.523 10.9923 111.815 11.0635 112.1L11.2282 112.759L11.8581 115.278C12.2023 116.663 13.0003 117.892 14.1248 118.77C15.2493 119.648 16.6355 120.125 18.0623 120.123H19.8032L18.6519 122.81C18.5535 123.04 18.4493 123.27 18.3426 123.499C18.0998 123.369 17.8438 123.265 17.5789 123.19L17.3674 123.13C16.8826 122.991 16.3752 122.95 15.8745 123.009C15.3738 123.068 14.8898 123.226 14.4504 123.473C12.764 124.422 11.4234 125.883 10.6233 127.644L10.0072 129.009C9.65967 129.778 9.53708 130.63 9.65367 131.466C9.77026 132.302 10.1213 133.088 10.666 133.733C10.4197 134.078 10.1824 134.428 9.95431 134.782C9.82998 134.975 9.76001 135.198 9.75176 135.428C9.74352 135.658 9.79729 135.885 9.90743 136.087C10.0176 136.289 10.18 136.457 10.3777 136.574C10.5754 136.691 10.801 136.753 11.0308 136.753H55.0039C56.6996 136.751 58.3254 136.077 59.5245 134.878C60.7236 133.678 61.3981 132.053 61.4 130.357V109.995C61.4001 108.714 61.1252 107.447 60.5936 106.282C60.0621 105.116 59.2864 104.078 58.319 103.238ZM58.8415 109.995V115.006H54.1322C53.9936 114.823 53.8499 114.643 53.6964 114.47C53.5855 113.434 53.1616 112.456 52.4811 111.666C51.8005 110.877 50.8957 110.314 49.887 110.051V103.085L52.235 103.476H52.2363L53.497 103.687C54.9907 103.935 56.3479 104.705 57.3267 105.86C58.3055 107.016 58.8423 108.481 58.8415 109.995ZM51.4568 124.428C51.4512 124.435 51.4462 124.443 51.4408 124.45C51.4205 124.476 51.4005 124.502 51.3821 124.53C51.3776 124.537 51.3739 124.544 51.3695 124.551C51.3512 124.579 51.3336 124.608 51.3176 124.637C51.3149 124.642 51.3128 124.648 51.3101 124.653C51.2941 124.685 51.2781 124.717 51.2639 124.751C51.2625 124.754 51.2615 124.758 51.2601 124.762C51.2459 124.797 51.2329 124.832 51.2217 124.869C51.2206 124.872 51.2199 124.876 51.2188 124.88C51.2083 124.916 51.1987 124.952 51.1913 124.99C51.1892 125 51.1884 125.01 51.1865 125.02C51.1813 125.051 51.1758 125.082 51.1726 125.114C51.1685 125.156 51.1662 125.199 51.1662 125.242V126.521H42.7416L41.3078 125.087C41.1898 124.97 41.0645 124.861 40.9325 124.76V110.937C40.9327 109.646 40.711 108.364 40.2769 107.148C40.5476 107.311 40.8694 107.368 41.1797 107.307C41.49 107.247 41.7666 107.073 41.9559 106.819L45.3399 102.307C45.4344 102.335 45.5305 102.357 45.6277 102.374L47.3286 102.658V110.051C46.5267 110.258 45.7869 110.656 45.1728 111.212C44.5587 111.767 44.0885 112.464 43.8028 113.241C43.517 114.018 43.4242 114.853 43.5322 115.674C43.6403 116.495 43.9459 117.278 44.423 117.954C44.9001 118.631 45.5343 119.182 46.2713 119.56C47.0082 119.938 47.8258 120.131 48.6538 120.123C49.4819 120.115 50.2957 119.907 51.0253 119.515C51.7549 119.123 52.3786 118.56 52.8428 117.875C53.2861 118.96 53.3991 120.152 53.1675 121.301C52.936 122.45 52.3703 123.506 51.5414 124.335C51.5116 124.365 51.4835 124.396 51.4568 124.428ZM30.6962 80.4675H30.6987V85.5844C30.3628 85.5845 30.03 85.5185 29.7196 85.3901C29.4091 85.2617 29.127 85.0734 28.8893 84.8359C28.4092 84.3563 28.1394 83.7057 28.139 83.0272C28.1387 82.3487 28.4079 81.6978 28.8875 81.2177C29.367 80.7377 30.0176 80.4678 30.6962 80.4675ZM53.7247 83.0259C53.7239 83.7042 53.454 84.3545 52.9744 84.8341C52.4948 85.3137 51.8445 85.5835 51.1662 85.5844V80.4675C51.8445 80.4683 52.4948 80.7381 52.9744 81.2177C53.454 81.6973 53.7239 82.3476 53.7247 83.0259ZM48.6078 85.5844H40.4438L42.0766 82.3188C42.1533 82.1684 42.1994 82.0043 42.2124 81.836C42.2253 81.6677 42.2049 81.4984 42.1521 81.3381C42.0993 81.1777 42.0154 81.0293 41.905 80.9016C41.7946 80.7738 41.6601 80.6692 41.5091 80.5936C41.3581 80.5181 41.1936 80.4733 41.0252 80.4616C40.8568 80.45 40.6877 80.4718 40.5278 80.5258C40.3678 80.5798 40.2201 80.6649 40.0932 80.7763C39.9663 80.8876 39.8627 81.023 39.7884 81.1746L37.5835 85.5844H33.2572V79.3827C35.0506 78.258 36.4407 76.5931 37.2272 74.6277L37.4327 74.1139C40.2698 77.4779 44.2495 79.6753 48.6078 80.2842V85.5844ZM38.3675 88.1428H38.3731H38.3776H48.6078C48.6078 90.1784 47.7991 92.1306 46.3597 93.57C44.9203 95.0094 42.9681 95.8181 40.9325 95.8181C38.8969 95.8181 36.9446 95.0094 35.5052 93.57C34.0658 92.1306 33.2572 90.1784 33.2572 88.1428H38.3675ZM40.9325 98.3765C41.7955 98.377 42.6552 98.2682 43.4909 98.0527V99.8508C43.4916 100.043 43.5136 100.234 43.5566 100.421L40.9325 103.92L38.2994 100.409C38.3482 100.212 38.3733 100.009 38.374 99.8061V98.0527C39.2098 98.2682 40.0694 98.377 40.9325 98.3765ZM38.374 114.798C38.374 115.477 38.1045 116.128 37.6247 116.608C37.1449 117.087 36.4941 117.357 35.8156 117.357C35.1371 117.357 34.4863 117.087 34.0065 116.608C33.5267 116.128 33.2572 115.477 33.2572 114.798V109.889H36.5651L38.374 111.698V114.798ZM51.1662 115.006C51.1662 115.512 51.0162 116.007 50.735 116.428C50.4539 116.848 50.0543 117.176 49.5869 117.37C49.1194 117.564 48.6049 117.614 48.1087 117.516C47.6124 117.417 47.1565 117.173 46.7987 116.815C46.4409 116.458 46.1972 116.002 46.0985 115.505C45.9998 115.009 46.0505 114.495 46.2441 114.027C46.4377 113.56 46.7657 113.16 47.1864 112.879C47.6071 112.598 48.1018 112.448 48.6078 112.448C49.2861 112.449 49.9364 112.718 50.416 113.198C50.8957 113.678 51.1655 114.328 51.1662 115.006ZM57.1418 99.4479L56.1334 101.836C55.4273 101.517 54.6826 101.291 53.9181 101.164L52.6568 100.953H52.6559L46.0494 99.8508V96.9998C47.604 96.1018 48.8951 94.8107 49.7932 93.2561C50.6914 91.7016 51.1648 89.9381 51.1662 88.1428C52.0393 88.1435 52.8978 87.9194 53.6591 87.4921V87.9413C53.6589 88.9843 53.8643 90.0171 54.2636 90.9806C54.6629 91.9441 55.2483 92.8195 55.9862 93.5566C56.7444 94.3113 57.2596 95.2756 57.4655 96.3254C57.6714 97.3752 57.5587 98.4626 57.1418 99.4479ZM40.9325 62.5584C44.325 62.5592 47.5783 63.9071 49.9771 66.306C52.376 68.7048 53.7239 71.9581 53.7247 75.3506V78.5974C52.9477 78.1459 52.0649 77.9083 51.1662 77.909C50.7665 77.909 50.3697 77.8931 49.9845 77.8632C47.6458 77.6916 45.3775 76.9863 43.3537 75.8016C41.33 74.6169 39.6046 72.9843 38.3101 71.0289L38.1598 70.8035C38.0305 70.6095 37.8506 70.4545 37.6397 70.3553C37.4287 70.2562 37.1947 70.2165 36.9628 70.2406C36.731 70.2648 36.5101 70.3518 36.3241 70.4924C36.1381 70.6329 35.9941 70.8216 35.9076 71.038L34.8522 73.678C34.4622 74.6551 33.8691 75.5381 33.1121 76.2686C32.3552 76.9991 31.4516 77.5605 30.4613 77.9154C29.644 77.9525 28.8478 78.1865 28.1403 78.5974V75.3506C28.1442 71.9591 29.4931 68.7076 31.8913 66.3094C34.2895 63.9113 37.541 62.5623 40.9325 62.5584ZM25.8148 93.5566C26.5545 92.8209 27.1409 91.9457 27.54 90.9819C27.9392 90.018 28.1432 88.9846 28.1403 87.9413V87.4552C28.9174 87.9065 29.8001 88.1437 30.6987 88.1428C30.7001 89.9381 31.1736 91.7016 32.0718 93.2561C32.9699 94.8107 34.261 96.1017 35.8156 96.9998V99.8062L32.9543 100.164C32.7122 100.088 32.4652 100.018 32.2109 99.9573C29.8468 99.3985 27.3654 99.6203 25.1378 100.589L24.6581 99.4495C24.2431 98.4636 24.1315 97.3763 24.3375 96.3266C24.5434 95.277 25.0577 94.3125 25.8145 93.5566H25.8148ZM14.7869 109.889H15.3481V110.156C15.3478 110.425 15.2411 110.682 15.0513 110.872C14.8615 111.062 14.6042 111.168 14.3358 111.169H13.5093C13.5093 111.161 13.5093 111.153 13.5102 111.145C13.5112 111.092 13.5155 111.038 13.5232 110.985C13.5254 110.969 13.5275 110.953 13.5304 110.937C13.5411 110.876 13.5564 110.816 13.5759 110.758C13.578 110.751 13.581 110.745 13.5831 110.739C13.6025 110.686 13.6254 110.634 13.6516 110.584C13.6591 110.569 13.667 110.554 13.6751 110.54C13.7061 110.484 13.7412 110.431 13.7801 110.38C13.8993 110.227 14.052 110.103 14.2265 110.018C14.401 109.933 14.5927 109.889 14.7869 109.889ZM24.3027 120.123C24.4706 120.123 24.637 120.09 24.7922 120.026C24.9474 119.962 25.0884 119.867 25.2072 119.749L27.7657 117.19C27.8844 117.071 27.9787 116.93 28.043 116.775C28.1072 116.62 28.1403 116.454 28.1403 116.286C28.1403 116.118 28.1072 115.951 28.043 115.796C27.9787 115.641 27.8844 115.5 27.7657 115.381C27.6469 115.262 27.5058 115.168 27.3506 115.104C27.1954 115.039 27.0291 115.006 26.8611 115.006C26.6931 115.006 26.5267 115.039 26.3715 115.104C26.2163 115.168 26.0753 115.262 25.9565 115.381L23.7729 117.565H18.0633C17.2072 117.566 16.3754 117.28 15.7007 116.753C15.026 116.226 14.5472 115.488 14.3407 114.658L14.1082 113.727H14.3358C15.2825 113.726 16.1901 113.349 16.8595 112.68C17.5289 112.011 17.9055 111.103 17.9066 110.156V109.889H19.1858C19.4542 109.889 19.7159 109.805 19.9337 109.648C20.1515 109.491 20.3144 109.27 20.3993 109.015C21.1272 106.829 22.6132 104.975 24.5887 103.789L25.1513 103.453C27.0939 102.287 29.4151 101.926 31.6201 102.447C31.898 102.513 32.1667 102.59 32.4263 102.679C32.7936 102.804 33.1521 102.953 33.4994 103.125L33.5674 103.16C34.1478 103.45 34.6936 103.805 35.1942 104.218C35.2075 104.229 35.2211 104.24 35.2348 104.25C36.2794 105.116 37.106 106.215 37.6481 107.459C37.4756 107.375 37.2865 107.332 37.0948 107.331H31.978C31.6387 107.331 31.3133 107.466 31.0734 107.706C30.8335 107.946 30.6987 108.271 30.6987 108.61V114.798C30.6962 115.698 30.931 116.582 31.3796 117.361C31.8282 118.14 32.4746 118.787 33.2535 119.236C34.0323 119.686 34.916 119.921 35.8151 119.919C36.7142 119.918 37.597 119.679 38.374 119.226V123.961C37.5801 123.961 36.8056 124.206 36.1572 124.665C35.5088 125.123 35.0184 125.771 34.7535 126.519H34.5364C33.638 126.519 32.7553 126.755 31.9771 127.204C31.1989 127.653 30.5528 128.299 30.1039 129.077C29.6549 129.855 29.4188 130.738 29.4196 131.636C29.4203 132.535 29.6577 133.417 30.1079 134.195H23.6082C24.0775 133.386 24.3166 132.465 24.2997 131.531C24.2828 130.596 24.0105 129.684 23.5123 128.893C24.3211 127.45 24.9922 125.935 25.5166 124.366C25.624 124.044 25.5991 123.693 25.4475 123.389C25.2958 123.086 25.0298 122.855 24.708 122.747C24.3862 122.64 24.0348 122.665 23.7313 122.817C23.4278 122.968 23.197 123.234 23.0896 123.556C22.6822 124.775 22.1764 125.959 21.5774 127.097C21.259 126.928 20.9236 126.793 20.5769 126.695L20.3678 126.636C20.3453 126.286 20.2743 125.94 20.1569 125.609C20.4632 125.02 20.7475 124.419 21.0043 123.817L22.5874 120.123H24.3027ZM12.3394 130.062L12.9555 128.697C13.5293 127.434 14.4905 126.387 15.6998 125.707C15.8462 125.625 16.0075 125.572 16.1744 125.553C16.3413 125.533 16.5104 125.546 16.672 125.592L16.8833 125.652C17.2096 125.745 17.4859 125.963 17.6515 126.259C17.817 126.555 17.8584 126.905 17.7665 127.231C17.6742 127.558 17.7154 127.907 17.881 128.203C18.0466 128.499 18.323 128.718 18.6495 128.81L19.8807 129.158C20.5299 129.346 21.0784 129.783 21.4065 130.373C21.7346 130.964 21.8156 131.661 21.6319 132.311C21.4482 132.961 21.0146 133.513 20.4259 133.844C19.8371 134.176 19.141 134.262 18.4896 134.082L13.5646 132.691C13.2996 132.616 13.0539 132.485 12.8443 132.307C12.6346 132.129 12.4658 131.907 12.3496 131.658C12.2333 131.408 12.1723 131.137 12.1707 130.861C12.1691 130.586 12.2269 130.314 12.3402 130.063L12.3394 130.062ZM58.8415 130.357C58.8403 131.374 58.4356 132.35 57.7162 133.069C56.9967 133.789 56.0213 134.193 55.0039 134.195H34.5364C33.8579 134.195 33.2071 133.925 32.7273 133.445C32.2475 132.965 31.978 132.315 31.978 131.636C31.978 130.958 32.2475 130.307 32.7273 129.827C33.2071 129.347 33.8579 129.078 34.5364 129.078H35.8156C36.1549 129.078 36.4803 128.943 36.7202 128.703C36.9601 128.463 37.0948 128.138 37.0948 127.799C37.0944 127.63 37.1272 127.464 37.1914 127.309C37.2555 127.153 37.3497 127.012 37.4686 126.893C37.5875 126.774 37.7287 126.68 37.884 126.616C38.0394 126.552 38.2059 126.519 38.374 126.519H38.5931C38.9323 126.522 39.2571 126.656 39.4986 126.895L41.3071 128.703C41.4259 128.822 41.5669 128.916 41.7222 128.98C41.8774 129.045 42.0437 129.078 42.2117 129.078H52.4454C52.7847 129.078 53.1101 128.943 53.35 128.703C53.5899 128.463 53.7247 128.138 53.7247 127.799V125.746C54.6911 124.645 55.3577 123.314 55.6602 121.882C55.9626 120.449 55.8908 118.962 55.4516 117.565H58.8415V130.357Z" fill="black"/>
<path d="M16.6433 96.4703C16.4505 95.6995 16.0566 94.9936 15.5019 94.4247C14.9471 93.8559 14.2513 93.4444 13.4856 93.2323C12.7199 93.0201 11.9115 93.015 11.1432 93.2174C10.3748 93.4197 9.67383 93.8223 9.11189 94.3841L8.39872 95.0973L7.6854 94.3841C7.12349 93.8223 6.42256 93.4196 5.65418 93.2172C4.88579 93.0148 4.07746 93.0199 3.31169 93.232C2.54593 93.4442 1.85016 93.8556 1.29541 94.4245C0.740653 94.9934 0.346782 95.6993 0.154003 96.4702C-0.104858 97.5117 -0.0361423 98.6078 0.350776 99.6089C0.737693 100.61 1.42398 101.467 2.31604 102.064L7.68876 105.646C7.89889 105.786 8.14578 105.861 8.39832 105.861C8.65087 105.861 8.89776 105.786 9.10789 105.646L14.4806 102.064C15.3728 101.467 16.0592 100.61 16.4462 99.6091C16.8333 98.608 16.9021 97.5119 16.6433 96.4703ZM13.0615 99.9353L8.39792 103.044L3.73485 99.9353C3.28117 99.6318 2.93213 99.1958 2.73534 98.6868C2.53854 98.1777 2.50358 97.6203 2.63521 97.0906C2.7182 96.7589 2.88771 96.4552 3.12644 96.2104C3.36517 95.9656 3.66457 95.7886 3.99409 95.6973C4.3236 95.6061 4.67142 95.6039 5.00206 95.691C5.3327 95.7781 5.63431 95.9513 5.8761 96.1931L7.49384 97.811C7.61262 97.9297 7.75365 98.024 7.90885 98.0883C8.06406 98.1526 8.23041 98.1857 8.3984 98.1857C8.5664 98.1857 8.73275 98.1526 8.88795 98.0883C9.04316 98.024 9.18418 97.9297 9.30297 97.811L10.9207 96.1931C11.1625 95.9513 11.4641 95.778 11.7948 95.6909C12.1254 95.6037 12.4733 95.6059 12.8028 95.6972C13.1324 95.7885 13.4318 95.9656 13.6705 96.2104C13.9092 96.4552 14.0787 96.759 14.1616 97.0908C14.2931 97.6205 14.2581 98.1779 14.0612 98.6869C13.8643 99.196 13.5152 99.6319 13.0615 99.9353Z" fill="black"/>
<path d="M25.582 111.169C26.2884 111.169 26.8612 110.596 26.8612 109.889C26.8612 109.183 26.2884 108.61 25.582 108.61C24.8755 108.61 24.3027 109.183 24.3027 109.889C24.3027 110.596 24.8755 111.169 25.582 111.169Z" fill="black"/>
</svg>
