<svg width="252" height="138" viewBox="0 0 252 138" fill="none" xmlns="http://www.w3.org/2000/svg">
<g opacity="0.05">
<path d="M194.034 80.9799C193.948 71.9944 189.353 63.7781 181.743 59.0021C174.132 54.226 164.736 53.6619 156.608 57.4924L137.02 66.7213C133.771 68.2522 131.156 70.7364 129.459 73.9028C127.761 77.0698 127.142 80.6224 127.667 84.178C128.194 87.7325 129.816 90.9541 132.358 93.4946C134.899 96.0352 138.123 97.6545 141.679 98.1786L141.918 98.2129C150.827 99.5929 158.823 104.65 163.887 112.116C165.194 114.041 166.854 115.642 168.783 116.853C169.832 117.511 170.961 118.054 172.156 118.472C175.549 119.657 179.155 119.716 182.586 118.645C186.016 117.573 188.947 115.471 191.062 112.565C193.176 109.659 194.276 106.224 194.242 102.631L194.034 80.9799Z" fill="#78C0DE"/>
<path d="M149.388 52.9338C153.042 53.6507 156.768 52.6818 159.879 50.2051C162.841 47.8486 164.896 44.3802 165.667 40.4375C166.435 36.4964 165.837 32.5098 163.982 29.211C162.032 25.7463 158.947 23.4448 155.296 22.7331C147.955 21.2954 140.655 26.9005 139.021 35.2316C137.728 41.8673 140.416 48.2553 145.273 51.3037C146.513 52.0821 147.895 52.6426 149.388 52.9338Z" fill="#78C0DE"/>
<path d="M176.184 52.8891C183.577 57.5289 193.893 54.4509 199.179 46.0278C204.467 37.6025 202.753 26.9735 195.36 22.3338C187.967 17.6945 177.652 20.7743 172.364 29.1996C167.078 37.6227 168.792 48.2499 176.184 52.8891Z" fill="#78C0DE"/>
<path d="M196.985 71.1741L196.986 71.1746C197.886 72.2657 198.933 73.1742 200.088 73.8993C205.48 77.2829 213.197 76.6561 218.987 71.8834C222.32 69.1364 224.548 65.418 225.259 61.4137C226.005 57.2222 225.021 53.2229 222.489 50.1517C219.957 47.08 216.218 45.3519 211.961 45.284C207.895 45.2191 203.82 46.6972 200.488 49.4451C193.458 55.2411 191.887 64.9888 196.985 71.1741Z" fill="#78C0DE"/>
<path d="M226.34 87.1113L226.339 87.1079C223.604 80.142 214.955 76.9892 207.055 80.0808C199.159 83.1778 194.952 91.3641 197.677 98.328C198.671 100.869 200.452 102.903 202.697 104.312C206.611 106.768 211.935 107.325 216.962 105.36C224.858 102.263 229.065 94.077 226.34 87.1113Z" fill="#78C0DE"/>
</g>
<path d="M1.30029 60.3004H76.7003V77.2004H1.30029V60.3004Z" fill="#F9ADB1"/>
<path d="M70.8498 70.7005C69.2983 70.7005 67.8103 71.3168 66.7132 72.4139C65.6161 73.511 64.9998 74.999 64.9998 76.5505V77.2005C64.9998 75.4766 64.315 73.8233 63.096 72.6043C61.877 71.3853 60.2237 70.7005 58.4998 70.7005C56.7759 70.7005 55.1226 71.3853 53.9036 72.6043C52.6846 73.8233 51.9998 75.4766 51.9998 77.2005L40.0934 78.3911L40.2998 77.883L27.1861 73.4565C26.4122 74.5514 25.9977 75.8597 25.9998 77.2005C25.9998 75.4766 25.315 73.8233 24.096 72.6043C22.877 71.3853 21.2237 70.7005 19.4998 70.7005C17.7759 70.7005 16.1226 71.3853 14.9036 72.6043C13.6846 73.8233 12.9998 75.4766 12.9998 77.2005V76.5505C12.9998 74.999 12.3835 73.511 11.2864 72.4139C10.1893 71.3168 8.70132 70.7005 7.1498 70.7005C5.59829 70.7005 4.11032 71.3168 3.01323 72.4139C1.91614 73.511 1.2998 74.999 1.2998 76.5505C1.29979 81.2992 1.88221 86.03 3.034 90.637L6.4998 104.5L12.0178 86.8428C12.6687 84.76 12.9998 82.5905 12.9998 80.4084V81.0818C12.9998 81.9122 13.1634 82.7345 13.4813 83.5017C13.7991 84.2689 14.265 84.9659 14.8523 85.553L19.2756 89.9762C19.3353 90.0359 19.4162 90.0695 19.5006 90.0695C19.585 90.0695 19.666 90.0359 19.7257 89.9762L24.1489 85.553C24.7361 84.966 25.202 84.2691 25.5198 83.5021C25.8377 82.735 26.0013 81.9129 26.0014 81.0826C26.0017 82.7587 26.6674 84.366 27.8523 85.5514L32.2756 89.9746C32.3052 90.0044 32.3404 90.028 32.3791 90.0441C32.4179 90.0602 32.4595 90.0684 32.5014 90.0684C32.5434 90.0684 32.585 90.0602 32.6237 90.0441C32.6625 90.028 32.6977 90.0044 32.7273 89.9746L37.1506 85.5514C38.3349 84.3657 39 82.7584 38.9998 81.0826C39 82.7587 39.6658 84.366 40.8507 85.5514L45.2739 89.9746C45.3035 90.0044 45.3387 90.028 45.3775 90.0441C45.4163 90.0602 45.4578 90.0684 45.4998 90.0684C45.5418 90.0684 45.5833 90.0602 45.6221 90.0441C45.6609 90.028 45.6961 90.0044 45.7257 89.9746L50.1489 85.5514C51.3338 84.366 51.9996 82.7587 51.9998 81.0826C51.9999 81.9129 52.1636 82.735 52.4814 83.5021C52.7993 84.2691 53.2651 84.966 53.8523 85.553L58.2756 89.9762C58.3352 90.0359 58.4162 90.0695 58.5006 90.0695C58.585 90.0695 58.666 90.0359 58.7257 89.9762L63.1489 85.553C63.7359 84.9658 64.2015 84.2687 64.5191 83.5015C64.8367 82.7343 65 81.9121 64.9998 81.0818V80.4084C64.9998 82.5907 65.3309 84.7604 65.9818 86.8434L71.4998 104.5L74.9656 90.637C76.1174 86.03 76.6998 81.2992 76.6998 76.5505C76.6998 74.999 76.0835 73.511 74.9864 72.4139C73.8893 71.3168 72.4013 70.7005 70.8498 70.7005Z" fill="#E4E4E2"/>
<path d="M50.3467 68.1003C50.1081 68.1004 49.8741 68.0344 49.6707 67.9097C48.4819 67.184 47.1159 66.8001 45.7231 66.8003H45.277C44.194 66.7987 43.1234 67.0309 42.1383 67.4809C41.825 67.6205 41.4692 67.6307 41.1484 67.5091C40.8276 67.3876 40.5679 67.1441 40.4258 66.8319C40.2837 66.5196 40.2708 66.1639 40.3899 65.8422C40.509 65.5205 40.7505 65.2589 41.0616 65.1144C42.3846 64.51 43.8225 64.1982 45.277 64.2003H45.7231C47.5938 64.2003 49.4283 64.716 51.025 65.6908C51.267 65.8385 51.454 66.0613 51.5576 66.3252C51.6612 66.5891 51.6757 66.8797 51.5989 67.1526C51.5221 67.4255 51.3582 67.6658 51.1321 67.8369C50.906 68.008 50.6302 68.1005 50.3467 68.1003Z" fill="#EEA5A9"/>
<path d="M57.1997 92.8003H59.7997V95.4003H57.1997V92.8003Z" fill="#C0F5F9"/>
<path d="M57.1997 98.0005H59.7997V103.2H57.1997V98.0005Z" fill="#C0F5F9"/>
<path d="M38.9998 77.2005V78.5005L36.1999 79.3845C35.3134 79.6734 34.3666 79.7246 33.4541 79.533C32.5416 79.3414 31.6953 78.9137 30.9999 78.2925C30.9382 78.2357 30.8764 78.1772 30.8163 78.117L28.1123 75.413C27.5868 74.8872 27.2595 74.1958 27.186 73.456C27.9813 72.3272 29.1154 71.481 30.4239 71.04C31.7325 70.599 33.1474 70.5862 34.4637 71.0034C35.78 71.4206 36.9293 72.2462 37.7449 73.3604C38.5604 74.4747 39 75.8197 38.9998 77.2005Z" fill="#FBB540"/>
<path d="M33.8 77.2005C34.518 77.2005 35.1 76.6184 35.1 75.9005C35.1 75.1825 34.518 74.6005 33.8 74.6005C33.082 74.6005 32.5 75.1825 32.5 75.9005C32.5 76.6184 33.082 77.2005 33.8 77.2005Z" fill="#DA922A"/>
<path d="M52 77.2005H49.6925C49.2028 77.2004 48.7207 77.3213 48.289 77.5523C47.8572 77.7833 47.4892 78.1174 47.2176 78.5249C46.7325 79.2535 46.0114 79.793 45.1755 80.0528C44.3396 80.3126 43.4397 80.2769 42.627 79.9516L39 78.5005V77.2005C39.0002 75.6198 39.5762 74.0934 40.6203 72.9066C41.6644 71.7198 43.1051 70.9541 44.6729 70.7525C44.7265 70.746 44.7818 70.7395 44.8354 70.7346C44.889 70.7298 44.9459 70.7233 44.9995 70.72C45.1019 70.7119 45.2026 70.707 45.3034 70.7037C45.37 70.7021 45.435 70.7005 45.5 70.7005C45.8313 70.7007 46.1621 70.7256 46.4896 70.7753C46.5969 70.7915 46.7041 70.811 46.8097 70.8321C47.1238 70.8979 47.4328 70.9858 47.7344 71.0954C47.8335 71.1311 47.9326 71.1701 48.0285 71.2108C49.2051 71.7094 50.2091 72.5431 50.9153 73.6082C51.6215 74.6733 51.9987 75.9226 52 77.2005Z" fill="#FBB540"/>
<path d="M44.1999 77.2005C44.9179 77.2005 45.4999 76.6184 45.4999 75.9005C45.4999 75.1825 44.9179 74.6005 44.1999 74.6005C43.4819 74.6005 42.8999 75.1825 42.8999 75.9005C42.8999 76.6184 43.4819 77.2005 44.1999 77.2005Z" fill="#DA922A"/>
<path d="M53.2998 108.4C52.955 108.4 52.6244 108.263 52.3806 108.02C52.1368 107.776 51.9998 107.445 51.9998 107.1V82.4005C51.9998 82.1747 52.0586 81.9529 52.1703 81.7568C52.2821 81.5607 52.4429 81.397 52.6371 81.282L55.8608 79.3716C55.8963 79.2735 55.9077 79.1682 55.8939 79.0648C55.8802 78.9613 55.8417 78.8627 55.7817 78.7772C55.7218 78.6918 55.6422 78.622 55.5496 78.5738C55.457 78.5257 55.3542 78.5005 55.2498 78.5005H48.0998C47.755 78.5005 47.4244 78.3635 47.1806 78.1197C46.9368 77.8759 46.7998 77.5452 46.7998 77.2005C46.7998 76.8557 46.9368 76.525 47.1806 76.2812C47.4244 76.0374 47.755 75.9005 48.0998 75.9005H55.2498C55.8534 75.9005 56.445 76.0685 56.9584 76.3858C57.4719 76.7031 57.8868 77.1572 58.1567 77.697C58.4266 78.2369 58.5409 78.8412 58.4867 79.4423C58.4325 80.0434 58.2119 80.6176 57.8498 81.1005C57.7474 81.2368 57.6193 81.3517 57.4726 81.4386L54.5998 83.1413V107.1C54.5998 107.445 54.4628 107.776 54.219 108.02C53.9752 108.263 53.6446 108.4 53.2998 108.4Z" fill="#6CBAE5"/>
<path d="M53.2999 107.1C54.3342 107.1 55.3262 107.511 56.0576 108.243C56.789 108.974 57.1999 109.966 57.1999 111V135.7H49.3999V111C49.3999 109.966 49.8108 108.974 50.5422 108.243C51.2736 107.511 52.2656 107.1 53.2999 107.1Z" fill="#428DC5"/>
<path d="M53.2998 118.8H57.1998V121.4H53.2998V118.8Z" fill="#3775A4"/>
<path d="M53.2998 124H57.1998V126.6H53.2998V124Z" fill="#3775A4"/>
<path d="M53.2998 129.2H57.1998V131.8H53.2998V129.2Z" fill="#3775A4"/>
<path d="M49.3999 114.9H57.1999V111C57.1999 109.966 56.789 108.974 56.0576 108.243C55.3262 107.511 54.3342 107.1 53.2999 107.1C52.2656 107.1 51.2736 107.511 50.5422 108.243C49.8108 108.974 49.3999 109.966 49.3999 111V114.9Z" fill="#4799CF"/>
<path d="M57.1997 92.8003H59.7997V95.4003H57.1997V92.8003Z" fill="black"/>
<path d="M57.1997 98.0005H59.7997V103.2H57.1997V98.0005Z" fill="black"/>
<path d="M76.7 59H1.3C0.955218 59 0.624558 59.137 0.380761 59.3808C0.136964 59.6246 0 59.9552 0 60.3V77.2C0 77.2392 0.00243739 77.2777 0.00584989 77.3159C0.0653977 81.9143 0.658427 86.4902 1.77304 90.9519L5.23884 104.815C5.30748 105.09 5.46421 105.336 5.68512 105.513C5.90603 105.691 6.17901 105.792 6.46246 105.8H6.50032C6.77731 105.8 7.04704 105.711 7.27019 105.547C7.49334 105.383 7.65824 105.152 7.74085 104.888L13.2589 87.2301C13.3768 86.8528 13.481 86.4721 13.5791 86.0902C13.6929 86.2202 13.8092 86.3478 13.9323 86.4709L18.3557 90.8942C18.6594 91.1973 19.0709 91.3676 19.5 91.3676C19.9291 91.3676 20.3406 91.1973 20.6443 90.8942L25.0677 86.4709C25.4147 86.1238 25.7278 85.7444 26.0026 85.3377C26.2748 85.7445 26.5859 86.1238 26.9316 86.4703L31.3547 90.8934C31.6587 91.1968 32.0708 91.3673 32.5003 91.3673C32.9299 91.3673 33.3419 91.1968 33.6459 90.8934L38.069 86.4703C38.4156 86.1227 38.7274 85.7421 39 85.3339C39.2728 85.7421 39.5848 86.1227 39.9316 86.4703L44.3547 90.8934C44.6587 91.1968 45.0708 91.3673 45.5003 91.3673C45.9299 91.3673 46.3419 91.1968 46.6459 90.8934L51.069 86.4703C51.4147 86.1238 51.7259 85.7445 51.998 85.3377L52.0006 85.3414V105.965C50.885 106.254 49.8969 106.906 49.1911 107.817C48.4852 108.728 48.1015 109.847 48.1 111V135.7C48.1 136.045 48.237 136.375 48.4808 136.619C48.7246 136.863 49.0552 137 49.4 137H57.2C57.5448 137 57.8754 136.863 58.1192 136.619C58.363 136.375 58.5 136.045 58.5 135.7V111C58.4985 109.847 58.1149 108.728 57.4092 107.817C56.7035 106.906 55.7155 106.254 54.6 105.965V88.1384L57.3557 90.894C57.6594 91.1972 58.0709 91.3674 58.5 91.3674C58.9291 91.3674 59.3406 91.1972 59.6443 90.894L64.0677 86.4708C64.1907 86.3476 64.3074 86.2199 64.4208 86.09C64.5183 86.4719 64.6232 86.8527 64.7411 87.23L70.2591 104.888C70.3418 105.152 70.5067 105.383 70.7299 105.547C70.9531 105.711 71.2229 105.8 71.5 105.8H71.5379C71.8212 105.792 72.0942 105.691 72.3151 105.514C72.536 105.336 72.6927 105.091 72.7615 104.816L76.2273 90.9524C77.3419 86.4909 77.9349 81.9152 77.9945 77.317C77.9979 77.2785 78.0003 77.2398 78.0003 77.2005V60.3C78.0003 60.1293 77.9667 59.9602 77.9013 59.8024C77.836 59.6447 77.7402 59.5014 77.6194 59.3806C77.4987 59.2599 77.3553 59.1642 77.1976 59.0989C77.0398 59.0336 76.8707 59 76.7 59ZM75.4 61.6V71.0386C74.6225 70.3954 73.7174 69.9242 72.7445 69.6563C71.7716 69.3883 70.753 69.3297 69.7557 69.4842C68.7585 69.6387 67.8054 70.0029 66.9592 70.5527C66.113 71.1025 65.393 71.8255 64.8466 72.6739C64.1134 71.6435 63.1404 70.807 62.0116 70.2368C60.8828 69.6666 59.6321 69.3798 58.3676 69.4011C57.1032 69.4224 55.8629 69.7513 54.754 70.3592C53.645 70.9672 52.7008 71.8359 52.0028 72.8905C51.714 72.4571 51.383 72.0533 51.0148 71.6851C50.1981 70.8677 49.2099 70.2422 48.1217 69.8537C47.0335 69.4652 45.8725 69.3235 44.7229 69.4389C43.5732 69.5543 42.4636 69.9238 41.4743 70.5208C40.485 71.1177 39.6408 71.9272 39.0028 72.8905C38.714 72.4571 38.383 72.0533 38.0148 71.6851C37.2108 70.8812 36.2409 70.2627 35.1728 69.873C34.1047 69.4833 32.9644 69.3319 31.8317 69.4292C30.6989 69.5265 29.6011 69.8703 28.6152 70.4364C27.6293 71.0026 26.779 71.7774 26.124 72.7067C26.1193 72.7134 26.1149 72.7202 26.1102 72.7269L26.1032 72.7373C26.0674 72.7886 26.0328 72.8403 25.9984 72.8921C25.3005 71.8373 24.3563 70.9682 23.2473 70.36C22.1384 69.7517 20.898 69.4227 19.6333 69.4012C18.3687 69.3797 17.1179 69.6664 15.9889 70.2366C14.8599 70.8068 13.8867 71.6433 13.1534 72.6739C12.607 71.8255 11.887 71.1025 11.0408 70.5527C10.1946 70.0029 9.24148 69.6387 8.24425 69.4842C7.24702 69.3297 6.22837 69.3883 5.25546 69.6563C4.28256 69.9242 3.37751 70.3954 2.6 71.0386V61.6H75.4ZM55.9 79.15C55.8999 79.2254 55.8867 79.3003 55.861 79.3712L53.3 80.8887V78.5H55.25C55.4224 78.5 55.5877 78.5685 55.7096 78.6904C55.8315 78.8123 55.9 78.9776 55.9 79.15ZM48.1 75.9C47.7879 75.9003 47.4863 76.0129 47.2504 76.2173C47.0144 76.4216 46.8599 76.7039 46.8149 77.0128C46.5571 77.2478 46.3288 77.5134 46.1352 77.8037C45.8138 78.2822 45.3384 78.6364 44.7878 78.8073C44.2373 78.9783 43.6449 78.9557 43.109 78.7434L40.3 77.6199V77.2162C40.3 77.2109 40.3 77.2058 40.3 77.2C40.3 77.1941 40.3 77.1932 40.3 77.1896C40.3031 75.925 40.7669 74.7049 41.6045 73.7575C42.4421 72.8101 43.5962 72.2004 44.8509 72.0423C46.1055 71.8842 47.3748 72.1887 48.4212 72.8987C49.4676 73.6088 50.2195 74.6757 50.5362 75.9H48.1ZM37.7 77.5471L35.8093 78.1441C35.1411 78.3643 34.4269 78.4056 33.7377 78.2639C33.0486 78.1222 32.4086 77.8025 31.8815 77.3365C31.8328 77.2913 31.784 77.245 31.7353 77.1972L28.547 74.0091L28.5308 73.8426C29.2189 73.0296 30.14 72.4475 31.1696 72.175C32.1993 71.9025 33.2878 71.9528 34.2879 72.319C35.2881 72.6852 36.1517 73.3497 36.7619 74.2227C37.3721 75.0956 37.6996 76.1349 37.7 77.2V77.5471ZM10.7772 86.4545L6.6391 99.6963L4.29536 90.3212C3.16986 85.8173 2.6005 81.1924 2.6 76.55C2.6 75.3433 3.07937 74.186 3.93266 73.3327C4.78595 72.4794 5.94326 72 7.15 72C8.35673 72 9.51404 72.4794 10.3673 73.3327C11.2206 74.186 11.7 75.3433 11.7 76.55V80.4079C11.7004 82.4585 11.3893 84.4973 10.7772 86.4544V86.4545ZM19.5 88.3616L15.7709 84.6323C15.3032 84.1671 14.9323 83.6137 14.6798 83.0042C14.4273 82.3947 14.2982 81.7412 14.3 81.0815V77.2C14.3 75.8209 14.8479 74.4982 15.823 73.523C16.7982 72.5479 18.1209 72 19.5 72C20.8791 72 22.2018 72.5479 23.177 73.523C24.1521 74.4982 24.7 75.8209 24.7 77.2V81.0815C24.7018 81.7412 24.5727 82.3947 24.3202 83.0042C24.0677 83.6137 23.6968 84.1671 23.229 84.6323L19.5 88.3616ZM36.2297 84.6316L32.5 88.3616L28.7703 84.6316C27.8321 83.6882 27.3038 82.4128 27.3 81.0823V77.2C27.3008 76.9623 27.3178 76.7248 27.3507 76.4894L29.8972 79.0362C29.9697 79.1084 30.0443 79.1792 30.1218 79.2507C31.3314 80.3462 32.9072 80.9491 34.539 80.9408C35.2353 80.9404 35.9274 80.8337 36.5914 80.6242L37.7 80.2737V81.0823C37.6962 82.4128 37.1679 83.6882 36.2297 84.6316ZM50.7 81.0823C50.6962 82.4128 50.1679 83.6882 49.2297 84.6316L45.5 88.3616L41.7703 84.6316C40.8321 83.6882 40.3038 82.4128 40.3 81.0823V80.4201L42.1434 81.1575C42.7426 81.3971 43.3821 81.52 44.0274 81.5197C44.8713 81.5206 45.7024 81.3135 46.4474 80.917C47.1923 80.5204 47.8281 79.9465 48.2986 79.2459C48.4513 79.0162 48.6586 78.8279 48.9018 78.6977C49.145 78.5676 49.4166 78.4997 49.6925 78.5H50.7V81.0823ZM50.7 134.4V116.2H55.9V118.8H53.3V121.4H55.9V124H53.3V126.6H55.9V129.2H53.3V131.8H55.9V134.4H50.7ZM55.9 111V113.6H50.7V111C50.7 110.31 50.9739 109.649 51.4615 109.162C51.9491 108.674 52.6104 108.4 53.3 108.4C53.9896 108.4 54.6509 108.674 55.1385 109.162C55.6261 109.649 55.9 110.31 55.9 111ZM63.7 81.0815C63.7018 81.7412 63.5727 82.3947 63.3202 83.0042C63.0677 83.6137 62.6968 84.1671 62.229 84.6323L58.5 88.3616L54.7709 84.6323C54.7122 84.5737 54.6552 84.5141 54.6 84.4535V83.1415L57.4727 81.4391C57.6195 81.3519 57.7477 81.2367 57.85 81.1C58.2054 80.6265 58.4246 80.0648 58.4839 79.4757C58.5431 78.8866 58.4402 78.2926 58.1861 77.7578C57.9321 77.223 57.5367 76.7678 57.0427 76.4415C56.5487 76.1152 55.9748 75.9302 55.3832 75.9065C55.339 75.902 55.2945 75.8999 55.25 75.9H53.4646C53.7806 74.6741 54.533 73.6056 55.5807 72.8948C56.6283 72.1841 57.8993 71.88 59.1552 72.0395C60.4111 72.199 61.5657 72.8112 62.4024 73.7613C63.2391 74.7113 63.7005 75.934 63.7 77.2V81.0815ZM71.3609 99.6963L67.2228 86.4545C66.6107 84.4974 66.2995 82.4586 66.3 80.4079V76.55C66.3 75.3433 66.7794 74.186 67.6327 73.3327C68.4859 72.4794 69.6433 72 70.85 72C72.0567 72 73.214 72.4794 74.0673 73.3327C74.9206 74.186 75.4 75.3433 75.4 76.55C75.3995 81.1924 74.8301 85.8173 73.7046 90.3212L71.3609 99.6963Z" fill="black"/>
<path d="M42.1383 67.4809C43.1234 67.0309 44.194 66.7987 45.277 66.8003H45.7231C47.1159 66.8002 48.4819 67.1841 49.6707 67.9099C49.9648 68.0833 50.3152 68.1341 50.6464 68.0513C50.9776 67.9685 51.263 67.7587 51.4408 67.4673C51.6186 67.1759 51.6747 66.8263 51.5969 66.4939C51.5191 66.1615 51.3137 65.873 51.025 65.6908C49.4283 64.716 47.5938 64.2003 45.7231 64.2003H45.277C43.8225 64.1982 42.3846 64.51 41.0616 65.1144C40.7505 65.2589 40.509 65.5205 40.3899 65.8422C40.2708 66.1639 40.2837 66.5196 40.4258 66.8319C40.5679 67.1441 40.8276 67.3876 41.1484 67.5091C41.4692 67.6307 41.825 67.6205 42.1383 67.4809Z" fill="black"/>
<path d="M33.8 77.2005C34.518 77.2005 35.1 76.6184 35.1 75.9005C35.1 75.1825 34.518 74.6005 33.8 74.6005C33.082 74.6005 32.5 75.1825 32.5 75.9005C32.5 76.6184 33.082 77.2005 33.8 77.2005Z" fill="black"/>
<path d="M44.1999 77.2005C44.9179 77.2005 45.4999 76.6184 45.4999 75.9005C45.4999 75.1825 44.9179 74.6005 44.1999 74.6005C43.4819 74.6005 42.8999 75.1825 42.8999 75.9005C42.8999 76.6184 43.4819 77.2005 44.1999 77.2005Z" fill="black"/>
</svg>
