<svg width="253" height="138" viewBox="0 0 253 138" fill="none" xmlns="http://www.w3.org/2000/svg">
<g opacity="0.05">
<path d="M195.034 80.9799C194.948 71.9944 190.353 63.7781 182.743 59.0021C175.132 54.226 165.736 53.6619 157.608 57.4924L138.02 66.7213C134.771 68.2522 132.156 70.7364 130.459 73.9028C128.761 77.0698 128.142 80.6224 128.667 84.178C129.194 87.7325 130.816 90.9541 133.358 93.4946C135.899 96.0352 139.123 97.6546 142.679 98.1786L142.918 98.2129C151.827 99.5929 159.823 104.65 164.887 112.116C166.194 114.041 167.854 115.642 169.783 116.853C170.832 117.511 171.961 118.054 173.156 118.472C176.549 119.657 180.155 119.716 183.586 118.645C187.016 117.573 189.947 115.471 192.062 112.565C194.176 109.659 195.276 106.224 195.242 102.631L195.034 80.9799Z" fill="#78C0DE"/>
<path d="M150.388 52.9338C154.042 53.6507 157.768 52.6818 160.879 50.2051C163.841 47.8486 165.896 44.3802 166.667 40.4375C167.435 36.4964 166.837 32.5098 164.982 29.211C163.032 25.7463 159.947 23.4448 156.296 22.7331C148.955 21.2954 141.655 26.9005 140.021 35.2316C138.728 41.8673 141.416 48.2553 146.273 51.3037C147.513 52.0821 148.895 52.6426 150.388 52.9338Z" fill="#78C0DE"/>
<path d="M177.184 52.8891C184.577 57.5289 194.893 54.4509 200.179 46.0278C205.467 37.6025 203.753 26.9735 196.36 22.3338C188.967 17.6945 178.652 20.7743 173.364 29.1996C168.078 37.6227 169.792 48.2499 177.184 52.8891Z" fill="#78C0DE"/>
<path d="M197.985 71.1741L197.986 71.1746C198.886 72.2657 199.933 73.1742 201.088 73.8993C206.48 77.2829 214.197 76.6561 219.987 71.8834C223.32 69.1364 225.548 65.418 226.259 61.4137C227.005 57.2222 226.021 53.2229 223.489 50.1517C220.957 47.08 217.218 45.3519 212.961 45.284C208.895 45.2191 204.82 46.6972 201.488 49.4451C194.458 55.2411 192.887 64.9888 197.985 71.1741Z" fill="#78C0DE"/>
<path d="M227.34 87.1113L227.339 87.1079C224.604 80.142 215.955 76.9892 208.055 80.0808C200.159 83.1778 195.952 91.3641 198.677 98.328C199.671 100.869 201.452 102.903 203.697 104.312C207.611 106.768 212.935 107.325 217.962 105.36C225.858 102.263 230.065 94.077 227.34 87.1113Z" fill="#78C0DE"/>
</g>
<path d="M39.6123 64.7129H26.2061C24.9439 64.7129 23.9209 63.6899 23.9209 62.4277C23.9209 61.1655 24.9439 60.1426 26.2061 60.1426H39.6123C40.8745 60.1426 41.8975 61.1655 41.8975 62.4277C41.8975 63.6899 40.8745 64.7129 39.6123 64.7129Z" fill="#716680"/>
<path d="M27.5771 110.645H38.2412V115.215H27.5771V110.645Z" fill="#716680"/>
<path d="M26.8154 64.7129H39.0029V71.0352H26.8154V64.7129Z" fill="#D6CFC4"/>
<path d="M34.4326 64.7129H39.0029V71.0352H34.4326V64.7129Z" fill="#C4BEB4"/>
<path d="M68.8613 89.6223V122.223H59.7195V89.927C59.7195 86.8974 57.2636 84.442 54.2339 84.442H45.0957V75.3008H54.5386C62.4486 75.3008 68.8613 81.7129 68.8613 89.6223Z" fill="#716680"/>
<path d="M54.5386 75.3008H49.9683C57.8782 75.3008 64.291 81.7129 64.291 89.6223V122.223H68.8613V89.6223C68.8613 81.7129 62.4485 75.3008 54.5386 75.3008Z" fill="#635870"/>
<path d="M55.834 135.857H22.166C17.1601 135.857 13.1016 131.799 13.1016 126.793H64.8984C64.8984 131.799 60.8399 135.857 55.834 135.857Z" fill="#716680"/>
<path d="M60.3281 126.793C60.3281 131.799 56.2696 135.857 51.2637 135.857H55.834C60.8399 135.857 64.8984 131.799 64.8984 126.793H60.3281Z" fill="#635870"/>
<path d="M42.0498 110.645H23.7686C22.0856 110.645 20.7217 109.281 20.7217 107.598V74.082C20.7217 72.3991 22.0856 71.0352 23.7686 71.0352H42.0498C43.7327 71.0352 45.0967 72.3991 45.0967 74.082V107.598C45.0967 109.281 43.7327 110.645 42.0498 110.645Z" fill="#E8E1D5"/>
<path d="M42.05 71.0352H37.4785C39.1608 71.0352 40.5254 72.3991 40.5254 74.082V107.598C40.5254 109.281 39.1608 110.645 37.4785 110.645H42.05C43.7329 110.645 45.0969 109.281 45.0969 107.598V74.082C45.0969 72.3991 43.7329 71.0352 42.05 71.0352Z" fill="#D6CFC4"/>
<path d="M51.1895 79.8003C51.1895 83.1655 48.461 85.894 45.0957 85.894C41.7299 85.894 39.002 83.1655 39.002 79.8003C39.002 76.435 41.7299 73.7065 45.0957 73.7065C48.461 73.7065 51.1895 76.435 51.1895 79.8003Z" fill="#FFBD54"/>
<path d="M47.3809 79.8003C47.3809 81.0625 46.3573 82.0854 45.0957 82.0854C43.8335 82.0854 42.8105 81.0625 42.8105 79.8003C42.8105 78.5381 43.8335 77.5151 45.0957 77.5151C46.3573 77.5151 47.3809 78.5381 47.3809 79.8003Z" fill="#FF573D"/>
<path d="M74.5723 126.793H3.42773C2.16554 126.793 1.14258 125.77 1.14258 124.508C1.14258 123.246 2.16554 122.223 3.42773 122.223H74.5723C75.8345 122.223 76.8574 123.246 76.8574 124.508C76.8574 125.77 75.8345 126.793 74.5723 126.793Z" fill="#E8E1D5"/>
<path d="M74.5723 122.223H70.002C71.2641 122.223 72.2871 123.246 72.2871 124.508C72.2871 125.77 71.2641 126.793 70.002 126.793H74.5723C75.8345 126.793 76.8574 125.77 76.8574 124.508C76.8574 123.246 75.8345 122.223 74.5723 122.223Z" fill="#D6CFC4"/>
<path d="M45.0957 83.228C46.9857 83.228 48.5234 81.6903 48.5234 79.8003C48.5234 77.9103 46.9851 76.3726 45.0957 76.3726C43.2057 76.3726 41.668 77.9103 41.668 79.8003C41.668 81.6903 43.2051 83.228 45.0957 83.228ZM45.0957 78.6577C45.7253 78.6577 46.2383 79.1701 46.2383 79.8003C46.2383 80.4305 45.7253 80.9429 45.0957 80.9429C44.4655 80.9429 43.9531 80.4305 43.9531 79.8003C43.9531 79.1701 44.4655 78.6577 45.0957 78.6577Z" fill="black"/>
<path d="M74.5723 121.08H70.0037V120.496C70.0037 119.865 69.492 119.354 68.8612 119.354C68.2298 119.354 67.7186 119.865 67.7186 120.496V121.08H60.8613V89.9276C60.8613 86.2725 57.8882 83.2988 54.2344 83.2988H51.4267C52.0028 82.261 52.3313 81.0684 52.3313 79.8003C52.3313 78.5893 52.0307 77.4473 51.5029 76.4434H54.5391C61.8063 76.4434 67.7186 82.3556 67.7186 89.6229V115.646C67.7186 116.278 68.2298 116.789 68.8612 116.789C69.492 116.789 70.0037 116.278 70.0037 115.646V89.6229C70.0037 81.0952 63.0661 74.1582 54.5391 74.1582H49.6188C48.5953 73.3358 47.3438 72.7865 45.9757 72.6193C45.3788 71.0137 43.8298 69.8926 42.0499 69.8926H40.1456V65.8138C41.7832 65.5567 43.0401 64.1362 43.0401 62.4277C43.0401 60.5377 41.5024 59 39.6124 59H26.2061C24.3161 59 22.7784 60.5377 22.7784 62.4277C22.7784 64.1362 24.0352 65.5567 25.6729 65.8138V69.8926H23.7686C21.4585 69.8926 19.5791 71.7719 19.5791 74.082V78.4875C19.5791 79.1183 20.0909 79.6301 20.7217 79.6301C21.3525 79.6301 21.8643 79.1183 21.8643 78.4875V74.082C21.8643 73.0317 22.7189 72.1777 23.7686 72.1777H42.0499C42.5848 72.1777 43.0728 72.4003 43.4209 72.7615C40.236 73.5191 37.8592 76.3862 37.8592 79.8003C37.8592 83.4024 40.5044 86.3969 43.9541 86.9456V107.598C43.9541 108.648 43.1002 109.502 42.0499 109.502H23.7686C22.7189 109.502 21.8643 108.648 21.8643 107.598V83.356C21.8643 82.7246 21.3525 82.2134 20.7217 82.2134C20.0909 82.2134 19.5791 82.7246 19.5791 83.356V107.598C19.5791 109.908 21.4585 111.787 23.7686 111.787H26.4346V115.215C26.4346 115.846 26.9464 116.357 27.5772 116.357H38.2413C38.8721 116.357 39.3838 115.846 39.3838 115.215V111.787H42.0499C44.36 111.787 46.2393 109.908 46.2393 107.598V86.9456C47.4259 86.7557 48.5179 86.2779 49.4385 85.584H54.2344C56.6284 85.584 58.5762 87.5323 58.5762 89.9276V121.08H3.42773C1.53772 121.08 0 122.618 0 124.508C0 126.398 1.53772 127.936 3.42773 127.936H12.0244C12.5945 133.028 16.9244 137 22.166 137H55.834C61.0756 137 65.4055 133.028 65.9756 127.936H74.5723C76.4623 127.936 78 126.398 78 124.508C78 122.618 76.4623 121.08 74.5723 121.08ZM25.0635 62.4277C25.0635 61.7975 25.5759 61.2852 26.2061 61.2852H39.6124C40.2426 61.2852 40.7549 61.7975 40.7549 62.4277C40.7549 63.0579 40.2426 63.5703 39.6124 63.5703H26.2061C25.5759 63.5703 25.0635 63.0579 25.0635 62.4277ZM27.9581 69.8926V65.8555H37.8604V69.8926H27.9581ZM37.0987 114.072H28.7198V111.787H37.0987V114.072ZM40.1444 79.8003C40.1444 77.07 42.3652 74.8491 45.0955 74.8491C47.8252 74.8491 50.0467 77.07 50.0467 79.8003C50.0467 82.527 47.8312 84.7449 45.1062 84.7509C45.1027 84.7509 45.0997 84.7509 45.0967 84.7509C45.0932 84.7509 45.0902 84.7509 45.0866 84.7509C42.3605 84.7467 40.1444 82.5276 40.1444 79.8003ZM74.5723 125.65H20.7188C20.088 125.65 19.5762 126.162 19.5762 126.793C19.5762 127.424 20.088 127.936 20.7188 127.936H63.6725C63.1167 131.764 59.814 134.715 55.834 134.715H22.166C18.186 134.715 14.8833 131.764 14.3275 127.936H15.8687C16.5001 127.936 17.0113 127.424 17.0113 126.793C17.0113 126.162 16.5001 125.65 15.8687 125.65H3.42773C2.79753 125.65 2.28516 125.138 2.28516 124.508C2.28516 123.878 2.79753 123.365 3.42773 123.365H74.5723C75.2025 123.365 75.7148 123.878 75.7148 124.508C75.7148 125.138 75.2025 125.65 74.5723 125.65Z" fill="black"/>
<path d="M24.6826 107.369H41.1357C41.7665 107.369 42.2783 106.858 42.2783 106.227C42.2783 105.595 41.7665 105.084 41.1357 105.084H24.6826C24.0518 105.084 23.54 105.595 23.54 106.227C23.54 106.858 24.0518 107.369 24.6826 107.369Z" fill="black"/>
<path d="M24.6826 103.104H41.1357C41.7665 103.104 42.2783 102.592 42.2783 101.961C42.2783 101.33 41.7665 100.818 41.1357 100.818H24.6826C24.0518 100.818 23.54 101.33 23.54 101.961C23.54 102.592 24.0518 103.104 24.6826 103.104Z" fill="black"/>
</svg>
