<svg width="253" height="138" viewBox="0 0 253 138" fill="none" xmlns="http://www.w3.org/2000/svg">
<g opacity="0.05">
<path d="M195.034 80.9799C194.948 71.9944 190.353 63.7781 182.743 59.0021C175.132 54.226 165.736 53.6619 157.608 57.4924L138.02 66.7213C134.771 68.2522 132.156 70.7364 130.459 73.9028C128.761 77.0698 128.142 80.6224 128.667 84.178C129.194 87.7325 130.816 90.9541 133.358 93.4946C135.899 96.0352 139.123 97.6546 142.679 98.1786L142.918 98.2129C151.827 99.5929 159.823 104.65 164.887 112.116C166.194 114.041 167.854 115.642 169.783 116.853C170.832 117.511 171.961 118.054 173.156 118.472C176.549 119.657 180.155 119.716 183.586 118.645C187.016 117.573 189.947 115.471 192.062 112.565C194.176 109.659 195.276 106.224 195.242 102.631L195.034 80.9799Z" fill="#78C0DE"/>
<path d="M150.388 52.9338C154.042 53.6507 157.768 52.6818 160.879 50.2051C163.841 47.8486 165.896 44.3802 166.667 40.4375C167.435 36.4964 166.837 32.5098 164.982 29.211C163.032 25.7463 159.947 23.4448 156.296 22.7331C148.955 21.2954 141.655 26.9005 140.021 35.2316C138.728 41.8673 141.416 48.2553 146.273 51.3037C147.513 52.0821 148.895 52.6426 150.388 52.9338Z" fill="#78C0DE"/>
<path d="M177.184 52.8891C184.577 57.5289 194.893 54.4509 200.179 46.0278C205.467 37.6025 203.753 26.9735 196.36 22.3338C188.967 17.6945 178.652 20.7743 173.364 29.1996C168.078 37.6227 169.792 48.2499 177.184 52.8891Z" fill="#78C0DE"/>
<path d="M197.985 71.1741L197.986 71.1746C198.886 72.2657 199.933 73.1742 201.088 73.8993C206.48 77.2829 214.197 76.6561 219.987 71.8834C223.32 69.1364 225.548 65.418 226.259 61.4137C227.005 57.2222 226.021 53.2229 223.489 50.1517C220.957 47.08 217.218 45.3519 212.961 45.284C208.895 45.2191 204.82 46.6972 201.488 49.4451C194.458 55.2411 192.887 64.9888 197.985 71.1741Z" fill="#78C0DE"/>
<path d="M227.34 87.1113L227.339 87.1079C224.604 80.142 215.955 76.9892 208.055 80.0808C200.159 83.1778 195.952 91.3641 198.677 98.328C199.671 100.869 201.452 102.903 203.697 104.312C207.611 106.768 212.935 107.325 217.962 105.36C225.858 102.263 230.065 94.077 227.34 87.1113Z" fill="#78C0DE"/>
</g>
<path d="M75.7175 61.2833V105.637L74.4342 107.657L75.7175 110.38V120.339L74.4342 122.171L75.7175 123.65V135.717H44.9175L42.2493 134.754L39.7842 135.717H1.28418V61.2833H75.7175Z" fill="#3775A4"/>
<path d="M75.7165 105.637L74.9144 107.843L75.7165 110.38V120.339L74.754 121.969L75.7165 123.651V130.583L70.8495 133.471C68.1486 134.945 65.121 135.717 62.0442 135.717H44.9165L42.1734 134.915L39.7832 135.717H37.2165L34.3916 131.478C32.8866 129.222 32.0834 126.57 32.0832 123.857V120.638C32.0829 118.739 31.6408 116.866 30.7918 115.167L29.5165 112.617L26.9498 103.633L23.0998 98.5L16.6832 101.067H12.1915C11.681 101.067 11.1913 100.864 10.8303 100.503C10.4693 100.142 10.2665 99.6522 10.2665 99.1417C10.2665 98.6311 10.4693 98.1415 10.8303 97.7805C11.1913 97.4195 11.681 97.2167 12.1915 97.2167H14.1165L21.8165 93.3667V90.8H6.4165V85.2737C6.41659 84.6662 6.63217 84.0784 7.0249 83.6148C7.41762 83.1513 7.96202 82.8422 8.56128 82.7423L14.1165 81.8167L16.6832 79.25L24.3832 76.6834L24.0655 75.7289C23.4414 73.8592 23.5011 71.8286 24.234 69.9988L25.6665 66.4167L35.9332 83.1L39.881 88.036C43.9676 93.1436 49.6935 96.682 56.0895 98.0525L60.0326 98.8979C62.7553 99.481 65.5729 99.4585 68.286 98.8321L75.7165 97.1172V105.637Z" fill="#2A597C"/>
<path d="M38.4998 104.917L33.2505 99.6673L35.8406 97.1241L41.1225 102.406L38.6099 104.972L38.4998 104.917Z" fill="#DBDBDB"/>
<path d="M38.5 104.917L44.9167 110.05L47.4833 106.2L41.0667 102.35L38.5 104.917Z" fill="#EBEBEB"/>
<path d="M75.7165 105.637V110.38C68.0743 111.766 59.2305 111.957 51.6428 110.947L44.9165 110.05L47.4832 106.2L48.4152 106.343C57.0761 107.676 67.0588 107.432 75.7165 105.637Z" fill="#EBEBEB"/>
<path d="M45.2898 101.148C42.5096 105.319 40.6987 110.059 39.9898 115.021L39.7832 116.467H43.6332L43.9701 115.624C45.4485 111.928 47.4634 108.47 49.9501 105.362L50.2913 104.936C50.611 104.536 50.8255 104.063 50.9153 103.559C51.0052 103.055 50.9675 102.537 50.8058 102.051L50.7483 101.879C50.5449 101.269 50.1546 100.738 49.6327 100.362C49.1108 99.9858 48.4838 99.7833 47.8404 99.7833C47.3358 99.7833 46.8389 99.9079 46.394 100.146C45.9491 100.384 45.5698 100.728 45.2898 101.148Z" fill="#DBDBDB"/>
<path d="M75.7168 120.339V123.65C74.5311 125.338 72.9891 126.745 71.1998 127.771C69.4105 128.797 67.4175 129.418 65.3619 129.589C64.3224 129.675 63.285 129.719 62.2498 129.719C55.9686 129.72 49.7902 128.124 44.296 125.079C44.0049 124.911 43.7915 124.636 43.7016 124.312C43.6116 123.988 43.6524 123.642 43.815 123.347C43.9776 123.053 44.2492 122.835 44.5713 122.739C44.8934 122.642 45.2404 122.677 45.5376 122.834C47.3796 123.852 49.3104 124.701 51.3062 125.37C52.063 123.578 52.3575 121.625 52.1628 119.689L51.789 115.955C51.4725 112.754 52.2727 109.541 54.0541 106.863L56.6817 102.921C56.7753 102.781 56.8955 102.66 57.0356 102.566C57.1757 102.473 57.333 102.407 57.4983 102.374C57.6636 102.341 57.8339 102.341 57.9993 102.374C58.1647 102.406 58.3221 102.471 58.4624 102.565C58.6027 102.659 58.7232 102.779 58.817 102.919C58.9108 103.059 58.9761 103.216 59.0092 103.382C59.0423 103.547 59.0425 103.717 59.0097 103.883C58.977 104.048 58.912 104.205 58.8185 104.346L56.1893 108.287C54.7371 110.471 54.0848 113.09 54.3429 115.7L54.7166 119.434C54.9442 121.698 54.6229 123.983 53.7798 126.096C55.1746 126.449 56.5901 126.715 58.018 126.891C59.0333 124.7 59.3443 122.249 58.9083 119.874L58.2266 116.184C57.6444 113.02 58.1749 109.752 59.7281 106.935L62.0204 102.788C62.1886 102.497 62.4643 102.283 62.7882 102.194C63.112 102.104 63.4583 102.144 63.7525 102.307C64.0466 102.47 64.2653 102.741 64.3613 103.063C64.4574 103.385 64.4233 103.732 64.2662 104.03L61.9755 108.176C60.7089 110.473 60.2759 113.138 60.7499 115.718L61.4333 119.407C61.9074 121.995 61.657 124.663 60.7098 127.117C62.1897 127.182 63.6723 127.153 65.1485 127.03C65.3683 127.012 65.5865 126.987 65.8046 126.956C66.6122 124.609 66.651 122.065 65.9153 119.694L64.7972 116.111C63.8415 113.039 63.9787 109.731 65.1854 106.749L66.9661 102.358C67.0941 102.043 67.3423 101.791 67.6559 101.658C67.9695 101.526 68.3229 101.523 68.6384 101.651C68.9539 101.779 69.2056 102.028 69.3381 102.341C69.4706 102.655 69.4731 103.008 69.345 103.324L67.5644 107.713C66.581 110.145 66.4688 112.842 67.2468 115.347L68.3649 118.929C69.0923 121.27 69.2039 123.758 68.6889 126.154C69.4656 125.826 70.2038 125.414 70.8898 124.924C71.3868 124.568 71.8541 124.173 72.2871 123.742C72.8733 121.664 72.8415 119.461 72.1956 117.402L71.1112 113.934C70.1812 110.947 70.3202 107.73 71.5042 104.835L72.7202 101.864C72.784 101.708 72.878 101.566 72.9966 101.446C73.1153 101.327 73.2564 101.232 73.4118 101.166C73.5673 101.101 73.734 101.067 73.9026 101.067C74.0711 101.066 74.2382 101.098 74.3942 101.162C74.5501 101.226 74.692 101.32 74.8117 101.439C74.9314 101.557 75.0266 101.698 75.0917 101.854C75.1569 102.009 75.1908 102.176 75.1916 102.344C75.1923 102.513 75.1598 102.68 75.096 102.836L73.88 105.807C72.9212 108.149 72.8083 110.751 73.5608 113.167L74.6452 116.637C75.0201 117.836 75.2284 119.08 75.2644 120.336C75.4142 120.31 75.5674 120.311 75.7168 120.339Z" fill="#DBDBDB"/>
<path d="M34.6499 61.2833H37.2166V67.7H34.6499V61.2833Z" fill="#2F638B"/>
<path d="M16.6836 61.2833H19.2503V68.9833H16.6836V61.2833Z" fill="#2F638B"/>
<path d="M42.3501 61.2833H44.9168V65.1333H42.3501V61.2833Z" fill="#2F638B"/>
<path d="M50.0503 61.2833H52.617V67.7H50.0503V61.2833Z" fill="#2F638B"/>
<path d="M57.75 61.2833H60.3167V65.1333H57.75V61.2833Z" fill="#2F638B"/>
<path d="M66.7334 61.2833H69.3001V67.7H66.7334V61.2833Z" fill="#2F638B"/>
<path d="M28.2334 131.867H30.8001V135.595H28.2334V131.867Z" fill="#2F638B"/>
<path d="M20.5337 129.3H23.1004V135.595H20.5337V129.3Z" fill="#2F638B"/>
<path d="M12.8335 131.867H15.4002V135.595H12.8335V131.867Z" fill="#2F638B"/>
<path d="M1.40479 124.167H5.13351V126.733H1.40479V124.167Z" fill="#2F638B"/>
<path d="M1.40479 116.467H7.70018V119.033H1.40479V116.467Z" fill="#2F638B"/>
<path d="M1.40479 108.767H5.13351V111.333H1.40479V108.767Z" fill="#2F638B"/>
<path d="M1.40479 68.9833H5.13351V71.55H1.40479V68.9833Z" fill="#2F638B"/>
<path d="M8.9834 61.2833H11.5501V65.1333H8.9834V61.2833Z" fill="#2F638B"/>
<path d="M51.3335 75.4H53.9002V77.9667H51.3335V75.4Z" fill="#2F638B"/>
<path d="M56.4668 75.4H66.7335V77.9667H56.4668V75.4Z" fill="#2F638B"/>
<path d="M51.3335 80.5333H61.6002V83.1H51.3335V80.5333Z" fill="#2F638B"/>
<path d="M64.167 80.5333H66.7337V83.1H64.167V80.5333Z" fill="#2F638B"/>
<path d="M39.7835 116.467L37.2168 119.033L39.7835 122.883V135.717H44.9168V122.883L46.2001 119.033L43.6335 116.467H39.7835Z" fill="#EBEBEB"/>
<path d="M35.9332 97.2167L33.3665 99.7834L28.2332 95.9334L25.6665 90.8001L29.6336 87.7682L31.3228 90.3012L35.9332 97.2167Z" fill="#EBEBEB"/>
<path d="M31.3228 90.3012C30.9565 90.8494 30.4607 91.2989 29.8793 91.6098C29.2978 91.9207 28.6487 92.0833 27.9893 92.0834H26.3082L25.6665 90.8001L29.6336 87.7682L31.3228 90.3012Z" fill="#DADADA"/>
<path d="M27.9098 81.8167H22.6599C21.9857 81.8166 21.3182 81.9494 20.6954 82.2074C20.0725 82.4654 19.5066 82.8435 19.0299 83.3202L16.6835 85.6667L11.0057 86.4777C10.0883 86.6088 9.24891 87.0664 8.64169 87.7665C8.03448 88.4666 7.70019 89.3623 7.7002 90.2891V90.8H27.669C28.5634 90.8 29.4321 90.501 30.137 89.9506C30.8419 89.4002 31.3427 88.63 31.5596 87.7623L31.8002 86.7998C31.9853 86.06 31.9554 85.2827 31.7143 84.5591C31.4481 83.7606 30.9375 83.066 30.2547 82.5738C29.5719 82.0816 28.7515 81.8167 27.9098 81.8167Z" fill="#EBEBEB"/>
<path d="M12.1916 97.2167H14.1166L21.8166 93.3667V92.725C21.8166 91.8741 22.1546 91.058 22.7563 90.4564C23.358 89.8547 24.174 89.5167 25.0249 89.5167C25.4463 89.5167 25.8635 89.5996 26.2527 89.7609C26.642 89.9221 26.9956 90.1584 27.2936 90.4564C27.5915 90.7543 27.8278 91.108 27.989 91.4972C28.1503 91.8865 28.2333 92.3037 28.2333 92.725V96.4146L16.6833 101.067H12.1916C11.6811 101.067 11.1914 100.864 10.8304 100.503C10.4694 100.142 10.2666 99.6522 10.2666 99.1417C10.2666 98.6311 10.4694 98.1415 10.8304 97.7805C11.1914 97.4195 11.6811 97.2167 12.1916 97.2167Z" fill="#DBDBDB"/>
<path d="M75.7167 60H1.28333C0.942972 60 0.616551 60.1352 0.37588 60.3759C0.135208 60.6166 0 60.943 0 61.2833V135.717C0 136.057 0.135208 136.383 0.37588 136.624C0.616551 136.865 0.942972 137 1.28333 137H75.7167C76.057 137 76.3834 136.865 76.6241 136.624C76.8648 136.383 77 136.057 77 135.717V61.2833C77 60.943 76.8648 60.6166 76.6241 60.3759C76.3834 60.1352 76.057 60 75.7167 60ZM38.5735 115.862L36.3092 118.126C36.0994 118.336 35.9687 118.612 35.9395 118.907C35.9102 119.202 35.9842 119.498 36.1488 119.745L38.5 123.272V134.433H37.9034L35.4588 130.766C34.0925 128.721 33.3643 126.316 33.3667 123.856V120.637C33.3642 118.54 32.8758 116.471 31.9399 114.594L30.7179 112.15L28.1833 103.281C28.1403 103.131 28.07 102.989 27.976 102.864L24.932 98.8054L28.0654 97.4129L32.523 100.756L37.5922 105.825L37.5946 105.827C37.6039 105.837 37.6143 105.845 37.624 105.854C37.6472 105.876 37.6705 105.897 37.695 105.917L37.6979 105.92L40.3963 108.077C39.6129 110.269 39.0512 112.534 38.7196 114.839L38.5735 115.862ZM29.4701 92.0833H30.1832L34.2137 97.1214L33.2464 98.0889L29.5167 95.2917V92.725C29.5165 92.5103 29.5009 92.2958 29.4701 92.0833ZM30.5544 86.4878L30.3138 87.4503C30.186 87.9648 29.9107 88.4308 29.5218 88.7911C29.1329 89.1513 28.6472 89.3901 28.1244 89.4782C27.2834 88.6725 26.1617 88.226 24.9971 88.2331C23.8325 88.2402 22.7164 88.7005 21.8853 89.5163H9.10397C9.25121 89.0563 9.52453 88.6467 9.89289 88.3342C10.2612 88.0217 10.7099 87.8187 11.1878 87.7484L16.8649 86.9368C17.1398 86.8975 17.3945 86.7702 17.5908 86.5738L19.9377 84.2269C20.6611 83.5078 21.6388 83.1029 22.6589 83.1H27.9093C28.3238 83.0996 28.7329 83.1938 29.1055 83.3754C29.478 83.5569 29.8043 83.8211 30.0594 84.1478C30.3144 84.4745 30.4916 84.8551 30.5774 85.2606C30.6632 85.6661 30.6553 86.0858 30.5544 86.4878ZM22.3906 94.5144C22.6038 94.4079 22.783 94.244 22.9083 94.0413C23.0336 93.8386 23.1 93.605 23.1 93.3667V92.725C23.1 92.2145 23.3028 91.7248 23.6638 91.3638C24.0248 91.0028 24.5145 90.8 25.025 90.8C25.5355 90.8 26.0252 91.0028 26.3862 91.3638C26.7472 91.7248 26.95 92.2145 26.95 92.725V95.0992L16.4106 99.7833H12.1917C12.0215 99.7833 11.8583 99.7157 11.7379 99.5954C11.6176 99.4751 11.55 99.3118 11.55 99.1417C11.55 98.9715 11.6176 98.8083 11.7379 98.6879C11.8583 98.5676 12.0215 98.5 12.1917 98.5H14.1167C14.3159 98.5 14.5124 98.4536 14.6906 98.3644L22.3906 94.5144ZM35.1816 99.7833L35.9333 99.0316L39.2517 102.35L38.5 103.102L35.1816 99.7833ZM43.6997 122.477C43.6559 122.608 43.6335 122.745 43.6333 122.883V134.433H41.0667V122.883C41.0667 122.63 40.9916 122.382 40.8511 122.171L38.868 119.197L40.3148 117.75H43.1019L44.7317 119.38L43.6997 122.477ZM42.7793 115.148L42.7648 115.183H41.2635C41.9535 110.42 43.6937 105.869 46.3582 101.86C46.5432 101.583 46.8024 101.363 47.1064 101.225C47.4103 101.088 47.7467 101.038 48.0774 101.082C48.408 101.127 48.7196 101.263 48.9767 101.475C49.2338 101.688 49.426 101.969 49.5315 102.285L49.5888 102.457C49.6835 102.739 49.7058 103.041 49.6536 103.334C49.6013 103.627 49.4763 103.902 49.2899 104.134L48.9486 104.56C46.3827 107.767 44.3037 111.334 42.7788 115.148H42.7793ZM40.4212 104.81L41.2654 103.966L41.957 104.381C41.7613 104.78 41.572 105.181 41.391 105.586L40.4212 104.81ZM49.6964 107.823C50.8805 107.981 52.0737 108.109 53.266 108.21C53.0058 108.716 52.7769 109.238 52.5806 109.772C52.3269 109.741 52.0709 109.709 51.8127 109.675L48.7142 109.261C49.031 108.775 49.3586 108.295 49.6971 107.823H49.6964ZM45.1616 116.1C45.7714 114.577 46.4761 113.093 47.2716 111.658L51.4745 112.219C51.6219 112.239 51.7685 112.258 51.9145 112.276C51.7092 113.491 51.6668 114.729 51.7884 115.956L52.1619 119.69C52.3565 121.625 52.0621 123.578 51.3057 125.369C49.5484 124.78 47.841 124.051 46.2 123.19V123.092L47.4174 119.44C47.4928 119.213 47.5037 118.971 47.449 118.739C47.3942 118.507 47.276 118.295 47.1075 118.126L45.1392 116.158L45.1616 116.1ZM74.4333 134.433H71.7433L74.4333 132.837V134.433ZM74.4333 129.852L70.2144 132.355C67.7064 133.717 64.8984 134.431 62.0447 134.433H46.2V126.061C51.2075 128.47 56.6931 129.72 62.2498 129.719C63.2844 129.719 64.3218 129.675 65.3619 129.589C68.8216 129.303 72.053 127.747 74.4333 125.22V129.852ZM54.7165 119.434L54.3431 115.7C54.2393 114.65 54.2829 113.59 54.4725 112.552C55.6577 112.661 56.8452 112.744 58.0258 112.796C57.9536 113.929 58.0209 115.066 58.2261 116.183L58.9085 119.874C59.3444 122.248 59.0332 124.7 58.0177 126.89C56.59 126.714 55.1748 126.449 53.7803 126.096C54.6225 123.983 54.9436 121.698 54.7165 119.434ZM55.2329 110.044C55.4831 109.47 55.7807 108.917 56.1226 108.392C57.0767 108.435 58.0368 108.46 59.0027 108.467C58.7701 109.045 58.5767 109.638 58.4238 110.243C57.3639 110.2 56.2982 110.135 55.2329 110.045V110.044ZM61.2428 112.868C62.2258 112.868 63.2125 112.847 64.1967 112.808C64.2623 113.929 64.4639 115.038 64.7971 116.11L65.9147 119.693C66.6511 122.064 66.6124 124.608 65.8042 126.955C65.5867 126.986 65.3683 127.012 65.1489 127.03C63.6723 127.153 62.1894 127.182 60.7092 127.116C61.6575 124.663 61.9078 121.995 61.4324 119.408L60.7498 115.717C60.5766 114.777 60.5234 113.818 60.5913 112.864C60.8085 112.866 61.0254 112.868 61.2428 112.868V112.868ZM61.0732 110.3C61.2728 109.655 61.5296 109.03 61.8406 108.432C62.7779 108.402 63.7201 108.354 64.6672 108.287C64.4913 108.926 64.3613 109.576 64.2782 110.234C63.2104 110.28 62.1396 110.303 61.0732 110.3V110.3ZM70.7054 112.262C70.8046 112.827 70.9402 113.386 71.1113 113.933L72.1957 117.402C72.8408 119.461 72.8727 121.664 72.2876 123.741C71.2544 124.77 70.0324 125.589 68.6887 126.155C69.2043 123.758 69.0928 121.27 68.3649 118.929L67.2475 115.346C66.9766 114.475 66.8124 113.573 66.7584 112.662C68.0741 112.565 69.3942 112.431 70.7054 112.262V112.262ZM66.8946 110.078C67.0126 109.384 67.1952 108.702 67.44 108.041C68.529 107.923 69.6168 107.782 70.7035 107.616C70.5845 108.303 70.5191 108.999 70.5076 109.697C69.3067 109.854 68.0996 109.983 66.8946 110.079V110.078ZM74.4341 115.958L73.5616 113.167C73.4314 112.749 73.3268 112.322 73.2483 111.891C73.6417 111.827 74.0369 111.759 74.4341 111.687V115.958ZM74.4341 109.079C73.9837 109.163 73.5352 109.242 73.0887 109.317C73.1294 108.584 73.2439 107.858 73.4304 107.148C73.7665 107.084 74.1011 107.018 74.4341 106.949V109.079ZM74.4341 101.18C74.4208 101.175 74.4085 101.168 74.3948 101.162C74.0799 101.033 73.7266 101.035 73.4127 101.166C73.0988 101.298 72.85 101.549 72.721 101.863L71.5048 104.834C71.4972 104.852 71.491 104.871 71.4836 104.889C70.5055 105.056 69.5216 105.202 68.5319 105.328L69.3454 103.323C69.4095 103.167 69.4421 102.999 69.4414 102.831C69.4406 102.662 69.4065 102.494 69.341 102.339C69.2755 102.183 69.1798 102.042 69.0596 101.923C68.9394 101.804 68.7969 101.711 68.6403 101.647C68.4838 101.584 68.3162 101.552 68.1473 101.553C67.9783 101.554 67.8113 101.589 67.6558 101.655C67.5004 101.721 67.3595 101.818 67.2412 101.938C67.123 102.059 67.0298 102.202 66.9669 102.359L65.6359 105.639C64.8527 105.706 64.0696 105.761 63.2866 105.803L64.2664 104.03C64.4228 103.733 64.4565 103.386 64.3603 103.065C64.264 102.743 64.0455 102.472 63.7516 102.309C63.4578 102.147 63.1119 102.106 62.7883 102.196C62.4647 102.285 62.1891 102.498 62.0206 102.789L60.3022 105.898C59.465 105.907 58.6287 105.902 57.7935 105.883L58.8184 104.346C59.005 104.062 59.072 103.717 59.0046 103.384C58.9372 103.052 58.741 102.76 58.4588 102.572C58.1766 102.383 57.8314 102.315 57.4986 102.38C57.1658 102.446 56.8726 102.641 56.6829 102.922L54.7983 105.748C53.6998 105.676 52.6005 105.578 51.5003 105.455C51.8751 104.903 52.1173 104.272 52.2081 103.611C52.2989 102.951 52.2358 102.278 52.0238 101.646L51.9665 101.473C51.709 100.701 51.24 100.017 50.6127 99.4978C49.9854 98.9789 49.225 98.6465 48.4181 98.5385C47.6112 98.4304 46.7902 98.551 46.0485 98.8866C45.3067 99.2222 44.6741 99.7592 44.2225 100.437C43.8563 100.986 43.5061 101.546 43.172 102.117L41.8628 101.331L36.891 96.3589L31.8427 90.0486C32.2978 89.4646 32.6252 88.7915 32.8038 88.0729L33.0444 87.1125C33.24 86.332 33.255 85.5171 33.0884 84.7299C32.9218 83.9427 32.5778 83.2038 32.0827 82.5695C31.5876 81.9352 30.9544 81.4221 30.2312 81.0693C29.5081 80.7164 28.714 80.5331 27.9093 80.5333H22.6589C21.8161 80.531 20.9812 80.6959 20.2026 81.0185C19.424 81.341 18.7171 81.8147 18.1228 82.4123L16.0784 84.4568L10.8246 85.2079C9.61348 85.3832 8.50512 85.9862 7.7 86.9078V85.2743C7.69923 84.9703 7.80673 84.676 8.00323 84.444C8.19973 84.2121 8.4724 84.0576 8.77238 84.0084L14.3276 83.0827C14.5915 83.0386 14.835 82.9133 15.0241 82.7241L17.3765 80.3716L24.7892 77.9012C25.1121 77.7936 25.3789 77.5621 25.5311 77.2577C25.6833 76.9532 25.7084 76.6008 25.6007 76.278L25.2826 75.3235C24.7562 73.7416 24.8067 72.0245 25.4251 70.4763L25.9107 69.2621L34.8404 83.7728C34.868 83.8177 34.8983 83.8609 34.9312 83.9021L38.8799 88.8378C43.1551 94.1713 49.1375 97.8688 55.8199 99.3075L59.7631 100.153C62.6703 100.771 65.6775 100.748 68.5746 100.083L74.4333 98.7312L74.4341 101.18ZM74.4341 96.0968L67.9987 97.5818C65.4681 98.1619 62.8414 98.1825 60.3021 97.6423L56.359 96.7973C50.255 95.4831 44.7902 92.1057 40.8849 87.2338L36.9857 82.3598L26.7596 65.7442C26.635 65.5417 26.4565 65.3777 26.2442 65.2707C26.0319 65.1637 25.794 65.1178 25.557 65.1381C25.3201 65.1583 25.0935 65.2441 24.9024 65.3857C24.7114 65.5273 24.5634 65.7191 24.4751 65.9399L23.0421 69.5227C22.2337 71.5462 22.1356 73.784 22.7639 75.8705L16.2775 78.0324C16.0885 78.0956 15.9168 78.2017 15.7759 78.3425L13.5 80.6184L8.35065 81.4766C7.45059 81.6241 6.63247 82.0873 6.04291 82.7832C5.45335 83.4791 5.1309 84.3622 5.13333 85.2743V90.8C5.13333 91.1404 5.26854 91.4668 5.50921 91.7075C5.74988 91.9481 6.07631 92.0833 6.41667 92.0833H20.5333V92.5736L13.8136 95.9333H12.1917C11.3408 95.9333 10.5247 96.2714 9.92303 96.873C9.32135 97.4747 8.98333 98.2908 8.98333 99.1417C8.98333 99.9926 9.32135 100.809 9.92303 101.41C10.5247 102.012 11.3408 102.35 12.1917 102.35H16.6833C16.7262 102.35 16.769 102.348 16.8117 102.343C16.8253 102.342 16.8389 102.339 16.8526 102.337C16.8813 102.333 16.91 102.33 16.9386 102.324C16.9546 102.32 16.9706 102.316 16.9867 102.312C17.0123 102.306 17.0379 102.3 17.063 102.292C17.0791 102.286 17.0964 102.28 17.1131 102.274C17.1298 102.269 17.1452 102.264 17.1599 102.258L22.6635 100.057L25.781 104.214L28.2835 112.969C28.3054 113.046 28.3342 113.12 28.3697 113.191L29.6452 115.741C30.403 117.262 30.7983 118.938 30.8 120.637V123.857C30.7972 126.823 31.6754 129.724 33.3232 132.19L34.8188 134.433H30.8V131.867H28.2333V134.433H23.1V129.3H20.5333V134.433H15.4V131.867H12.8333V134.433H2.56667V126.733H5.13333V124.167H2.56667V119.033H7.7V116.467H2.56667V111.333H5.13333V108.767H2.56667V71.55H5.13333V68.9833H2.56667V62.5667H8.98333V65.1333H11.55V62.5667H16.6833V68.9833H19.25V62.5667H34.65V67.7H37.2167V62.5667H42.35V65.1333H44.9167V62.5667H50.05V67.7H52.6167V62.5667H57.75V65.1333H60.3167V62.5667H66.7333V67.7H69.3V62.5667H74.4333L74.4341 96.0968Z" fill="black"/>
<path d="M51.3335 75.4H53.9002V77.9667H51.3335V75.4Z" fill="black"/>
<path d="M56.4668 75.4H66.7335V77.9667H56.4668V75.4Z" fill="black"/>
<path d="M51.3335 80.5333H61.6002V83.1H51.3335V80.5333Z" fill="black"/>
<path d="M64.1665 80.5333H66.7332V83.1H64.1665V80.5333Z" fill="black"/>
</svg>
